# 3ds Max Wavefront OBJ Exporter v0.97b - (c)2007 guruware
# File Created: 28.01.2018 10:40:34

mtllib refrigerator.mtl

#
# object refrigerator
#

v  0.0000 38.1000 5.9004
v  -38.1000 38.1000 5.9004
v  -38.1000 38.1000 116.8876
v  0.0000 38.1000 116.8876
v  -38.1000 38.1000 167.6000
v  -38.1000 -29.3511 117.8170
v  -38.1000 -29.3511 167.6000
v  0.0000 -29.3511 167.6000
v  0.0000 38.1000 167.6000
v  -38.1000 -29.3511 5.9004
v  -38.1000 -29.3511 115.9582
v  0.0000 -29.3511 115.9582
v  0.0000 -29.3511 117.8170
v  0.0000 -29.3511 5.9004
v  -35.7501 -27.0011 5.9004
v  0.0000 -27.0011 5.9004
v  -35.7501 35.7501 5.9004
v  0.0000 35.7501 5.9004
v  38.1000 38.1000 116.8876
v  38.1000 38.1000 5.9004
v  38.1000 38.1000 167.6000
v  38.1000 -29.3511 167.6000
v  38.1000 -29.3511 117.8170
v  38.1000 -29.3511 115.9582
v  38.1000 -29.3511 5.9004
v  35.7501 -27.0011 5.9004
v  35.7501 35.7501 5.9004
v  -36.9984 -29.1926 0.0000
v  -36.9984 -29.1926 6.9282
v  -36.9984 37.7452 6.9282
v  -36.9984 37.7452 0.0000
v  0.0000 37.7452 0.0000
v  0.0000 37.7452 6.9282
v  0.0000 -29.1926 0.0000
v  0.0000 -29.1926 6.9282
v  36.9984 -29.1926 0.0000
v  36.9984 37.7452 0.0000
v  36.9984 37.7452 6.9282
v  36.9984 -29.1926 6.9282
v  38.1000 -34.5423 5.9004
v  37.8776 -36.0988 5.9004
v  37.2106 -37.2106 5.9004
v  36.0988 -37.8776 5.9004
v  34.5423 -38.1000 5.9004
v  -34.5423 -38.1000 5.9004
v  -36.0988 -37.8776 5.9004
v  -37.2106 -37.2106 5.9004
v  -37.8776 -36.0988 5.9004
v  -38.1000 -34.5423 5.9004
v  38.1000 -34.5423 167.6000
v  -38.1000 -34.5423 167.6000
v  -37.8776 -36.0988 167.6000
v  -37.2106 -37.2106 167.6000
v  -36.0988 -37.8776 167.6000
v  -34.5423 -38.1000 167.6000
v  34.5423 -38.1000 167.6000
v  36.0988 -37.8776 167.6000
v  37.2106 -37.2106 167.6000
v  37.8776 -36.0988 167.6000
v  34.5423 -38.1000 115.9582
v  -34.5423 -38.1000 115.9582
v  38.1000 -34.5423 115.9582
v  -34.5423 -38.1000 117.8170
v  34.5423 -38.1000 117.8170
v  -38.1000 -34.5423 117.8170
v  -38.1000 -34.5423 115.9582
v  38.1000 -34.5423 117.8170
v  36.0988 -37.8776 115.9582
v  -36.0988 -37.8776 117.8170
v  36.0988 -37.8776 117.8170
v  -36.0988 -37.8776 115.9582
v  37.2106 -37.2106 115.9582
v  37.8776 -36.0988 115.9582
v  -37.2106 -37.2106 117.8170
v  -37.8776 -36.0988 117.8170
v  37.2106 -37.2106 117.8170
v  37.8776 -36.0988 117.8170
v  -37.2106 -37.2106 115.9582
v  -37.8776 -36.0988 115.9582
v  -31.8364 -37.8232 163.9313
v  -31.8364 -39.4126 163.9313
v  -29.3775 -38.6316 162.7882
v  -29.3775 -37.7195 162.7882
v  -34.2954 -37.7194 146.8956
v  -34.2954 -41.6735 156.3562
v  -34.2954 -38.6316 162.7882
v  -34.2954 -37.7195 162.7882
v  -29.3775 -47.4419 121.3354
v  -31.8364 -48.4425 121.5030
v  -31.8364 -48.4771 117.8575
v  -29.3775 -47.4972 117.8575
v  -29.3775 -44.2321 129.0888
v  -29.3775 -46.9048 133.3150
v  -29.3775 -44.5497 121.4265
v  -31.8364 -42.7938 156.9126
v  -29.3775 -41.6735 156.3562
v  -29.3775 -37.7194 146.8956
v  -29.3775 -45.2332 144.8013
v  -31.8364 -46.3292 145.4519
v  -31.8364 -47.9765 134.0597
v  -34.2954 -47.4972 117.8575
v  -34.2954 -47.4419 121.3354
v  -34.2954 -44.5497 121.4265
v  -34.2954 -44.5413 117.8575
v  -34.2954 -40.3794 146.0305
v  -29.3775 -42.3216 143.5681
v  -34.2954 -44.2321 129.0888
v  -34.2954 -42.3216 143.5681
v  -29.3775 -40.3794 146.0305
v  -34.2954 -46.9048 133.3150
v  -34.2954 -45.2332 144.8013
v  -29.3775 -44.5413 117.8575
v  -29.3775 -42.8924 117.8575
v  -29.3775 -42.9008 120.3845
v  -34.2954 -42.8924 117.8575
v  -34.2954 -42.9008 120.3845
v  -29.3775 -37.3133 117.8575
v  -29.3775 -37.2211 120.3845
v  -34.2954 -37.3133 117.8575
v  -34.2954 -37.2211 120.3845
v  -31.8364 -37.8232 69.8437
v  -29.3775 -37.7194 70.9868
v  -29.3775 -38.6316 70.9868
v  -31.8364 -39.4126 69.8437
v  -34.2954 -37.7194 86.8793
v  -34.2954 -37.7194 70.9868
v  -34.2954 -38.6316 70.9868
v  -34.2954 -41.6734 77.4188
v  -29.3775 -47.4419 112.4396
v  -29.3775 -47.4972 115.9175
v  -31.8364 -48.4771 115.9175
v  -31.8364 -48.4425 112.2720
v  -29.3775 -44.2321 104.6861
v  -29.3775 -44.5497 112.3484
v  -29.3775 -46.9048 100.4600
v  -29.3775 -41.6734 77.4188
v  -31.8364 -42.7938 76.8624
v  -29.3775 -37.7194 86.8793
v  -29.3775 -45.2332 88.9737
v  -31.8364 -47.9765 99.7152
v  -31.8364 -46.3292 88.3231
v  -34.2954 -47.4972 115.9175
v  -34.2954 -44.5413 115.9175
v  -34.2954 -44.5497 112.3484
v  -34.2954 -47.4419 112.4396
v  -34.2954 -40.3794 87.7445
v  -29.3775 -42.3216 90.2069
v  -34.2954 -42.3216 90.2069
v  -34.2954 -44.2321 104.6861
v  -29.3775 -40.3794 87.7445
v  -34.2954 -46.9048 100.4600
v  -34.2954 -45.2332 88.9737
v  -29.3775 -44.5413 115.9175
v  -29.3775 -42.9008 113.3905
v  -29.3775 -42.8924 115.9175
v  -34.2954 -42.8924 115.9175
v  -34.2954 -42.9008 113.3905
v  -29.3775 -37.3133 115.9175
v  -29.3775 -37.2211 113.3905
v  -34.2954 -37.3133 115.9175
v  -34.2954 -37.2211 113.3905
v  33.5827 -22.6429 167.3180
v  32.6271 -20.1715 167.3180
v  32.6271 -20.1715 170.0816
v  33.5827 -22.6429 170.0816
v  30.5639 -18.5091 167.3180
v  30.5639 -18.5091 170.0816
v  28.3224 -18.1487 167.3180
v  28.3224 -18.1487 170.0816
v  25.4745 -19.0566 167.3180
v  25.4745 -19.0566 170.0816
v  23.8120 -21.1199 167.3180
v  23.8120 -21.1199 170.0816
v  23.4039 -23.7379 167.3180
v  23.4039 -23.7379 170.0816
v  24.3595 -26.2093 167.3180
v  24.3595 -26.2093 170.0816
v  36.2405 -33.1353 167.3180
v  35.8293 -31.6005 167.3180
v  35.8293 -31.6005 170.0816
v  36.2405 -33.1353 170.0816
v  30.5126 -34.6701 167.3180
v  31.6362 -35.7936 167.3180
v  31.6362 -35.7936 170.0816
v  30.5126 -34.6701 170.0816
v  33.1710 -36.2048 167.3180
v  33.1710 -36.2048 170.0816
v  34.7057 -35.7936 167.3180
v  34.7057 -35.7936 170.0816
v  35.8293 -34.6701 167.3180
v  35.8293 -34.6701 170.0816
# 191 vertices

vn 0.0000 1.0000 0.0000
vn -1.0000 0.0000 0.0000
vn 0.0000 0.0000 1.0000
vn 0.0000 -1.0000 0.0000
vn 0.0000 0.0000 -1.0000
vn 1.0000 0.0000 0.0000
vn 0.0000 -0.0000 1.0000
vn 0.0709 -0.9975 0.0000
vn -0.0709 -0.9975 0.0000
vn 0.9975 -0.0709 0.0000
vn -0.9975 -0.0709 0.0000
vn 0.3346 -0.9424 0.0000
vn -0.3346 -0.9424 0.0000
vn 0.7071 -0.7071 0.0000
vn 0.9424 -0.3346 0.0000
vn -0.7071 -0.7071 0.0000
vn -0.9424 -0.3346 0.0000
vn 0.0000 -0.0000 -1.0000
vn -0.0000 0.0000 1.0000
vn 0.4215 0.0000 0.9068
vn 0.3767 -0.9260 0.0258
vn -0.0000 -0.9996 0.0272
vn -0.0000 -0.9999 0.0133
vn 0.3702 -0.9289 0.0148
vn 0.4415 -0.8089 0.3882
vn -0.0000 -0.9009 0.4340
vn -0.0000 -0.9312 0.3646
vn 0.4520 -0.8321 0.3214
vn 0.4411 -0.8770 0.1906
vn 0.0000 -0.9741 0.2261
vn -0.0000 -0.9951 0.0984
vn 0.4155 -0.9065 0.0756
vn 0.0000 0.9963 -0.0862
vn 0.0000 0.9212 -0.3890
vn 0.0000 0.5718 -0.8204
vn 0.0000 0.3093 -0.9510
vn -0.4215 0.0000 0.9068
vn -0.4155 -0.9065 0.0756
vn -0.3767 -0.9260 0.0258
vn -0.4415 -0.8089 0.3882
vn -0.4520 -0.8321 0.3214
vn -0.4410 -0.8770 0.1906
vn -1.0000 0.0000 -0.0000
vn 0.0000 0.8857 0.4643
vn -0.3702 -0.9289 0.0148
vn 0.0000 0.2781 0.9606
vn -0.0000 0.0000 -1.0000
vn 0.4215 0.0000 -0.9068
vn 0.3767 -0.9260 -0.0258
vn 0.3702 -0.9289 -0.0148
vn -0.0000 -0.9999 -0.0133
vn -0.0000 -0.9996 -0.0272
vn 0.4415 -0.8089 -0.3882
vn 0.4520 -0.8321 -0.3214
vn -0.0000 -0.9312 -0.3646
vn -0.0000 -0.9009 -0.4340
vn 0.4411 -0.8770 -0.1906
vn 0.4155 -0.9065 -0.0756
vn -0.0000 -0.9951 -0.0984
vn 0.0000 -0.9741 -0.2261
vn -0.0000 0.9963 0.0862
vn 0.0000 0.9212 0.3890
vn -0.0000 0.9212 0.3890
vn 0.0000 0.5718 0.8204
vn 0.0000 0.3093 0.9510
vn -0.4215 0.0000 -0.9068
vn -0.4155 -0.9065 -0.0756
vn -0.3767 -0.9260 -0.0258
vn -0.4415 -0.8089 -0.3882
vn -0.4520 -0.8321 -0.3214
vn -0.4410 -0.8770 -0.1906
vn 0.0000 0.8857 -0.4643
vn -0.0000 0.8857 -0.4643
vn -0.3702 -0.9289 -0.0148
vn 0.0000 0.2781 -0.9606
vn 0.9327 0.3607 0.0000
vn 0.8076 0.5898 0.0000
vn 0.4067 0.9136 0.0000
vn -0.0745 0.9972 0.0000
vn -0.5651 0.8250 0.0000
vn -0.9145 0.4045 0.0000
vn -0.9943 -0.1070 0.0000
vn -0.9327 -0.3607 0.0000
vn 0.9659 0.2588 0.0000
vn -0.5000 -0.8660 0.0000
vn -0.0000 -1.0000 0.0000
vn 0.5000 -0.8660 0.0000
vn 0.8660 -0.5000 0.0000
vn -0.8087 -0.5882 0.0000
vn 0.9700 0.2433 0.0000
# 90 vertex normals

vt 0.9577 0.1993 0.0000
vt 0.9377 0.0501 0.0000
vt 0.7319 0.1740 0.0000
vt 0.2309 0.1740 0.0000
vt 0.9149 0.3094 0.0000
vt 0.7429 0.3094 0.0000
vt 0.2267 0.4784 0.0000
vt 0.7605 0.4908 0.0000
vt 0.7429 0.0049 0.0000
vt 0.9149 0.0049 0.0000
vt 0.9271 0.0607 0.0000
vt 0.9471 0.1993 0.0000
vt 0.7605 0.3188 0.0000
vt 0.7689 0.3188 0.0000
vt 0.7689 0.4908 0.0000
vt 0.0020 0.4784 0.0000
vt 0.0020 0.1740 0.0000
vt 0.9377 0.3545 0.0000
vt 0.9271 0.3439 0.0000
vt 0.9473 0.0095 0.0000
vt 0.9579 0.0095 0.0000
vt 0.7319 0.4784 0.0000
vt 0.2351 0.4784 0.0000
vt 0.2309 0.0020 0.0000
vt 0.7319 0.0020 0.0000
vt 0.0020 0.0020 0.0000
vt 0.9577 0.3713 0.0000
vt 0.9471 0.3607 0.0000
vt 0.9473 0.1815 0.0000
vt 0.9579 0.1709 0.0000
vt 0.7319 0.1740 0.0000
vt 0.2309 0.1740 0.0000
vt 0.2309 0.0020 0.0000
vt 0.7319 0.0020 0.0000
vt 0.2267 0.4784 0.0000
vt 0.0020 0.4784 0.0000
vt 0.0020 0.1740 0.0000
vt 0.9149 0.3094 0.0000
vt 0.7429 0.3094 0.0000
vt 0.7429 0.0049 0.0000
vt 0.9149 0.0049 0.0000
vt 0.7319 0.4784 0.0000
vt 0.2351 0.4784 0.0000
vt 0.7605 0.4908 0.0000
vt 0.7605 0.3188 0.0000
vt 0.7689 0.3188 0.0000
vt 0.7689 0.4908 0.0000
vt 0.0020 0.0020 0.0000
vt 0.9577 0.1993 0.0000
vt 0.9577 0.3713 0.0000
vt 0.9471 0.3607 0.0000
vt 0.9471 0.1993 0.0000
vt 0.9377 0.0501 0.0000
vt 0.9377 0.3545 0.0000
vt 0.9271 0.3439 0.0000
vt 0.9271 0.0607 0.0000
vt 0.9473 0.1815 0.0000
vt 0.9473 0.0095 0.0000
vt 0.9579 0.0095 0.0000
vt 0.9579 0.1709 0.0000
vt 0.9143 0.7993 0.0000
vt 0.8830 0.7993 0.0000
vt 0.8830 0.4971 0.0000
vt 0.9143 0.4971 0.0000
vt 0.8830 0.3301 0.0000
vt 0.9143 0.3301 0.0000
vt 0.9143 0.9663 0.0000
vt 0.8830 0.9663 0.0000
vt 0.9143 0.7993 0.0000
vt 0.8830 0.7993 0.0000
vt 0.8830 0.4971 0.0000
vt 0.9143 0.4971 0.0000
vt 0.8830 0.3301 0.0000
vt 0.9143 0.3301 0.0000
vt 0.9143 0.9663 0.0000
vt 0.8830 0.9663 0.0000
vt 0.6837 0.9052 0.0000
vt 0.6907 0.9062 0.0000
vt 0.6958 0.9092 0.0000
vt 0.6988 0.9143 0.0000
vt 0.6998 0.9213 0.0000
vt 0.6998 0.9447 0.0000
vt 0.3558 0.9447 0.0000
vt 0.3558 0.9213 0.0000
vt 0.0020 0.8495 0.0000
vt 0.0020 0.5376 0.0000
vt 0.4988 0.5376 0.0000
vt 0.4988 0.8495 0.0000
vt 0.0020 0.5117 0.0000
vt 0.3568 0.9143 0.0000
vt 0.0020 0.4883 0.0000
vt 0.3598 0.9092 0.0000
vt 0.3649 0.9062 0.0000
vt 0.3719 0.9052 0.0000
vt 0.0071 0.9216 0.0000
vt 0.0081 0.9146 0.0000
vt 0.0111 0.9096 0.0000
vt 0.4988 0.4883 0.0000
vt 0.0162 0.9066 0.0000
vt 0.4988 0.5117 0.0000
vt 0.7345 0.8491 0.0000
vt 0.5098 0.8491 0.0000
vt 0.5098 0.5373 0.0000
vt 0.7345 0.5373 0.0000
vt 0.0232 0.9056 0.0000
vt 0.3350 0.9056 0.0000
vt 0.3420 0.9066 0.0000
vt 0.3471 0.9096 0.0000
vt 0.3501 0.9146 0.0000
vt 0.7345 0.5114 0.0000
vt 0.3511 0.9216 0.0000
vt 0.5098 0.5114 0.0000
vt 0.3511 0.9451 0.0000
vt 0.5098 0.4880 0.0000
vt 0.0071 0.9451 0.0000
vt 0.7345 0.4880 0.0000
vt 0.0020 0.8988 0.0000
vt 0.0020 0.8754 0.0000
vt 0.3510 0.9780 0.0000
vt 0.3500 0.9850 0.0000
vt 0.3470 0.9900 0.0000
vt 0.3420 0.9930 0.0000
vt 0.4988 0.8754 0.0000
vt 0.4988 0.8988 0.0000
vt 0.5098 0.8985 0.0000
vt 0.5098 0.8750 0.0000
vt 0.7345 0.8750 0.0000
vt 0.7345 0.8985 0.0000
vt 0.0020 0.5305 0.0000
vt 0.4988 0.5305 0.0000
vt 0.5098 0.5302 0.0000
vt 0.3349 0.9940 0.0000
vt 0.7345 0.5302 0.0000
vt 0.0231 0.9940 0.0000
vt 0.7345 0.8562 0.0000
vt 0.0161 0.9930 0.0000
vt 0.5098 0.8562 0.0000
vt 0.0111 0.9900 0.0000
vt 0.4988 0.8566 0.0000
vt 0.0080 0.9850 0.0000
vt 0.0020 0.8566 0.0000
vt 0.0070 0.9780 0.0000
vt 0.0020 0.5247 0.0000
vt 0.0070 0.9545 0.0000
vt 0.4988 0.5247 0.0000
vt 0.3510 0.9545 0.0000
vt 0.0020 0.5188 0.0000
vt 0.6998 0.9548 0.0000
vt 0.4988 0.5188 0.0000
vt 0.6998 0.9782 0.0000
vt 0.5098 0.5243 0.0000
vt 0.6988 0.9853 0.0000
vt 0.7345 0.5243 0.0000
vt 0.6958 0.9903 0.0000
vt 0.5098 0.5185 0.0000
vt 0.7345 0.5185 0.0000
vt 0.7345 0.8621 0.0000
vt 0.5098 0.8621 0.0000
vt 0.7345 0.8679 0.0000
vt 0.5098 0.8679 0.0000
vt 0.4988 0.8624 0.0000
vt 0.0020 0.8624 0.0000
vt 0.4988 0.8683 0.0000
vt 0.0020 0.8683 0.0000
vt 0.6907 0.9933 0.0000
vt 0.6837 0.9943 0.0000
vt 0.3719 0.9943 0.0000
vt 0.3648 0.9933 0.0000
vt 0.3598 0.9903 0.0000
vt 0.3568 0.9853 0.0000
vt 0.3558 0.9782 0.0000
vt 0.3558 0.9548 0.0000
vt 0.8212 0.9496 0.0000
vt 0.8074 0.9544 0.0000
vt 0.8073 0.9484 0.0000
vt 0.8183 0.9466 0.0000
vt 0.7940 0.9499 0.0000
vt 0.7654 0.8854 0.0000
vt 0.7962 0.9172 0.0000
vt 0.7963 0.9469 0.0000
vt 0.8201 0.7396 0.0000
vt 0.8200 0.7563 0.0000
vt 0.8073 0.7569 0.0000
vt 0.8073 0.7394 0.0000
vt 0.8339 0.7939 0.0000
vt 0.8197 0.8127 0.0000
vt 0.8338 0.7572 0.0000
vt 0.8180 0.9173 0.0000
vt 0.8071 0.9177 0.0000
vt 0.8493 0.8854 0.0000
vt 0.8198 0.8658 0.0000
vt 0.8073 0.8674 0.0000
vt 0.8073 0.8156 0.0000
vt 0.7802 0.7400 0.0000
vt 0.7944 0.7396 0.0000
vt 0.7946 0.7563 0.0000
vt 0.7807 0.7572 0.0000
vt 0.7752 0.8771 0.0000
vt 0.8345 0.8635 0.0000
vt 0.7949 0.8127 0.0000
vt 0.7948 0.8658 0.0000
vt 0.7801 0.8635 0.0000
vt 0.7807 0.7939 0.0000
vt 0.8394 0.8771 0.0000
vt 0.8037 0.4683 0.0000
vt 0.7501 0.5691 0.0000
vt 0.7723 0.5691 0.0000
vt 0.8037 0.4024 0.0000
vt 0.8259 0.4024 0.0000
vt 0.8259 0.4683 0.0000
vt 0.8037 0.4825 0.0000
vt 0.8259 0.4825 0.0000
vt 0.8259 0.4951 0.0000
vt 0.8037 0.4951 0.0000
vt 0.8343 0.7400 0.0000
vt 0.8423 0.7402 0.0000
vt 0.8419 0.7524 0.0000
vt 0.7726 0.7524 0.0000
vt 0.7722 0.7402 0.0000
vt 0.8692 0.7409 0.0000
vt 0.8693 0.7531 0.0000
vt 0.7452 0.7532 0.0000
vt 0.7453 0.7410 0.0000
vt 0.7977 0.7151 0.0000
vt 0.8006 0.7122 0.0000
vt 0.8116 0.7140 0.0000
vt 0.8115 0.7200 0.0000
vt 0.8249 0.7155 0.0000
vt 0.8226 0.7125 0.0000
vt 0.8227 0.6828 0.0000
vt 0.8259 0.3678 0.0000
vt 0.8535 0.6510 0.0000
vt 0.8037 0.3678 0.0000
vt 0.7988 0.5051 0.0000
vt 0.8116 0.5050 0.0000
vt 0.8116 0.5225 0.0000
vt 0.7989 0.5219 0.0000
vt 0.7850 0.5595 0.0000
vt 0.8037 0.3590 0.0000
vt 0.7851 0.5227 0.0000
vt 0.7992 0.5782 0.0000
vt 0.7723 0.5765 0.0000
vt 0.7501 0.5765 0.0000
vt 0.8009 0.6829 0.0000
vt 0.8118 0.6833 0.0000
vt 0.8259 0.3590 0.0000
vt 0.7696 0.6510 0.0000
vt 0.8116 0.5812 0.0000
vt 0.8116 0.6330 0.0000
vt 0.7991 0.6314 0.0000
vt 0.8387 0.5056 0.0000
vt 0.8382 0.5228 0.0000
vt 0.8243 0.5219 0.0000
vt 0.8244 0.5051 0.0000
vt 0.8437 0.6427 0.0000
vt 0.7844 0.6291 0.0000
vt 0.8240 0.5782 0.0000
vt 0.8241 0.6314 0.0000
vt 0.8388 0.6291 0.0000
vt 0.8382 0.5595 0.0000
vt 0.7795 0.6427 0.0000
vt 0.7845 0.5055 0.0000
vt 0.7770 0.5179 0.0000
vt 0.7766 0.5058 0.0000
vt 0.8467 0.5058 0.0000
vt 0.8463 0.5180 0.0000
vt 0.7496 0.5187 0.0000
vt 0.7497 0.5065 0.0000
vt 0.8736 0.5066 0.0000
vt 0.8736 0.5188 0.0000
vt 0.8037 0.3333 0.0000
vt 0.8259 0.3333 0.0000
vt 0.8382 0.3591 0.0000
vt 0.8604 0.3591 0.0000
vt 0.8604 0.4250 0.0000
vt 0.8382 0.4250 0.0000
vt 0.8382 0.3449 0.0000
vt 0.8604 0.3449 0.0000
vt 0.8382 0.3323 0.0000
vt 0.8604 0.3323 0.0000
vt 0.7723 0.6017 0.0000
vt 0.7501 0.6017 0.0000
vt 0.7480 0.8142 0.0000
vt 0.7480 0.8067 0.0000
vt 0.8604 0.4596 0.0000
vt 0.8382 0.4596 0.0000
vt 0.8604 0.4684 0.0000
vt 0.8382 0.4684 0.0000
vt 0.8604 0.4941 0.0000
vt 0.8382 0.4941 0.0000
vt 0.7702 0.8067 0.0000
vt 0.7702 0.8142 0.0000
vt 0.7480 0.7816 0.0000
vt 0.7702 0.7816 0.0000
vt 0.7702 0.8275 0.0000
vt 0.7591 0.8319 0.0000
vt 0.7480 0.8275 0.0000
vt 0.7501 0.5557 0.0000
vt 0.7612 0.5513 0.0000
vt 0.7723 0.5557 0.0000
vt 0.9843 0.1928 -0.2956
vt 0.9843 0.2047 -0.2956
vt 0.9843 0.2167 -0.2956
vt 0.9843 0.0115 0.2956
vt 0.9843 0.0250 -0.2956
vt 0.9843 0.0369 -0.2956
vt 0.9843 0.0489 -0.2956
vt 0.9843 0.0608 -0.2956
vt 0.9719 0.1928 -0.2956
vt 0.9719 0.2047 -0.2956
vt 0.9719 0.2167 -0.2956
vt 0.9719 0.0115 -0.2956
vt 0.9719 0.0250 -0.2956
vt 0.9719 0.0369 -0.2956
vt 0.9719 0.0489 -0.2956
vt 0.9719 0.0608 -0.2956
vt 0.9843 0.2269 0.2956
vt 0.9719 0.2269 -0.2956
vt 0.9295 0.4185 0.0000
vt 0.9298 0.4065 0.0000
vt 0.9361 0.3963 0.0000
vt 0.9450 0.3914 0.0000
vt 0.9585 0.3909 0.0000
vt 0.9687 0.3972 0.0000
vt 0.9744 0.4077 0.0000
vt 0.9741 0.4196 0.0000
vt 0.9843 0.1439 -0.2956
vt 0.9843 0.1511 -0.2956
vt 0.9843 0.1081 -0.2956
vt 0.9843 0.1152 -0.2956
vt 0.9843 0.1224 -0.2956
vt 0.9843 0.1296 -0.2956
vt 0.9843 0.1367 -0.2956
vt 0.9719 0.1439 -0.2956
vt 0.9719 0.1511 -0.2956
vt 0.9719 0.1081 -0.2956
vt 0.9719 0.1152 -0.2956
vt 0.9719 0.1224 -0.2956
vt 0.9719 0.1296 -0.2956
vt 0.9719 0.1367 -0.2956
vt 0.9608 0.4649 0.0000
vt 0.9577 0.4714 0.0000
vt 0.9518 0.4755 0.0000
vt 0.9447 0.4761 0.0000
vt 0.9382 0.4730 0.0000
vt 0.9341 0.4671 0.0000
vt 0.9335 0.4600 0.0000
# 347 texture coords

g refrigerator
usemtl refrigerator
s off
f 1/25/1 2/3/1 3/4/1 4/24/1
f 5/17/2 3/4/2 6/7/2 7/16/2
f 5/10/3 7/5/3 8/6/3 9/9/3
f 2/3/2 10/22/2 11/23/2 3/4/2
f 3/4/2 11/23/2 6/7/2
f 11/8/4 12/13/4 13/14/4 6/15/4
f 5/17/1 9/26/1 4/24/1 3/4/1
f 14/1/5 10/27/5 15/28/5 16/12/5
f 10/2/5 2/18/5 17/19/5 15/11/5
f 2/29/5 1/20/5 18/21/5 17/30/5
f 1/34/1 4/33/1 19/32/1 20/31/1
f 21/37/6 22/36/6 23/35/6 19/32/6
f 21/41/3 9/40/3 8/39/3 22/38/3
f 20/31/6 19/32/6 24/43/6 25/42/6
f 19/32/6 23/35/6 24/43/6
f 24/44/4 23/47/4 13/46/4 12/45/4
f 21/37/1 19/32/1 4/33/1 9/48/1
f 14/49/5 16/52/5 26/51/5 25/50/5
f 25/53/5 26/56/5 27/55/5 20/54/5
f 20/57/5 27/60/5 18/59/5 1/58/5
s 16
f 28/61/2 29/62/2 30/63/2 31/64/2
s 32
f 32/66/1 31/64/1 30/63/1 33/65/1
s 8
f 28/61/4 34/67/4 35/68/4 29/62/4
s 16
f 36/69/6 37/72/6 38/71/6 39/70/6
s 32
f 32/74/1 33/73/1 38/71/1 37/72/1
s 8
f 36/69/4 39/70/4 35/76/4 34/75/4
s off
f 25/83/5 40/84/5 41/90/5 42/92/5 43/93/5 44/94/5 45/77/5 46/78/5 47/79/5 48/80/5 49/81/5 10/82/5
f 50/111/7 22/113/7 7/115/7 51/95/7 52/96/7 53/97/7 54/99/7 55/105/7 56/106/7 57/107/7 58/108/7 59/109/7
s 1
f 44/86/8 60/87/8 61/88/9 45/85/9
f 25/91/6 24/98/6 62/100/10 40/89/10
f 56/102/8 55/103/9 63/104/9 64/101/8
f 51/112/11 7/114/2 6/116/2 65/110/11
f 49/118/11 66/123/11 11/124/2 10/117/2
f 50/126/10 67/127/10 23/128/6 22/125/6
f 68/130/12 60/87/8 44/86/8 43/129/12
f 69/133/13 63/104/9 55/103/9 54/131/13
f 57/137/12 56/102/8 64/101/8 70/135/12
f 46/141/13 45/85/9 61/88/9 71/139/13
f 72/145/14 68/130/12 43/129/12 42/143/14
f 73/149/15 72/145/14 42/143/14 41/147/15
f 62/100/10 73/149/15 41/147/15 40/89/10
f 74/153/16 69/133/13 54/131/13 53/151/16
f 75/156/17 74/153/16 53/151/16 52/155/17
f 65/110/11 75/156/17 52/155/17 51/112/11
f 58/158/14 57/137/12 70/135/12 76/157/14
f 59/160/15 58/158/14 76/157/14 77/159/15
f 50/126/10 59/160/15 77/159/15 67/127/10
f 47/162/16 46/141/13 71/139/13 78/161/16
f 48/164/17 47/162/16 78/161/16 79/163/17
f 49/118/11 48/164/17 79/163/17 66/123/11
s off
f 65/142/18 6/144/18 23/146/18 67/119/18 77/120/18 76/121/18 70/122/18 64/132/18 63/134/18 69/136/18 74/138/18 75/140/18
f 73/170/3 62/171/3 24/172/3 11/148/3 66/150/3 79/152/3 78/154/3 71/165/3 61/166/3 60/167/3 68/168/3 72/169/3
s 4
f 80/174/19 81/175/19 82/176/20 83/173/20
s off
f 84/178/2 85/179/2 86/180/2 87/177/2
s 1
f 88/182/21 89/183/22 90/184/23 91/181/24
s off
f 92/185/6 93/186/6 88/182/6 94/187/6
s 1
f 82/176/25 81/175/26 95/189/27 96/188/28
s off
f 83/173/6 82/176/6 96/188/6 97/190/6
s 1
f 98/191/29 99/192/30 100/193/31 93/186/32
s off
f 101/195/2 102/196/2 103/197/2 104/194/2
f 85/179/2 84/178/2 105/198/2
f 106/199/6 98/191/6 93/186/6 92/185/6
s 1
f 92/208/33 107/209/33 108/210/34 106/205/34
f 106/205/34 108/210/34 105/212/35 109/211/35
f 105/212/35 84/213/36 97/214/36 109/211/35
s 4
f 87/177/37 86/180/37 81/175/19 80/174/19
s 1
f 110/200/38 102/196/39 89/183/22 100/193/31
f 86/180/40 85/179/41 95/189/27 81/175/26
f 85/179/41 111/201/42 99/192/30 95/189/27
f 96/188/28 95/189/27 99/192/30 98/191/29
f 111/201/42 110/200/38 100/193/31 99/192/30
s off
f 110/200/43 111/201/43 108/202/43 107/203/43
f 85/179/43 105/198/43 108/202/43 111/201/43
f 106/199/6 109/204/6 96/188/6 98/191/6
f 109/204/6 97/190/6 96/188/6
s 1
f 93/186/32 100/193/31 89/183/22 88/182/21
s off
f 91/181/6 112/215/6 94/187/6 88/182/6
f 102/196/2 110/200/2 107/203/2 103/197/2
s 1
f 107/209/33 92/208/33 94/233/44 103/231/44
f 102/196/39 101/195/45 90/184/23 89/183/22
s off
f 94/187/6 112/215/6 113/216/6 114/217/6
f 104/207/5 115/242/5 113/243/5 112/206/5
f 103/197/2 116/218/2 115/219/2 104/194/2
s 1
f 94/233/44 114/239/46 116/246/46 103/231/44
s off
f 117/220/6 118/221/6 114/217/6 113/216/6
f 119/281/5 117/282/5 113/243/5 115/242/5
f 116/218/2 120/222/2 119/223/2 115/219/2
s 1
f 118/271/3 120/272/3 116/246/46 114/239/46
s 4
f 121/227/47 122/224/48 123/225/48 124/226/47
s off
f 125/232/2 126/228/2 127/229/2 128/230/2
s 1
f 129/237/49 130/234/50 131/235/51 132/236/52
s off
f 133/238/6 134/240/6 129/237/6 135/241/6
s 1
f 123/225/53 136/244/54 137/245/55 124/226/56
s off
f 122/224/6 138/247/6 136/244/6 123/225/6
s 1
f 139/250/57 135/241/58 140/248/59 141/249/60
s off
f 142/254/2 143/251/2 144/252/2 145/253/2
f 128/230/2 146/255/2 125/232/2
f 147/256/6 133/238/6 135/241/6 139/250/6
s 1
f 133/276/61 147/273/62 148/274/63 149/275/61
f 147/273/62 150/277/64 146/278/64 148/274/63
f 146/278/64 150/277/64 138/279/65 125/280/65
s 4
f 126/228/66 121/227/47 124/226/47 127/229/66
s 1
f 151/257/67 140/248/59 132/236/52 145/253/68
f 127/229/69 124/226/56 137/245/55 128/230/70
f 128/230/70 137/245/55 141/249/60 152/258/71
f 136/244/54 139/250/57 141/249/60 137/245/55
f 152/258/71 141/249/60 140/248/59 151/257/67
s off
f 151/257/2 149/260/2 148/259/2 152/258/2
f 128/230/2 152/258/2 148/259/2 146/255/2
f 147/256/6 139/250/6 136/244/6 150/261/6
f 150/261/6 136/244/6 138/247/6
s 1
f 135/241/58 129/237/49 132/236/52 140/248/59
s off
f 130/234/6 129/237/6 134/240/6 153/262/6
f 145/253/2 144/252/2 149/260/2 151/257/2
s 1
f 149/275/61 144/285/72 134/286/73 133/276/61
f 145/253/68 132/236/52 131/235/51 142/254/74
s off
f 134/240/6 154/263/6 155/264/6 153/262/6
f 143/292/3 153/283/3 155/284/3 156/291/3
f 144/252/2 143/251/2 156/265/2 157/266/2
s 1
f 134/286/73 144/285/72 157/287/75 154/288/75
s off
f 158/268/6 155/264/6 154/263/6 159/267/6
f 160/294/3 156/291/3 155/284/3 158/293/3
f 157/266/2 156/265/2 160/269/2 161/270/2
s 1
f 159/290/5 154/288/75 157/287/75 161/289/5
s off
f 131/296/3 130/297/3 153/283/3 143/292/3 142/295/3
f 90/299/5 101/300/5 104/207/5 112/206/5 91/298/5
s 8
f 162/301/76 163/302/77 164/310/77 165/309/76
f 163/302/77 166/303/78 167/311/78 164/310/77
f 166/303/78 168/317/79 169/318/79 167/311/78
f 168/304/79 170/305/80 171/313/80 169/312/79
f 170/305/80 172/306/81 173/314/81 171/313/80
f 172/306/81 174/307/82 175/315/82 173/314/81
f 174/307/82 176/308/83 177/316/83 175/315/82
s 1
f 173/324/3 175/325/3 177/326/3 165/319/3 164/320/3 167/321/3 169/322/3 171/323/3
s 8
f 178/327/6 179/328/84 180/335/84 181/334/6
f 182/329/16 183/330/85 184/337/85 185/336/16
f 183/330/85 186/331/86 187/338/86 184/337/85
f 186/331/86 188/332/87 189/339/87 187/338/86
f 188/332/87 190/333/88 191/340/88 189/339/87
f 190/333/88 178/327/6 181/334/6 191/340/88
s 1
f 191/345/3 181/346/3 180/347/3 185/341/3 184/342/3 187/343/3 189/344/3
s off
f 165/319/3 177/326/3 185/341/3 180/347/3
f 176/308/89 182/329/89 185/336/89 177/316/89
f 165/309/90 180/335/90 179/328/90 162/301/90
# 138 polygons - 6 triangles

