# Blender v2.80 (sub 75) OBJ File: 'pillow2.blend'
# www.blender.org
mtllib HospitalPillow.mtl
o pillow_Cube
v 0.293246 0.156083 0.104827
v 0.219935 0.156083 0.122855
v 0.276049 0.078041 0.124620
v 0.218843 0.082500 0.159141
v -0.293246 0.156083 0.104827
v 0.000000 0.146978 0.121880
v -0.219935 0.156083 0.122855
v -0.276049 0.078041 0.124620
v 0.000000 0.082500 0.165000
v -0.218843 0.082500 0.159141
v 0.293246 -0.156083 0.104827
v 0.219935 -0.156083 0.122855
v 0.268968 0.000000 0.124620
v 0.218843 0.000000 0.159141
v 0.276049 -0.078041 0.124620
v 0.218843 -0.082500 0.159141
v -0.293246 -0.156083 0.104827
v 0.000000 -0.146978 0.121880
v -0.219935 -0.156083 0.122855
v -0.268968 0.000000 0.124620
v 0.000000 0.000000 0.165000
v -0.218843 0.000000 0.159141
v -0.276049 -0.078041 0.124620
v 0.000000 -0.082500 0.165000
v -0.218843 -0.082500 0.159141
v 0.293246 0.156083 0.060173
v 0.219935 0.156083 0.042145
v 0.276049 0.078041 0.040380
v 0.218843 0.082500 0.005859
v 0.310000 0.165000 0.082500
v 0.232500 0.165000 0.082500
v 0.288756 0.082500 0.082500
v -0.293246 0.156083 0.060173
v 0.000000 0.146978 0.043120
v -0.219935 0.156083 0.042145
v -0.276049 0.078041 0.040380
v 0.000000 0.082500 0.000000
v -0.218843 0.082500 0.005859
v -0.310000 0.165000 0.082500
v 0.000000 0.155896 0.082500
v -0.232500 0.165000 0.082500
v -0.288756 0.082500 0.082500
v 0.293246 -0.156083 0.060173
v 0.219935 -0.156083 0.042145
v 0.268968 0.000000 0.040380
v 0.218843 0.000000 0.005859
v 0.276049 -0.078041 0.040380
v 0.218843 -0.082500 0.005859
v 0.310000 -0.165000 0.082500
v 0.232500 -0.165000 0.082500
v 0.281675 0.000000 0.082500
v 0.288756 -0.082500 0.082500
v -0.293246 -0.156083 0.060173
v 0.000000 -0.146978 0.043120
v -0.219935 -0.156083 0.042145
v -0.268968 0.000000 0.040380
v 0.000000 0.000000 0.000000
v -0.218843 0.000000 0.005859
v -0.276049 -0.078041 0.040380
v 0.000000 -0.082500 0.000000
v -0.218843 -0.082500 0.005859
v -0.310000 -0.165000 0.082500
v 0.000000 -0.155896 0.082500
v -0.232500 -0.165000 0.082500
v -0.281675 0.000000 0.082500
v -0.288756 -0.082500 0.082500
vt 0.628778 0.010591
vt 0.611274 0.072258
vt 0.579135 0.030574
vt 0.782664 0.000100
vt 0.657705 0.093322
vt 0.611473 0.157544
vt 0.659774 0.238975
vt 0.596134 0.230681
vt 0.757998 0.189367
vt 0.672706 0.176471
vt 0.500100 0.218166
vt 0.526394 0.119000
vt 0.770657 0.092236
vt 0.928722 0.049682
vt 0.929835 0.113775
vt 0.879556 0.122235
vt 0.907784 0.196161
vt 0.840226 0.262493
vt 0.843746 0.198762
vt 0.999900 0.283303
vt 0.999900 0.180710
vt 0.971585 0.081721
vt 0.571278 0.451786
vt 0.570165 0.387693
vt 0.620444 0.379232
vt 0.717336 0.501368
vt 0.729344 0.409232
vt 0.592216 0.305307
vt 0.656254 0.302706
vt 0.742002 0.312101
vt 0.500100 0.320758
vt 0.528415 0.419747
vt 0.871222 0.490877
vt 0.888726 0.429210
vt 0.920865 0.470894
vt 0.842295 0.408146
vt 0.888527 0.343924
vt 0.903866 0.270787
vt 0.827295 0.324998
vt 0.973606 0.382468
vt 0.128778 0.490877
vt 0.111274 0.429210
vt 0.157705 0.408146
vt 0.282664 0.501368
vt 0.270656 0.409232
vt 0.111473 0.343924
vt 0.159774 0.262493
vt 0.172706 0.324998
vt 0.257998 0.312101
vt 0.000100 0.283303
vt 0.026394 0.382468
vt 0.079135 0.470894
vt 0.428722 0.451786
vt 0.429835 0.387693
vt 0.471585 0.419747
vt 0.379556 0.379232
vt 0.407784 0.305307
vt 0.340226 0.238975
vt 0.403866 0.230681
vt 0.343746 0.302706
vt 0.499900 0.218166
vt 0.499900 0.320758
vt 0.071278 0.049682
vt 0.070165 0.113775
vt 0.028415 0.081721
vt 0.217336 0.000100
vt 0.120444 0.122235
vt 0.092216 0.196161
vt 0.096134 0.270787
vt 0.242002 0.189367
vt 0.156254 0.198762
vt 0.000100 0.180710
vt 0.229344 0.092236
vt 0.371222 0.010592
vt 0.388726 0.072258
vt 0.342295 0.093322
vt 0.388527 0.157544
vt 0.327294 0.176471
vt 0.473606 0.119000
vt 0.420866 0.030575
vt 0.750000 0.250734
vt 0.250000 0.250734
vn 0.0000 0.9287 0.3709
vn -0.0383 0.9782 0.2042
vn 0.5665 -0.0514 0.8225
vn 0.0268 0.0000 0.9996
vn 0.9565 -0.0821 0.2799
vn 0.8204 -0.2113 0.5313
vn -0.0223 0.4424 0.8965
vn 0.2344 0.1901 0.9534
vn -0.0571 0.9710 0.2323
vn 0.0413 0.9745 0.2207
vn -0.5167 0.0000 0.8562
vn -0.0268 0.0000 0.9996
vn -0.9565 -0.0821 0.2799
vn -0.8204 -0.2113 0.5313
vn 0.0223 0.4424 0.8965
vn -0.2344 0.1901 0.9534
vn 0.0571 -0.9710 0.2323
vn -0.0413 -0.9745 0.2207
vn 0.5167 0.0000 0.8562
vn 0.9565 0.0821 0.2799
vn 0.8204 0.2113 0.5313
vn -0.0223 -0.4424 0.8965
vn 0.2344 -0.1901 0.9534
vn 0.0000 -0.9287 0.3709
vn 0.0383 -0.9782 0.2042
vn -0.5665 0.0514 0.8225
vn -0.9565 0.0821 0.2799
vn -0.8204 0.2113 0.5313
vn 0.0223 -0.4424 0.8965
vn -0.2344 -0.1901 0.9534
vn 0.0571 0.9710 -0.2323
vn -0.0413 0.9745 -0.2207
vn 0.5167 0.0000 -0.8562
vn 0.0268 0.0000 -0.9996
vn 0.9565 -0.0821 -0.2799
vn 0.8204 -0.2113 -0.5313
vn -0.0223 0.4424 -0.8965
vn 0.2344 0.1901 -0.9534
vn 0.0000 0.9287 -0.3709
vn 0.0383 0.9782 -0.2042
vn -0.5665 -0.0514 -0.8225
vn -0.0268 0.0000 -0.9996
vn -0.9565 -0.0821 -0.2799
vn -0.8204 -0.2113 -0.5313
vn 0.0223 0.4424 -0.8965
vn -0.2344 0.1901 -0.9534
vn 0.0000 -0.9287 -0.3709
vn -0.0383 -0.9782 -0.2042
vn 0.5665 0.0514 -0.8225
vn 0.9565 0.0821 -0.2799
vn 0.8204 0.2113 -0.5313
vn -0.0223 -0.4424 -0.8965
vn 0.2344 -0.1901 -0.9534
vn -0.0571 -0.9710 -0.2323
vn 0.0413 -0.9745 -0.2207
vn -0.5167 0.0000 -0.8562
vn -0.9565 0.0821 -0.2799
vn -0.8204 0.2113 -0.5313
vn 0.0223 -0.4424 -0.8965
vn -0.2344 -0.1901 -0.9534
vn 0.0571 0.9710 0.2323
vn -0.0413 0.9745 0.2207
vn 0.9538 -0.0865 0.2878
vn 0.9519 -0.1407 0.2723
vn 0.0222 0.5558 0.8310
vn 0.4999 0.3771 0.7797
vn 0.0383 0.9782 0.2042
vn -0.5665 -0.0514 0.8225
vn -0.9538 -0.0865 0.2878
vn -0.9519 -0.1407 0.2723
vn -0.0222 0.5558 0.8310
vn -0.4999 0.3771 0.7797
vn -0.0383 -0.9782 0.2042
vn 0.5665 0.0514 0.8225
vn 0.9538 0.0865 0.2878
vn 0.9519 0.1407 0.2723
vn 0.0222 -0.5558 0.8310
vn 0.4999 -0.3771 0.7797
vn -0.0571 -0.9710 0.2323
vn 0.0413 -0.9745 0.2207
vn -0.9538 0.0865 0.2878
vn -0.9519 0.1407 0.2723
vn -0.0222 -0.5558 0.8310
vn -0.4999 -0.3771 0.7797
vn -0.0383 0.9782 -0.2042
vn 0.5665 -0.0514 -0.8225
vn 0.9538 -0.0865 -0.2878
vn 0.9519 -0.1407 -0.2723
vn 0.0222 0.5558 -0.8310
vn 0.4999 0.3771 -0.7797
vn -0.0571 0.9710 -0.2323
vn 0.0413 0.9745 -0.2207
vn -0.9538 -0.0865 -0.2878
vn -0.9519 -0.1407 -0.2723
vn -0.0222 0.5558 -0.8310
vn -0.4999 0.3771 -0.7797
vn 0.0571 -0.9710 -0.2323
vn -0.0413 -0.9745 -0.2207
vn 0.9538 0.0865 -0.2878
vn 0.9519 0.1407 -0.2723
vn 0.0222 -0.5558 -0.8310
vn 0.4999 -0.3771 -0.7797
vn 0.0383 -0.9782 -0.2042
vn -0.5665 0.0514 -0.8225
vn -0.9538 0.0865 -0.2878
vn -0.9519 0.1407 -0.2723
vn -0.0222 -0.5558 -0.8310
vn -0.4999 -0.3771 -0.7797
usemtl pillow
s off
f 31/1/1 1/2/1 30/3/1
f 40/4/2 2/5/2 31/1/2
f 3/6/3 14/7/3 13/8/3
f 9/9/4 14/7/4 4/10/4
f 3/6/5 51/11/5 32/12/5
f 1/2/6 32/12/6 30/3/6
f 6/13/7 4/10/7 2/5/7
f 2/5/8 3/6/8 1/2/8
f 41/14/9 5/15/9 7/16/9
f 40/4/10 7/16/10 6/13/10
f 8/17/11 22/18/11 10/19/11
f 22/18/12 9/9/12 10/19/12
f 65/20/13 8/17/13 42/21/13
f 42/21/14 5/15/14 39/22/14
f 10/19/15 6/13/15 7/16/15
f 8/17/16 7/16/16 5/15/16
f 50/23/17 11/24/17 12/25/17
f 63/26/18 12/25/18 18/27/18
f 15/28/19 14/7/19 16/29/19
f 14/7/4 24/30/4 16/29/4
f 51/11/20 15/28/20 52/31/20
f 52/31/21 11/24/21 49/32/21
f 16/29/22 18/27/22 12/25/22
f 15/28/23 12/25/23 11/24/23
f 64/33/24 17/34/24 62/35/24
f 63/26/25 19/36/25 64/33/25
f 23/37/26 22/18/26 20/38/26
f 24/30/12 22/18/12 25/39/12
f 23/37/27 65/20/27 66/40/27
f 17/34/28 66/40/28 62/35/28
f 18/27/29 25/39/29 19/36/29
f 19/36/30 23/37/30 17/34/30
f 31/41/31 26/42/31 27/43/31
f 40/44/32 27/43/32 34/45/32
f 28/46/33 46/47/33 29/48/33
f 46/47/34 37/49/34 29/48/34
f 51/50/35 28/46/35 32/51/35
f 32/51/36 26/42/36 30/52/36
f 29/48/37 34/45/37 27/43/37
f 28/46/38 27/43/38 26/42/38
f 41/53/39 33/54/39 39/55/39
f 40/44/40 35/56/40 41/53/40
f 36/57/41 58/58/41 56/59/41
f 37/49/42 58/58/42 38/60/42
f 36/57/43 65/61/43 42/62/43
f 33/54/44 42/62/44 39/55/44
f 34/45/45 38/60/45 35/56/45
f 35/56/46 36/57/46 33/54/46
f 50/63/47 43/64/47 49/65/47
f 63/66/48 44/67/48 50/63/48
f 47/68/49 46/47/49 45/69/49
f 60/70/34 46/47/34 48/71/34
f 47/68/50 51/50/50 52/72/50
f 43/64/51 52/72/51 49/65/51
f 54/73/52 48/71/52 44/67/52
f 44/67/53 47/68/53 43/64/53
f 64/74/54 53/75/54 55/76/54
f 63/66/55 55/76/55 54/73/55
f 59/77/56 58/58/56 61/78/56
f 58/58/42 60/70/42 61/78/42
f 65/61/57 59/77/57 66/79/57
f 66/79/58 53/75/58 62/80/58
f 61/78/59 54/73/59 55/76/59
f 59/77/60 55/76/60 53/75/60
f 31/1/61 2/5/61 1/2/61
f 40/4/62 6/13/62 2/5/62
f 3/6/19 4/10/19 14/7/19
f 9/9/4 21/81/4 14/7/4
f 3/6/63 13/8/63 51/11/63
f 1/2/64 3/6/64 32/12/64
f 6/13/65 9/9/65 4/10/65
f 2/5/66 4/10/66 3/6/66
f 41/14/1 39/22/1 5/15/1
f 40/4/67 41/14/67 7/16/67
f 8/17/68 20/38/68 22/18/68
f 22/18/12 21/81/12 9/9/12
f 65/20/69 20/38/69 8/17/69
f 42/21/70 8/17/70 5/15/70
f 10/19/71 9/9/71 6/13/71
f 8/17/72 10/19/72 7/16/72
f 50/23/24 49/32/24 11/24/24
f 63/26/73 50/23/73 12/25/73
f 15/28/74 13/8/74 14/7/74
f 14/7/4 21/81/4 24/30/4
f 51/11/75 13/8/75 15/28/75
f 52/31/76 15/28/76 11/24/76
f 16/29/77 24/30/77 18/27/77
f 15/28/78 16/29/78 12/25/78
f 64/33/79 19/36/79 17/34/79
f 63/26/80 18/27/80 19/36/80
f 23/37/11 25/39/11 22/18/11
f 24/30/12 21/81/12 22/18/12
f 23/37/81 20/38/81 65/20/81
f 17/34/82 23/37/82 66/40/82
f 18/27/83 24/30/83 25/39/83
f 19/36/84 25/39/84 23/37/84
f 31/41/39 30/52/39 26/42/39
f 40/44/85 31/41/85 27/43/85
f 28/46/86 45/69/86 46/47/86
f 46/47/34 57/82/34 37/49/34
f 51/50/87 45/69/87 28/46/87
f 32/51/88 28/46/88 26/42/88
f 29/48/89 37/49/89 34/45/89
f 28/46/90 29/48/90 27/43/90
f 41/53/91 35/56/91 33/54/91
f 40/44/92 34/45/92 35/56/92
f 36/57/56 38/60/56 58/58/56
f 37/49/42 57/82/42 58/58/42
f 36/57/93 56/59/93 65/61/93
f 33/54/94 36/57/94 42/62/94
f 34/45/95 37/49/95 38/60/95
f 35/56/96 38/60/96 36/57/96
f 50/63/97 44/67/97 43/64/97
f 63/66/98 54/73/98 44/67/98
f 47/68/33 48/71/33 46/47/33
f 60/70/34 57/82/34 46/47/34
f 47/68/99 45/69/99 51/50/99
f 43/64/100 47/68/100 52/72/100
f 54/73/101 60/70/101 48/71/101
f 44/67/102 48/71/102 47/68/102
f 64/74/47 62/80/47 53/75/47
f 63/66/103 64/74/103 55/76/103
f 59/77/104 56/59/104 58/58/104
f 58/58/42 57/82/42 60/70/42
f 65/61/105 56/59/105 59/77/105
f 66/79/106 59/77/106 53/75/106
f 61/78/107 60/70/107 54/73/107
f 59/77/108 61/78/108 55/76/108
