# 3ds Max Wavefront OBJ Exporter v0.97b - (c)2007 guruware
# File Created: 31.03.2018 13:11:39

mtllib Handrail_End.mtl

#
# object Handrail_End
#

v  -0.0000 -7.1941 7.4572
v  74.7394 -7.1941 7.4572
v  74.7394 -5.8369 7.9000
v  -0.0000 -5.8369 7.9000
v  -0.0000 -7.6369 6.1287
v  74.7394 -7.6369 6.1287
v  -0.0000 -4.0369 6.1287
v  74.7394 -4.0369 6.1287
v  74.7394 -4.0369 2.7271
v  -0.0000 -4.0369 2.7271
v  74.7394 -3.1424 2.0312
v  74.7394 0.0000 3.9511
v  -0.0000 0.0000 3.9511
v  -0.0000 -3.1424 2.0312
v  -0.0000 -4.4798 7.4572
v  74.7394 -4.4798 7.4572
v  -0.0000 -7.6369 0.0000
v  74.7394 -7.6369 0.0000
v  -0.0000 -7.1941 -7.4572
v  -0.0000 -5.8369 -7.9000
v  74.7394 -5.8369 -7.9000
v  74.7394 -7.1941 -7.4572
v  -0.0000 -7.6369 -6.1287
v  74.7394 -7.6369 -6.1287
v  -0.0000 -4.0369 -6.1287
v  -0.0000 -4.0369 -2.7271
v  74.7394 -4.0369 -2.7271
v  74.7394 -4.0369 -6.1287
v  74.7394 -3.1424 -2.0312
v  -0.0000 -3.1424 -2.0312
v  -0.0000 0.0000 -3.9511
v  74.7394 0.0000 -3.9511
v  -0.0000 -4.4798 -7.4572
v  74.7394 -4.4798 -7.4572
v  79.8346 -5.0836 7.4572
v  78.8750 -4.1239 7.9000
v  76.9775 -5.3917 7.9000
v  77.4969 -6.6456 7.4572
v  80.1477 -5.3967 6.1287
v  77.6664 -7.0547 6.1287
v  77.6022 -2.8511 6.1287
v  77.6022 -2.8511 2.7271
v  76.2887 -3.7287 2.7271
v  76.2887 -3.7287 6.1287
v  75.9464 -2.9023 2.0312
v  76.9697 -2.2186 2.0312
v  77.9153 -3.1643 7.4572
v  80.1428 -2.2265 7.9000
v  78.8889 -1.7072 7.4572
v  78.4798 -1.5377 6.1287
v  80.1477 -5.3967 0.0000
v  81.8057 -2.9154 0.0000
v  81.8057 -2.9154 6.1287
v  78.8750 -4.1239 -7.9000
v  79.8346 -5.0836 -7.4572
v  77.4969 -6.6456 -7.4572
v  76.9775 -5.3917 -7.9000
v  80.1477 -5.3967 -6.1287
v  77.6664 -7.0547 -6.1287
v  77.6022 -2.8511 -2.7271
v  77.6022 -2.8511 -6.1287
v  76.2887 -3.7287 -6.1287
v  76.2887 -3.7287 -2.7271
v  76.9697 -2.2186 -2.0312
v  75.9464 -2.9023 -2.0312
v  77.9153 -3.1643 -7.4572
v  78.8889 -1.7072 -7.4572
v  80.1428 -2.2265 -7.9000
v  78.4798 -1.5377 -6.1287
v  81.8057 -2.9154 -6.1287
v  81.9451 0.0116 7.4572
v  80.5880 0.0116 7.9000
v  81.3966 -2.7459 7.4572
v  82.3880 0.0116 6.1287
v  78.7880 0.0116 6.1287
v  78.7879 0.0116 2.7271
v  78.4798 -1.5377 2.7271
v  77.6534 -1.1954 2.0312
v  77.8935 0.0116 2.0312
v  76.4582 -4.1379 7.4572
v  79.2308 0.0116 7.4572
v  77.6664 -7.0547 0.0000
v  82.3880 0.0116 0.0000
v  80.5880 0.0116 -7.9000
v  81.9451 0.0116 -7.4572
v  81.3966 -2.7459 -7.4572
v  82.3880 0.0116 -6.1287
v  78.7880 0.0116 -2.7271
v  78.7879 0.0116 -6.1287
v  78.4798 -1.5377 -2.7271
v  77.8935 0.0116 -2.0312
v  77.6534 -1.1954 -2.0312
v  76.4582 -4.1379 -7.4572
v  79.2308 0.0116 -7.4572
# 94 vertices

vn 0.0000 -0.7049 0.7093
vn 0.0707 -0.7159 0.6946
vn 0.0038 -0.0194 0.9998
vn 0.0000 0.0000 1.0000
vn 0.0000 -0.9871 0.1602
vn 0.0959 -0.9828 0.1580
vn 0.0000 0.9871 0.1602
vn -0.0977 0.9821 0.1610
vn -0.0871 0.8996 0.4279
vn -0.0000 0.8983 0.4393
vn -0.0125 0.0912 0.9958
vn 0.1607 -0.4509 0.8780
vn 0.0000 -0.5214 0.8533
vn -0.0000 0.0563 0.9984
vn 0.0000 0.7049 0.7093
vn -0.0680 0.6879 0.7226
vn 0.0000 -1.0000 0.0000
vn 0.0980 -0.9952 0.0000
vn 0.0000 -0.7049 -0.7093
vn 0.0000 0.0000 -1.0000
vn 0.0038 -0.0194 -0.9998
vn 0.0707 -0.7159 -0.6946
vn 0.0000 -0.9871 -0.1602
vn 0.0959 -0.9828 -0.1580
vn 0.0000 0.9871 -0.1602
vn 0.0000 0.8983 -0.4393
vn -0.0871 0.8996 -0.4279
vn -0.0977 0.9821 -0.1610
vn -0.0125 0.0912 -0.9958
vn 0.0000 0.0563 -0.9984
vn -0.0000 -0.5214 -0.8533
vn 0.1607 -0.4509 -0.8780
vn 0.0000 0.7049 -0.7093
vn -0.0680 0.6879 -0.7226
vn 0.5169 -0.5169 0.6824
vn 0.0274 -0.0274 0.9992
vn 0.0148 -0.0358 0.9993
vn 0.2797 -0.6754 0.6824
vn 0.6983 -0.6983 0.1571
vn 0.3779 -0.9124 0.1571
vn -0.6976 0.6976 0.1634
vn -0.6420 0.6420 0.4191
vn -0.3475 0.8388 0.4191
vn -0.3775 0.9115 0.1634
vn -0.0483 0.1168 0.9920
vn -0.0894 0.0895 0.9920
vn -0.4768 0.4768 0.7384
vn 0.0358 -0.0148 0.9992
vn -0.6230 0.2581 0.7384
vn -0.9115 0.3775 0.1634
vn 0.7071 -0.7071 -0.0000
vn 0.9239 -0.3827 -0.0000
vn 0.9124 -0.3779 0.1571
vn 0.0274 -0.0274 -0.9992
vn 0.5169 -0.5169 -0.6824
vn 0.2797 -0.6754 -0.6824
vn 0.0148 -0.0358 -0.9993
vn 0.6983 -0.6983 -0.1571
vn 0.3779 -0.9124 -0.1571
vn -0.6420 0.6420 -0.4191
vn -0.6976 0.6976 -0.1634
vn -0.3775 0.9115 -0.1634
vn -0.3475 0.8388 -0.4191
vn -0.0894 0.0895 -0.9920
vn -0.0483 0.1168 -0.9920
vn -0.4768 0.4768 -0.7384
vn -0.6230 0.2580 -0.7384
vn 0.0358 -0.0148 -0.9992
vn -0.9115 0.3775 -0.1634
vn 0.9124 -0.3779 -0.1571
vn 0.7234 -0.1439 0.6753
vn 0.0387 -0.0077 0.9992
vn 0.6754 -0.2797 0.6824
vn 0.9691 -0.1928 0.1542
vn -0.9681 0.1926 0.1604
vn -0.8935 0.1777 0.4124
vn -0.8388 0.3475 0.4191
vn -0.1171 0.0486 0.9919
vn -0.1276 0.0254 0.9915
vn -0.2580 0.6230 0.7384
vn -0.6683 0.1329 0.7319
vn 0.3827 -0.9239 -0.0000
vn 0.9808 -0.1951 -0.0000
vn 0.0387 -0.0077 -0.9992
vn 0.7234 -0.1439 -0.6753
vn 0.6754 -0.2797 -0.6824
vn 0.9691 -0.1928 -0.1542
vn -0.8935 0.1777 -0.4124
vn -0.9681 0.1926 -0.1604
vn -0.8388 0.3475 -0.4191
vn -0.1276 0.0254 -0.9915
vn -0.1171 0.0486 -0.9919
vn -0.2580 0.6230 -0.7384
vn -0.6683 0.1329 -0.7319
# 94 vertex normals

vt 0.0000 0.4477 0.0000
vt 0.0000 0.3764 0.0000
vt 0.0000 0.5191 0.0000
vt 0.0000 0.3064 0.0000
vt 0.0000 0.5890 0.0000
vt 0.0000 0.7590 0.0000
vt 0.0000 0.8156 0.0000
vt 0.0000 0.9997 0.0000
vt 0.0000 0.0012 0.0000
vt 1.0000 0.4477 0.0000
vt 1.0000 0.3064 0.0000
vt 1.0000 0.5890 0.0000
vt 1.0000 0.3764 0.0000
vt 1.0000 0.5191 0.0000
vt 1.0000 0.8156 0.0000
vt 1.0000 0.9997 0.0000
vt 1.0000 0.7590 0.0000
vt 1.0000 0.0012 0.0000
vt 1.0000 0.4477 0.0000
vt 1.0000 0.3764 0.0000
vt 2.0000 0.3764 0.0000
vt 2.0000 0.4477 0.0000
vt 1.0000 0.3064 0.0000
vt 2.0000 0.3064 0.0000
vt 1.0000 0.7590 0.0000
vt 1.0000 0.5890 0.0000
vt 2.0000 0.5890 0.0000
vt 2.0000 0.7590 0.0000
vt 1.0000 0.8156 0.0000
vt 2.0000 0.8156 0.0000
vt 2.0000 0.9997 0.0000
vt 1.0000 0.9997 0.0000
vt 2.0000 0.5191 0.0000
vt 1.0000 0.5191 0.0000
vt 1.0000 0.0012 0.0000
vt 2.0000 0.0012 0.0000
vt 0.0000 0.4477 0.0000
vt 0.0000 0.3764 0.0000
vt 0.0000 0.5191 0.0000
vt 0.0000 0.3064 0.0000
vt 0.0000 0.5890 0.0000
vt 0.0000 0.7590 0.0000
vt 0.0000 0.8156 0.0000
vt 0.0000 0.0012 0.0000
vt 1.0000 0.4477 0.0000
vt 1.0000 0.3064 0.0000
vt 1.0000 0.5890 0.0000
vt 1.0000 0.3764 0.0000
vt 1.0000 0.5191 0.0000
vt 1.0000 0.8156 0.0000
vt 0.5000 0.9997 0.0000
vt 1.0000 0.7590 0.0000
vt 1.0000 0.0012 0.0000
vt 1.0000 0.4477 0.0000
vt 1.0000 0.3764 0.0000
vt 2.0000 0.3764 0.0000
vt 2.0000 0.4477 0.0000
vt 1.0000 0.3064 0.0000
vt 2.0000 0.3064 0.0000
vt 1.0000 0.7590 0.0000
vt 1.0000 0.5890 0.0000
vt 2.0000 0.5890 0.0000
vt 2.0000 0.7590 0.0000
vt 1.0000 0.8156 0.0000
vt 2.0000 0.8156 0.0000
vt 1.5000 0.9997 0.0000
vt 2.0000 0.5191 0.0000
vt 1.0000 0.5191 0.0000
vt 1.0000 0.0012 0.0000
vt 2.0000 0.0012 0.0000
vt 0.2500 0.4477 0.0000
vt 0.5000 0.4477 0.0000
vt 0.7500 0.4477 0.0000
vt 0.2500 0.3064 0.0000
vt 0.5000 0.3064 0.0000
vt 0.7500 0.3064 0.0000
vt 0.2500 0.3764 0.0000
vt 0.5000 0.3764 0.0000
vt 0.7500 0.3764 0.0000
vt 0.2500 0.8156 0.0000
vt 0.5000 0.8156 0.0000
vt 0.7500 0.8156 0.0000
vt 0.2500 0.7590 0.0000
vt 0.5000 0.7590 0.0000
vt 0.7500 0.7590 0.0000
vt 0.7500 0.5890 0.0000
vt 0.5000 0.5890 0.0000
vt 0.2500 0.5890 0.0000
vt 0.7500 0.5191 0.0000
vt 0.5000 0.5191 0.0000
vt 0.2500 0.5191 0.0000
vt 1.7500 0.3764 0.0000
vt 1.5000 0.3764 0.0000
vt 1.2500 0.3764 0.0000
vt 1.7500 0.4477 0.0000
vt 1.5000 0.4477 0.0000
vt 1.2500 0.4477 0.0000
vt 1.7500 0.3064 0.0000
vt 1.5000 0.3064 0.0000
vt 1.2500 0.3064 0.0000
vt 1.2500 0.5890 0.0000
vt 1.5000 0.5890 0.0000
vt 1.7500 0.5890 0.0000
vt 1.7500 0.7590 0.0000
vt 1.5000 0.7590 0.0000
vt 1.2500 0.7590 0.0000
vt 1.7500 0.8156 0.0000
vt 1.5000 0.8156 0.0000
vt 1.2500 0.8156 0.0000
vt 1.2500 0.5191 0.0000
vt 1.5000 0.5191 0.0000
vt 1.7500 0.5191 0.0000
vt 1.7500 0.0012 0.0000
vt 1.5000 0.0012 0.0000
vt 1.2500 0.0012 0.0000
vt 0.7500 0.0012 0.0000
vt 0.5000 0.0012 0.0000
vt 0.2500 0.0012 0.0000
# 118 texture coords

g Handrail_End
usemtl Handrail
s 1
f 1/2/1 2/13/2 3/10/3 4/1/4 
f 5/4/5 6/11/6 2/13/2 1/2/1 
f 7/5/7 8/12/8 9/17/9 10/6/10 
f 11/15/11 12/16/12 13/8/13 14/7/14 
f 10/6/10 9/17/9 11/15/11 14/7/14 
f 15/3/15 4/1/4 3/10/3 16/14/16 
f 7/5/7 15/3/15 16/14/16 8/12/8 
f 5/4/5 17/9/17 18/18/18 6/11/6 
f 19/20/19 20/19/20 21/22/21 22/21/22 
f 23/23/23 19/20/19 22/21/22 24/24/24 
f 25/26/25 26/25/26 27/28/27 28/27/28 
f 29/30/29 30/29/30 31/32/31 32/31/32 
f 26/25/26 30/29/30 29/30/29 27/28/27 
f 33/34/33 34/33/34 21/22/21 20/19/20 
f 25/26/25 28/27/28 34/33/34 33/34/33 
f 23/23/23 24/24/24 18/36/18 17/35/17 
f 35/78/35 36/72/36 37/71/37 38/77/38 
f 39/75/39 35/78/35 38/77/38 40/74/40 
f 41/87/41 42/84/42 43/83/43 44/88/44 
f 45/80/45 46/81/46 12/51/12 
f 42/84/42 46/81/46 45/80/45 43/83/43 
f 47/90/47 36/72/36 48/73/48 49/89/49 
f 41/87/41 47/90/47 49/89/49 50/86/50 
f 39/75/39 51/117/51 52/116/52 53/76/53 
f 54/96/54 55/93/55 56/94/56 57/97/57 
f 55/93/55 58/99/58 59/100/59 56/94/56 
f 60/105/60 61/102/61 62/101/62 63/106/63 
f 32/66/32 64/108/64 65/109/65 
f 64/108/64 60/105/60 63/106/63 65/109/65 
f 54/96/54 66/111/66 67/112/67 68/95/68 
f 66/111/66 61/102/61 69/103/69 67/112/67 
f 51/114/51 58/99/58 70/98/70 52/113/52 
f 71/48/71 72/45/72 48/73/48 73/79/73 
f 73/79/73 48/73/48 36/72/36 35/78/35 
f 3/37/3 2/38/2 38/77/38 37/71/37 
f 74/46/74 71/48/71 73/79/73 53/76/53 
f 53/76/53 73/79/73 35/78/35 39/75/39 
f 2/38/2 6/40/6 40/74/40 38/77/38 
f 75/47/75 76/52/76 77/85/77 50/86/50 
f 50/86/50 77/85/77 42/84/42 41/87/41 
f 9/42/9 8/41/8 44/88/44 43/83/43 
f 78/82/78 79/50/79 12/51/12 
f 46/81/46 78/82/78 12/51/12 
f 12/51/12 11/43/11 45/80/45 
f 76/52/76 79/50/79 78/82/78 77/85/77 
f 77/85/77 78/82/78 46/81/46 42/84/42 
f 11/43/11 9/42/9 43/83/43 45/80/45 
f 16/39/16 3/37/3 37/71/37 80/91/80 
f 80/91/80 37/71/37 36/72/36 47/90/47 
f 72/45/72 81/49/81 49/89/49 48/73/48 
f 8/41/8 16/39/16 80/91/80 44/88/44 
f 44/88/44 80/91/80 47/90/47 41/87/41 
f 81/49/81 75/47/75 50/86/50 49/89/49 
f 6/40/6 18/44/18 82/118/82 40/74/40 
f 40/74/40 82/118/82 51/117/51 39/75/39 
f 83/53/83 74/46/74 53/76/53 52/116/52 
f 84/57/84 85/56/85 86/92/86 68/95/68 
f 68/95/68 86/92/86 55/93/55 54/96/54 
f 22/55/22 21/54/21 57/97/57 56/94/56 
f 85/56/85 87/59/87 70/98/70 86/92/86 
f 86/92/86 70/98/70 58/99/58 55/93/55 
f 24/58/24 22/55/22 56/94/56 59/100/59 
f 88/63/88 89/62/89 69/103/69 90/104/90 
f 90/104/90 69/103/69 61/102/61 60/105/60 
f 28/61/28 27/60/27 63/106/63 62/101/62 
f 32/66/32 91/65/91 92/107/92 
f 32/66/32 92/107/92 64/108/64 
f 65/109/65 29/64/29 32/66/32 
f 91/65/91 88/63/88 90/104/90 92/107/92 
f 92/107/92 90/104/90 60/105/60 64/108/64 
f 27/60/27 29/64/29 65/109/65 63/106/63 
f 21/54/21 34/68/34 93/110/93 57/97/57 
f 57/97/57 93/110/93 66/111/66 54/96/54 
f 94/67/94 84/57/84 68/95/68 67/112/67 
f 34/68/34 28/61/28 62/101/62 93/110/93 
f 93/110/93 62/101/62 61/102/61 66/111/66 
f 89/62/89 94/67/94 67/112/67 69/103/69 
f 18/69/18 24/58/24 59/100/59 82/115/82 
f 82/115/82 59/100/59 58/99/58 51/114/51 
f 87/59/87 83/70/83 52/113/52 70/98/70 
# 72 polygons - 8 triangles

