# Blender v2.79 (sub 0) OBJ File: ''
# www.blender.org
mtllib cafe_counter.mtl
o cafe_counter
v 0.000000 -33.685905 91.500000
v 0.000000 24.798296 91.500000
v -60.000000 24.798296 91.500000
v -60.000000 -33.685905 91.500000
v -60.000000 30.000000 0.000001
v -60.000000 -27.253799 -0.000001
v -60.000000 -27.253803 86.053902
v 0.000000 -34.280605 90.905296
v -60.000000 -34.280605 90.905296
v -60.000000 -34.280605 86.053902
v 0.000000 -34.280605 86.053902
v 0.000000 -27.253803 86.053902
v 0.000000 29.999996 107.279198
v -60.000000 29.999996 107.279198
v -60.000000 27.120996 107.279198
v 0.000000 27.120996 107.279198
v -60.000000 24.798296 104.956497
v 0.000000 24.798296 104.956497
v 0.000000 25.378996 106.698502
v -60.000000 25.378996 106.698502
v 0.000000 -27.253799 -0.000001
v -6.264800 -27.253799 6.264799
v -53.735199 -27.253799 6.264799
v -6.264800 -27.253803 79.789101
v -53.735199 -27.253803 79.789101
v -6.264800 -30.638100 6.264799
v -6.264800 -30.638103 79.789101
v -53.735199 -30.638103 79.789101
v -53.735199 -30.638100 6.264799
v -10.772800 -33.976505 48.399899
v -10.772800 -30.255402 48.399899
v -11.717000 -30.255402 49.085899
v -11.717000 -34.260605 49.085899
v -11.133400 -33.516705 47.289902
v -11.133400 -30.255402 47.289902
v -12.300500 -33.516705 47.289902
v -12.300500 -30.255402 47.289902
v -12.661200 -33.976505 48.399899
v -12.661200 -30.255402 48.399899
v -10.772800 -35.156204 47.220200
v -11.717000 -35.842205 47.504299
v -11.133400 -34.046204 46.760399
v -12.300500 -34.046204 46.760399
v -12.661200 -35.156204 47.220200
v -10.772800 -35.156200 35.149101
v -11.717000 -35.842201 34.865002
v -11.133400 -34.046200 35.608898
v -12.300500 -34.046200 35.608898
v -12.661200 -35.156200 35.149101
v -10.772800 -33.976501 33.969398
v -11.717000 -34.260601 33.283401
v -11.133400 -33.516701 35.079399
v -12.300500 -33.516701 35.079399
v -12.661200 -33.976501 33.969398
v -10.772800 -30.123302 33.969398
v -11.717000 -30.123302 33.283401
v -11.133400 -30.123302 35.079399
v -12.300500 -30.123302 35.079399
v -12.661200 -30.123302 33.969398
v 0.000000 -33.685905 91.500000
v 60.000000 -33.685905 91.500000
v 60.000000 24.798296 91.500000
v 0.000000 24.798296 91.500000
v 60.000000 30.000000 0.000001
v 60.000000 -27.253803 86.053902
v 60.000000 -27.253799 -0.000001
v 0.000000 -34.280605 90.905296
v 0.000000 -34.280605 86.053902
v 60.000000 -34.280605 86.053902
v 60.000000 -34.280605 90.905296
v 0.000000 -27.253803 86.053902
v 0.000000 29.999996 107.279198
v 0.000000 27.120996 107.279198
v 60.000000 27.120996 107.279198
v 60.000000 29.999996 107.279198
v 60.000000 24.798296 104.956497
v 0.000000 24.798296 104.956497
v 0.000000 25.378996 106.698502
v 60.000000 25.378996 106.698502
v 53.735199 -27.253799 6.264799
v 6.264800 -27.253799 6.264799
v 0.000000 -27.253799 -0.000001
v 6.264800 -27.253803 79.789101
v 53.735199 -27.253803 79.789101
v 6.264800 -30.638100 6.264799
v 53.735199 -30.638100 6.264799
v 53.735199 -30.638103 79.789101
v 6.264800 -30.638103 79.789101
v 10.772800 -33.976505 48.399899
v 11.717000 -34.260605 49.085899
v 11.717000 -30.255402 49.085899
v 10.772800 -30.255402 48.399899
v 11.133400 -33.516705 47.289902
v 11.133400 -30.255402 47.289902
v 12.300500 -33.516705 47.289902
v 12.300500 -30.255402 47.289902
v 12.661200 -33.976505 48.399899
v 12.661200 -30.255402 48.399899
v 10.772800 -35.156204 47.220200
v 11.717000 -35.842205 47.504299
v 11.133400 -34.046204 46.760399
v 12.300500 -34.046204 46.760399
v 12.661200 -35.156204 47.220200
v 10.772800 -35.156200 35.149101
v 11.717000 -35.842201 34.865002
v 11.133400 -34.046200 35.608898
v 12.300500 -34.046200 35.608898
v 12.661200 -35.156200 35.149101
v 10.772800 -33.976501 33.969398
v 11.717000 -34.260601 33.283401
v 11.133400 -33.516701 35.079399
v 12.300500 -33.516701 35.079399
v 12.661200 -33.976501 33.969398
v 10.772800 -30.123302 33.969398
v 11.717000 -30.123302 33.283401
v 11.133400 -30.123302 35.079399
v 12.300500 -30.123302 35.079399
v 12.661200 -30.123302 33.969398
vt 0.137700 0.607800
vt 0.517700 0.607800
vt 0.517700 0.997700
vt 0.137700 0.997700
vt -0.000000 0.000000
vt 0.370300 -0.000000
vt 0.370300 0.556500
vt 0.137700 0.607800
vt 0.137700 0.997600
vt 0.106200 0.997600
vt 0.106200 0.607800
vt 0.033600 0.591800
vt 0.060500 0.607800
vt 0.060500 0.997600
vt -0.000000 0.693800
vt 0.033600 0.678800
vt 0.018600 0.693800
vt 0.415700 0.556500
vt 0.415700 0.587900
vt 0.411900 0.591800
vt 0.029900 0.690100
vt 0.394100 -0.000000
vt 0.765500 0.000000
vt 0.726700 0.038800
vt 0.432900 0.038800
vt 0.765500 0.532700
vt 0.726700 0.493900
vt 0.394100 0.532700
vt 0.432900 0.493900
vt 0.719700 0.049800
vt 0.719700 0.475800
vt 0.444700 0.475800
vt 0.444700 0.049800
vt 0.746800 0.564300
vt 0.439600 0.564300
vt 0.439600 0.542400
vt 0.746800 0.542400
vt 0.815500 0.485400
vt 0.815400 0.010000
vt 0.837300 0.010000
vt 0.837400 0.485400
vt 0.747200 0.594600
vt 0.440300 0.594700
vt 0.440300 0.572800
vt 0.747200 0.572700
vt 0.779900 0.486800
vt 0.779900 0.011300
vt 0.801800 0.011300
vt 0.801800 0.486800
vt 0.137700 0.607800
vt 0.137700 0.997700
vt 0.517700 0.997700
vt 0.517700 0.607800
vt -0.000000 0.000000
vt 0.370300 0.556500
vt 0.370300 -0.000000
vt 0.137700 0.607800
vt 0.106200 0.607800
vt 0.106200 0.997600
vt 0.137700 0.997600
vt 0.033600 0.591800
vt 0.060500 0.607800
vt 0.060500 0.997600
vt -0.000000 0.693800
vt 0.018600 0.693800
vt 0.033600 0.678800
vt 0.411900 0.591800
vt 0.415700 0.587900
vt 0.415700 0.556500
vt 0.029900 0.690100
vt 0.394100 -0.000000
vt 0.432900 0.038800
vt 0.726700 0.038800
vt 0.765500 0.000000
vt 0.726700 0.493900
vt 0.765500 0.532700
vt 0.432900 0.493900
vt 0.394100 0.532700
vt 0.719700 0.049800
vt 0.444700 0.049800
vt 0.444700 0.475800
vt 0.719700 0.475800
vt 0.746800 0.564300
vt 0.746800 0.542400
vt 0.439600 0.542400
vt 0.439600 0.564300
vt 0.815500 0.485400
vt 0.837400 0.485400
vt 0.837300 0.010000
vt 0.815400 0.010000
vt 0.747200 0.594600
vt 0.747200 0.572700
vt 0.440300 0.572800
vt 0.440300 0.594700
vt 0.779900 0.486800
vt 0.801800 0.486800
vt 0.801800 0.011300
vt 0.779900 0.011300
vt 0.647700 0.607800
vt 0.647700 0.997700
vt 0.629000 0.997700
vt 0.629000 0.607800
vt 0.605100 0.607800
vt 0.605100 0.997700
vt 0.617000 0.607800
vt 0.617000 0.997700
vt 0.967400 0.600900
vt 0.992400 0.600900
vt 0.992400 0.608600
vt 0.967400 0.608600
vt 0.967400 0.593700
vt 0.992400 0.593700
vt 0.967400 0.624200
vt 0.992400 0.624200
vt 0.992400 0.632200
vt 0.967400 0.632200
vt 0.967400 0.616200
vt 0.992400 0.616200
vt 0.956700 0.600900
vt 0.956700 0.608600
vt 0.956700 0.593700
vt 0.956700 0.624200
vt 0.956700 0.632200
vt 0.956700 0.616200
vt 0.886300 0.600900
vt 0.886300 0.608600
vt 0.886300 0.593700
vt 0.886300 0.624200
vt 0.886300 0.632200
vt 0.886300 0.616200
vt 0.877200 0.600900
vt 0.877200 0.608600
vt 0.877200 0.593700
vt 0.877200 0.624200
vt 0.877200 0.632200
vt 0.877200 0.616200
vt 0.853200 0.600900
vt 0.853200 0.608600
vt 0.853200 0.593700
vt 0.853200 0.624200
vt 0.853200 0.632200
vt 0.853200 0.616200
vt 0.647700 0.607800
vt 0.629000 0.607800
vt 0.629000 0.997700
vt 0.647700 0.997700
vt 0.605100 0.997700
vt 0.605100 0.607800
vt 0.617000 0.607800
vt 0.617000 0.997700
vt 0.967400 0.600900
vt 0.967400 0.608600
vt 0.992400 0.608600
vt 0.992400 0.600900
vt 0.967400 0.593700
vt 0.992400 0.593700
vt 0.967400 0.624200
vt 0.967400 0.632200
vt 0.992400 0.632200
vt 0.992400 0.624200
vt 0.967400 0.616200
vt 0.992400 0.616200
vt 0.956700 0.600900
vt 0.956700 0.608600
vt 0.956700 0.593700
vt 0.956700 0.624200
vt 0.956700 0.632200
vt 0.956700 0.616200
vt 0.886300 0.600900
vt 0.886300 0.608600
vt 0.886300 0.593700
vt 0.886300 0.624200
vt 0.886300 0.632200
vt 0.886300 0.616200
vt 0.877200 0.600900
vt 0.877200 0.608600
vt 0.877200 0.593700
vt 0.877200 0.624200
vt 0.877200 0.632200
vt 0.877200 0.616200
vt 0.853200 0.600900
vt 0.853200 0.608600
vt 0.853200 0.593700
vt 0.853200 0.624200
vt 0.853200 0.632200
vt 0.853200 0.616200
vn 0.0000 0.0000 1.0000
vn -1.0000 0.0000 0.0000
vn 0.0000 -1.0000 0.0000
vn 0.0000 0.0000 -1.0000
vn 0.0000 -0.7071 0.7071
vn 1.0000 0.0000 0.0000
vn 0.0000 -0.1602 0.9871
vn 0.0000 -0.9871 0.1602
vn 0.9086 -0.1598 0.3858
vn 0.9510 0.0000 0.3090
vn 0.0000 -0.3827 0.9239
vn 0.6780 0.2813 -0.6791
vn 0.5878 0.0000 -0.8090
vn -0.6779 0.2813 -0.6792
vn -0.5878 0.0000 -0.8090
vn -0.9087 -0.1598 0.3858
vn -0.9511 0.0000 0.3090
vn 0.9086 -0.3858 0.1598
vn 0.0000 -0.9239 0.3827
vn 0.6780 0.6791 -0.2813
vn -0.6779 0.6792 -0.2813
vn -0.9087 -0.3858 0.1598
vn 0.9086 -0.3858 -0.1598
vn 0.0000 -0.9239 -0.3827
vn 0.6780 0.6791 0.2813
vn -0.6779 0.6792 0.2813
vn -0.9087 -0.3858 -0.1598
vn 0.9086 -0.1598 -0.3858
vn 0.0000 -0.3827 -0.9239
vn 0.6780 0.2813 0.6791
vn -0.6779 0.2813 0.6792
vn -0.9087 -0.1598 -0.3858
vn 0.9510 0.0000 -0.3090
vn 0.5878 0.0000 0.8090
vn -0.5878 0.0000 0.8090
vn -0.9511 0.0000 -0.3090
vn -0.9086 -0.1598 0.3858
vn -0.9510 0.0000 0.3090
vn -0.6780 0.2813 -0.6791
vn 0.6779 0.2813 -0.6792
vn 0.9087 -0.1598 0.3858
vn 0.9511 0.0000 0.3090
vn -0.9086 -0.3858 0.1598
vn -0.6780 0.6791 -0.2813
vn 0.6779 0.6792 -0.2813
vn 0.9087 -0.3858 0.1598
vn -0.9086 -0.3858 -0.1598
vn -0.6780 0.6791 0.2813
vn 0.6779 0.6792 0.2813
vn 0.9087 -0.3858 -0.1598
vn -0.9086 -0.1598 -0.3858
vn -0.6780 0.2813 0.6791
vn 0.6779 0.2813 0.6792
vn 0.9087 -0.1598 -0.3858
vn -0.9510 0.0000 -0.3090
vn 0.9511 0.0000 -0.3090
usemtl cafe_counter
s off
f 1/1/1 2/2/1 3/3/1 4/4/1
f 5/5/2 6/6/2 7/7/2
f 8/8/3 9/9/3 10/10/3 11/11/3
f 7/7/2 3/12/2 5/5/2
f 12/13/4 11/11/4 10/10/4 7/14/4
f 14/15/2 17/16/2 15/17/2
f 10/18/2 9/19/2 4/20/2 3/12/2 7/7/2
f 3/12/2 14/15/2 5/5/2
f 4/4/5 9/9/5 8/8/5 1/1/5
f 14/15/2 3/12/2 17/16/2
f 17/16/2 20/21/2 15/17/2
f 6/22/3 21/23/3 22/24/3 23/25/3
f 21/23/3 12/26/3 24/27/3 22/24/3
f 12/26/3 7/28/3 25/29/3 24/27/3
f 7/28/3 6/22/3 23/25/3 25/29/3
f 26/30/3 27/31/3 28/32/3 29/33/3
f 23/34/4 22/35/4 26/36/4 29/37/4
f 22/38/6 24/39/6 27/40/6 26/41/6
f 24/42/1 25/43/1 28/44/1 27/45/1
f 25/46/2 23/47/2 29/48/2 28/49/2
f 60/50/1 61/51/1 62/52/1 63/53/1
f 64/54/6 65/55/6 66/56/6
f 67/57/3 68/58/3 69/59/3 70/60/3
f 65/55/6 64/54/6 62/61/6
f 71/62/4 65/63/4 69/59/4 68/58/4
f 75/64/6 74/65/6 76/66/6
f 61/67/6 70/68/6 69/69/6 65/55/6 62/61/6
f 62/61/6 64/54/6 75/64/6
f 61/51/5 60/50/5 67/57/5 70/60/5
f 75/64/6 76/66/6 62/61/6
f 76/66/6 74/65/6 79/70/6
f 66/71/3 80/72/3 81/73/3 82/74/3
f 82/74/3 81/73/3 83/75/3 71/76/3
f 71/76/3 83/75/3 84/77/3 65/78/3
f 65/78/3 84/77/3 80/72/3 66/71/3
f 85/79/3 86/80/3 87/81/3 88/82/3
f 80/83/4 86/84/4 85/85/4 81/86/4
f 81/87/2 85/88/2 88/89/2 83/90/2
f 83/91/1 88/92/1 87/93/1 84/94/1
f 84/95/6 87/96/6 86/97/6 80/98/6
s 1
f 13/99/1 14/100/1 15/101/7 16/102/7
f 3/3/3 2/2/3 18/103/8 17/104/8
f 19/105/5 16/102/7 15/101/7 20/106/5
f 18/103/8 19/105/5 20/106/5 17/104/8
f 30/107/9 31/108/10 32/109/1 33/110/11
f 34/111/12 35/112/13 31/108/10 30/107/9
f 36/113/14 37/114/15 35/115/13 34/116/12
f 38/117/16 39/118/17 37/114/15 36/113/14
f 33/110/11 32/109/1 39/118/17 38/117/16
f 40/119/18 30/107/9 33/110/11 41/120/19
f 42/121/20 34/111/12 30/107/9 40/119/18
f 43/122/21 36/113/14 34/116/12 42/123/20
f 44/124/22 38/117/16 36/113/14 43/122/21
f 41/120/19 33/110/11 38/117/16 44/124/22
f 45/125/23 40/119/18 41/120/19 46/126/24
f 47/127/25 42/121/20 40/119/18 45/125/23
f 48/128/26 43/122/21 42/123/20 47/129/25
f 49/130/27 44/124/22 43/122/21 48/128/26
f 46/126/24 41/120/19 44/124/22 49/130/27
f 50/131/28 45/125/23 46/126/24 51/132/29
f 52/133/30 47/127/25 45/125/23 50/131/28
f 53/134/31 48/128/26 47/129/25 52/135/30
f 54/136/32 49/130/27 48/128/26 53/134/31
f 51/132/29 46/126/24 49/130/27 54/136/32
f 55/137/33 50/131/28 51/132/29 56/138/4
f 57/139/34 52/133/30 50/131/28 55/137/33
f 58/140/35 53/134/31 52/135/30 57/141/34
f 59/142/36 54/136/32 53/134/31 58/140/35
f 56/138/4 51/132/29 54/136/32 59/142/36
f 72/143/1 73/144/7 74/145/7 75/146/1
f 62/52/3 76/147/8 77/148/8 63/53/3
f 78/149/5 79/150/5 74/145/7 73/144/7
f 77/148/8 76/147/8 79/150/5 78/149/5
f 89/151/37 90/152/11 91/153/1 92/154/38
f 93/155/39 89/151/37 92/154/38 94/156/15
f 95/157/40 93/158/39 94/159/15 96/160/13
f 97/161/41 95/157/40 96/160/13 98/162/42
f 90/152/11 97/161/41 98/162/42 91/153/1
f 99/163/43 100/164/19 90/152/11 89/151/37
f 101/165/44 99/163/43 89/151/37 93/155/39
f 102/166/45 101/167/44 93/158/39 95/157/40
f 103/168/46 102/166/45 95/157/40 97/161/41
f 100/164/19 103/168/46 97/161/41 90/152/11
f 104/169/47 105/170/24 100/164/19 99/163/43
f 106/171/48 104/169/47 99/163/43 101/165/44
f 107/172/49 106/173/48 101/167/44 102/166/45
f 108/174/50 107/172/49 102/166/45 103/168/46
f 105/170/24 108/174/50 103/168/46 100/164/19
f 109/175/51 110/176/29 105/170/24 104/169/47
f 111/177/52 109/175/51 104/169/47 106/171/48
f 112/178/53 111/179/52 106/173/48 107/172/49
f 113/180/54 112/178/53 107/172/49 108/174/50
f 110/176/29 113/180/54 108/174/50 105/170/24
f 114/181/55 115/182/4 110/176/29 109/175/51
f 116/183/35 114/181/55 109/175/51 111/177/52
f 117/184/34 116/185/35 111/179/52 112/178/53
f 118/186/56 117/184/34 112/178/53 113/180/54
f 115/182/4 118/186/56 113/180/54 110/176/29
