# 3ds Max Wavefront OBJ Exporter v0.97b - (c)2007 guruware
# File Created: 29.01.2018 16:36:02

mtllib microwave.mtl

#
# object microwave
#

v  -26.0000 -14.9890 -0.0000
v  -26.0000 -14.9890 31.0000
v  -26.0000 19.7500 31.0000
v  -26.0000 19.7500 0.0000
v  0.0000 19.7500 0.0000
v  0.0000 -14.9890 -0.0000
v  0.0000 19.7500 31.0000
v  0.0000 -14.9890 31.0000
v  26.0000 -14.9890 -0.0000
v  26.0000 19.7500 0.0000
v  26.0000 19.7500 31.0000
v  26.0000 -14.9890 31.0000
v  0.0000 -19.7500 0.0000
v  -26.0000 -19.7500 0.0000
v  0.0000 -19.7500 31.0000
v  -26.0000 -19.7500 31.0000
v  26.0000 -19.7500 31.0000
v  26.0000 -19.7500 0.0000
# 18 vertices

vn -1.0000 0.0000 0.0000
vn 0.0000 0.0000 -1.0000
vn 0.0000 -0.0000 -1.0000
vn 0.0000 1.0000 0.0000
vn 0.0000 0.0000 1.0000
vn 1.0000 0.0000 0.0000
vn 0.0000 -1.0000 0.0000
# 7 vertex normals

vt 0.0020 0.3124 0.0000
vt 0.8084 0.6751 0.0000
vt 0.8084 0.9854 0.0000
vt 0.0020 0.6824 0.0000
vt 0.0020 0.0021 0.0000
vt 0.0020 0.9927 0.0000
vt 0.4384 0.9854 0.0000
vt 0.4384 0.6751 0.0000
vt 0.4166 0.3124 0.0000
vt 0.4166 0.6824 0.0000
vt 0.4166 0.0021 0.0000
vt 0.4166 0.9927 0.0000
vt 0.0020 0.3124 0.0000
vt 0.4166 0.3124 0.0000
vt 0.4166 0.6824 0.0000
vt 0.0020 0.6824 0.0000
vt 0.0020 0.0021 0.0000
vt 0.4166 0.0021 0.0000
vt 0.8084 0.6751 0.0000
vt 0.8084 0.9854 0.0000
vt 0.4384 0.9854 0.0000
vt 0.4384 0.6751 0.0000
vt 0.0020 0.9927 0.0000
vt 0.4166 0.9927 0.0000
vt 0.9674 0.6216 0.0000
vt 0.9106 0.6216 0.0000
vt 0.9114 0.6286 0.0000
vt 0.8359 0.9987 0.0000
vt 0.8927 0.9986 0.0000
vt 0.9682 0.6286 0.0000
vt 0.8358 0.6286 0.0000
vt 0.8926 0.6286 0.0000
vt 0.9682 0.9987 0.0000
vt 0.9113 0.9986 0.0000
vt 0.9106 0.0009 0.0000
vt 0.9674 0.0009 0.0000
vt 0.4388 0.6475 0.0000
vt 0.4388 0.0269 0.0000
vt 0.8088 0.0269 0.0000
vt 0.8088 0.6475 0.0000
vt 0.8352 0.6216 0.0000
vt 0.8352 0.0009 0.0000
vt 0.8920 0.0009 0.0000
vt 0.8920 0.6216 0.0000
vt 0.9674 0.3112 0.0000
vt 0.4388 0.3372 0.0000
vt 0.8352 0.3112 0.0000
vt 0.8088 0.3372 0.0000
vt 0.9106 0.3112 0.0000
vt 0.8920 0.3112 0.0000
# 50 texture coords

g microwave
usemtl microwave
s 64
f 1/9/1 2/10/1 3/4/1 4/1/1
s 2
f 4/1/2 5/5/2 6/11/3 1/9/3
s 32
f 4/3/4 3/7/4 7/8/4 5/2/4
s 4
f 3/4/5 2/10/5 8/12/5 7/6/5
s 64
f 9/14/6 10/13/6 11/16/6 12/15/6
s 2
f 10/13/2 9/14/3 6/18/3 5/17/2
s 32
f 10/20/4 5/19/4 7/22/4 11/21/4
s 4
f 11/16/5 7/23/5 8/24/5 12/15/5
s 2
f 1/26/3 6/49/3 13/45/3 14/25/3
s 4
f 15/47/5 8/50/5 2/44/5 16/41/5
s 8
f 13/46/7 15/48/7 16/40/7 14/37/7
s 16
f 9/32/6 12/29/6 17/28/6 18/31/6
s 64
f 14/34/1 16/27/1 2/30/1 1/33/1
s 2
f 9/35/3 18/36/3 13/45/3 6/49/3
s 4
f 17/42/5 12/43/5 8/50/5 15/47/5
s 8
f 18/38/7 17/39/7 15/48/7 13/46/7
# 16 polygons

