# Blender v2.80 (sub 75) OBJ File: 'texture.blend'
# www.blender.org
mtllib ColBumper.mtl
o bump_Cube
v 0.500000 -0.005000 0.200000
v 0.500000 0.000000 0.193750
v 0.500000 -0.005000 0.156250
v 0.500000 0.000000 0.156250
v 0.500000 -0.005000 0.150000
v 0.500000 0.005000 0.200000
v 0.500000 -0.005000 0.193750
v 0.500000 -0.005000 0.160299
v 0.500000 -0.005000 0.189701
v 0.500000 0.005000 0.150000
v 0.500000 0.000000 0.160299
v 0.500000 0.000000 0.189701
v -0.500000 -0.005000 0.200000
v -0.500000 0.000000 0.193750
v -0.500000 -0.005000 0.156250
v -0.500000 0.000000 0.156250
v -0.500000 -0.005000 0.150000
v -0.500000 0.005000 0.200000
v -0.500000 -0.005000 0.193750
v -0.500000 -0.005000 0.160299
v -0.500000 -0.005000 0.189701
v -0.500000 0.005000 0.150000
v -0.500000 0.000000 0.160299
v -0.500000 0.000000 0.189701
v 0.500000 -0.005000 0.049051
v 0.500000 0.000000 0.055301
v 0.500000 -0.005000 0.092801
v 0.500000 0.000000 0.092801
v 0.500000 -0.005000 0.099051
v 0.500000 0.005000 0.049051
v 0.500000 -0.005000 0.055301
v 0.500000 -0.005000 0.088752
v 0.500000 -0.005000 0.059350
v 0.500000 0.005000 0.099051
v 0.500000 0.000000 0.088752
v 0.500000 0.000000 0.059350
v -0.500000 -0.005000 0.049051
v -0.500000 0.000000 0.055301
v -0.500000 -0.005000 0.092801
v -0.500000 0.000000 0.092801
v -0.500000 -0.005000 0.099051
v -0.500000 0.005000 0.049051
v -0.500000 -0.005000 0.055301
v -0.500000 -0.005000 0.088752
v -0.500000 -0.005000 0.059350
v -0.500000 0.005000 0.099051
v -0.500000 0.000000 0.088752
v -0.500000 0.000000 0.059350
vt 0.275313 0.800234
vt 0.267005 0.667319
vt 0.275313 0.667319
vt 0.267005 0.000391
vt 0.532838 0.000391
vt 0.532838 0.266224
vt 0.267005 0.266224
vt 0.267005 0.666536
vt 0.267005 0.533620
vt 0.532838 0.533620
vt 0.532838 0.666536
vt 0.325156 0.800234
vt 0.333464 0.667318
vt 0.333464 0.933151
vt 0.868256 0.000391
vt 0.876563 0.000391
vt 0.876563 0.266224
vt 0.868256 0.266224
vt 0.533620 0.000391
vt 0.666536 0.000391
vt 0.666536 0.266224
vt 0.533620 0.266224
vt 0.319775 0.800234
vt 0.000391 0.812561
vt 0.000391 0.807179
vt 0.266222 0.807179
vt 0.266222 0.812561
vt 0.000391 0.666536
vt 0.000391 0.533620
vt 0.266224 0.533620
vt 0.266224 0.666537
vt 0.801016 0.000391
vt 0.867474 0.000391
vt 0.867474 0.266224
vt 0.801016 0.266224
vt 0.533620 0.267005
vt 0.666536 0.267005
vt 0.666536 0.532838
vt 0.533620 0.532838
vt 0.000391 0.266224
vt 0.000391 0.000391
vt 0.266224 0.000391
vt 0.266224 0.266224
vt 0.674955 0.799452
vt 0.669573 0.799452
vt 0.669573 0.533620
vt 0.674955 0.533620
vt 0.280694 0.800234
vt 0.280694 0.667318
vt 0.319775 0.667318
vt 0.387015 0.800234
vt 0.387015 0.933151
vt 0.347934 0.933151
vt 0.347934 0.800234
vt 0.267005 0.933151
vt 0.853785 0.399923
vt 0.867474 0.532839
vt 0.801016 0.532839
vt 0.814705 0.399923
vt 0.747465 0.533621
vt 0.786546 0.533621
vt 0.786546 0.666537
vt 0.747465 0.666537
vt 0.791927 0.666537
vt 0.800234 0.533620
vt 0.800234 0.799454
vt 0.733776 0.533621
vt 0.742083 0.666537
vt 0.733776 0.799454
vt 0.814705 0.267006
vt 0.853785 0.267006
vt 0.859167 0.399923
vt 0.867474 0.267005
vt 0.266224 0.267005
vt 0.266224 0.532838
vt 0.000391 0.532838
vt 0.000391 0.267005
vt 0.666536 0.799453
vt 0.533620 0.799453
vt 0.533620 0.533620
vt 0.666536 0.533620
vt 0.801016 0.267007
vt 0.809323 0.399923
vt 0.684825 0.533620
vt 0.693133 0.533620
vt 0.693133 0.799453
vt 0.684825 0.799453
vt 0.266222 0.818724
vt 0.000391 0.818724
vt 0.000391 0.813343
vt 0.266222 0.813343
vt 0.000391 0.667318
vt 0.266224 0.667318
vt 0.266224 0.800234
vt 0.000391 0.800234
vt 0.999609 0.866693
vt 0.733776 0.866693
vt 0.733776 0.800235
vt 0.999609 0.800235
vt 0.800234 0.266224
vt 0.667318 0.266224
vt 0.667318 0.000391
vt 0.800234 0.000391
vt 0.267005 0.267005
vt 0.532838 0.267005
vt 0.532838 0.532838
vt 0.267005 0.532838
vt 0.667318 0.532838
vt 0.667318 0.267005
vt 0.800234 0.267005
vt 0.800234 0.532838
vt 0.732995 0.799453
vt 0.693914 0.799453
vt 0.693914 0.533620
vt 0.732995 0.533620
vt 0.266223 0.806398
vt 0.000391 0.806398
vt 0.000391 0.801016
vt 0.266223 0.801016
vt 0.868256 0.267005
vt 0.876563 0.267005
vt 0.876563 0.532838
vt 0.868256 0.532838
vt 0.392396 0.800234
vt 0.400703 0.933150
vt 0.392396 0.933150
vt 0.342552 0.800234
vt 0.334245 0.933151
vt 0.334245 0.667318
vt 0.675736 0.533620
vt 0.684044 0.533620
vt 0.684044 0.799453
vt 0.675736 0.799453
vt 0.400703 0.667318
vt 0.325156 0.667318
vt 0.791927 0.533620
vt 0.742083 0.533621
vt 0.859167 0.267005
vt 0.809323 0.267007
vt 0.342553 0.933151
vt 0.693133 0.839315
vt 0.427300 0.839315
vt 0.427300 0.800234
vt 0.693133 0.800234
vn 1.0000 0.0000 0.0000
vn 0.0000 0.0000 1.0000
vn 0.0000 0.0000 -1.0000
vn 0.0000 -1.0000 0.0000
vn 0.0000 1.0000 0.0000
vn -1.0000 0.0000 0.0000
usemtl bump
s off
f 2/1/1 1/2/1 7/3/1
f 13/4/2 1/5/2 6/6/2 18/7/2
f 20/8/3 23/9/3 11/10/3 8/11/3
f 4/12/1 5/13/1 10/14/1
f 15/15/4 17/16/4 5/17/4 3/18/4
f 36/19/3 33/20/3 45/21/3 48/22/3
f 10/14/1 11/23/1 4/12/1
f 4/24/4 11/25/4 23/26/4 16/27/4
f 3/28/2 4/29/2 16/30/2 15/31/2
f 6/32/5 10/33/5 22/34/5 18/35/5
f 19/36/3 14/37/3 2/38/3 7/39/3
f 17/40/3 22/41/3 10/42/3 5/43/3
f 12/44/4 2/45/4 14/46/4 24/47/4
f 12/48/1 9/49/1 8/50/1 11/23/1
f 48/51/6 45/52/6 44/53/6 47/54/6
f 6/55/1 2/1/1 12/48/1
f 36/56/1 30/57/1 34/58/1 35/59/1
f 20/60/6 21/61/6 24/62/6 23/63/6
f 14/64/6 13/65/6 18/66/6
f 17/67/6 16/68/6 22/69/6
f 22/69/6 16/68/6 23/63/6
f 32/70/1 33/71/1 36/56/1 35/59/1
f 18/66/6 24/62/6 14/64/6
f 26/72/1 25/73/1 30/57/1
f 30/74/3 25/75/3 37/76/3 42/77/3
f 47/78/2 44/79/2 32/80/2 35/81/2
f 29/82/1 28/83/1 34/58/1
f 41/84/4 39/85/4 27/86/4 29/87/4
f 47/88/4 35/89/4 28/90/4 40/91/4
f 34/58/1 28/83/1 35/59/1
f 40/92/3 28/93/3 27/94/3 39/95/3
f 46/96/5 34/97/5 30/98/5 42/99/5
f 38/100/2 43/101/2 31/102/2 26/103/2
f 46/104/2 41/105/2 29/106/2 34/107/2
f 21/108/2 9/109/2 12/110/2 24/111/2
f 33/112/4 32/113/4 44/114/4 45/115/4
f 38/116/4 26/117/4 36/118/4 48/119/4
f 30/57/1 36/56/1 26/72/1
f 24/62/6 18/66/6 22/69/6 23/63/6
f 13/120/4 19/121/4 7/122/4 1/123/4
f 38/124/6 37/125/6 43/126/6
f 40/127/6 41/128/6 46/129/6
f 46/129/6 47/54/6 40/127/6
f 43/130/4 37/131/4 25/132/4 31/133/4
f 42/134/6 38/124/6 48/51/6
f 12/48/1 11/23/1 10/14/1 6/55/1
f 48/51/6 47/54/6 46/129/6 42/134/6
f 2/1/1 6/55/1 1/2/1
f 4/12/1 3/135/1 5/13/1
f 14/64/6 19/136/6 13/65/6
f 17/67/6 15/137/6 16/68/6
f 26/72/1 31/138/1 25/73/1
f 29/82/1 27/139/1 28/83/1
f 38/124/6 42/134/6 37/125/6
f 40/127/6 39/140/6 41/128/6
f 20/141/4 8/142/4 9/143/4 21/144/4
