# 3ds Max Wavefront OBJ Exporter v0.97b - (c)2007 guruware
# File Created: 28.01.2018 13:45:15

mtllib mini_fridge.mtl

#
# object mini_fridge
#

v  -17.2447 17.2447 50.7122
v  0.0000 17.2447 50.7122
v  0.0000 17.2447 1.1753
v  -17.2447 17.2447 1.1753
v  -17.2447 -13.2848 50.7122
v  0.0000 -13.2848 50.7122
v  -17.2447 -13.2848 1.1753
v  0.0000 -13.2848 1.1753
v  17.2447 17.2447 50.7122
v  17.2447 17.2447 1.1753
v  17.2447 -13.2848 50.7122
v  17.2447 -13.2848 1.1753
v  14.3692 -14.7428 1.1753
v  -15.6428 -15.2516 1.1753
v  -14.0195 -17.2447 48.7166
v  -15.6344 -17.2447 50.7122
v  -15.6344 -17.2447 1.1753
v  -14.0195 -17.2447 1.1753
v  17.2447 -15.6344 50.7122
v  17.2447 -15.6344 1.1753
v  -17.2447 -15.6344 1.1753
v  -17.2447 -15.6344 50.7122
v  16.3389 -17.1441 1.1753
v  16.3389 -17.1441 50.7122
v  15.6344 -17.2447 50.7122
v  15.6344 -17.2447 1.1753
v  16.8421 -16.8421 1.1753
v  16.8421 -16.8421 50.7122
v  17.1441 -16.3389 1.1753
v  17.1441 -16.3389 50.7122
v  -1.3829 -17.2447 50.7122
v  -1.3829 -17.2447 48.7166
v  -16.3389 -17.1441 1.1753
v  -16.3389 -17.1441 50.7122
v  -16.8421 -16.8421 1.1753
v  -16.8421 -16.8421 50.7122
v  -17.1441 -16.3389 1.1753
v  -17.1441 -16.3389 50.7122
v  -14.0195 -17.2447 50.7122
v  -6.9098 -14.9599 50.7122
v  -6.9098 -14.9599 48.7166
v  -4.8554 -15.3926 48.7166
v  -4.8554 -15.3926 50.7122
v  -13.7132 -16.2775 50.7122
v  -13.7132 -16.2775 48.7166
v  -12.9320 -15.4352 48.7166
v  -12.9320 -15.4352 50.7122
v  -11.6822 -14.9597 50.7122
v  -11.6822 -14.9597 48.7166
v  -9.9214 -14.7775 48.7166
v  -9.9214 -14.7775 50.7122
v  -1.8517 -17.1689 48.7166
v  -1.8517 -17.1689 50.7122
v  -2.3192 -16.9152 50.7122
v  -2.3192 -16.9152 48.7166
v  -3.1617 -16.2130 48.7166
v  -3.1617 -16.2130 50.7122
v  -1.3829 -17.2447 1.1753
v  -13.3656 -10.3398 1.2380
v  -13.6020 -11.2223 1.2380
v  -13.8803 -11.0617 0.0000
v  -13.6868 -10.3398 0.0000
v  -14.2481 -11.8684 1.2380
v  -14.4088 -11.5902 0.0000
v  -15.1307 -12.1049 1.2380
v  -15.1307 -11.7836 0.0000
v  -16.0132 -11.8684 1.2380
v  -15.8526 -11.5902 0.0000
v  -16.6593 -11.2223 1.2380
v  -16.3811 -11.0617 0.0000
v  -16.8958 -10.3398 1.2380
v  -16.5745 -10.3398 0.0000
v  -16.6593 -9.4572 1.2380
v  -16.3811 -9.6179 0.0000
v  -16.0132 -8.8111 1.2380
v  -15.8526 -9.0894 0.0000
v  -15.1307 -8.5747 1.2380
v  -15.1307 -8.8960 0.0000
v  -14.2481 -8.8111 1.2380
v  -14.4088 -9.0894 0.0000
v  -13.6020 -9.4572 1.2380
v  -13.8803 -9.6179 0.0000
v  -13.3656 15.1797 1.2380
v  -13.6020 14.2971 1.2380
v  -13.8803 14.4577 0.0000
v  -13.6868 15.1797 0.0000
v  -14.2481 13.6510 1.2380
v  -14.4088 13.9293 0.0000
v  -15.1307 13.4145 1.2380
v  -15.1307 13.7358 0.0000
v  -16.0132 13.6510 1.2380
v  -15.8526 13.9293 0.0000
v  -16.6593 14.2971 1.2380
v  -16.3811 14.4577 0.0000
v  -16.8958 15.1797 1.2380
v  -16.5745 15.1797 0.0000
v  -16.6593 16.0622 1.2380
v  -16.3811 15.9016 0.0000
v  -16.0132 16.7083 1.2380
v  -15.8526 16.4300 0.0000
v  -15.1307 16.9448 1.2380
v  -15.1307 16.6235 0.0000
v  -14.2481 16.7083 1.2380
v  -14.4088 16.4300 0.0000
v  -13.6020 16.0622 1.2380
v  -13.8803 15.9016 0.0000
v  13.3656 -10.3398 1.2380
v  13.6868 -10.3398 0.0000
v  13.8803 -11.0617 0.0000
v  13.6020 -11.2223 1.2380
v  14.4088 -11.5902 0.0000
v  14.2481 -11.8684 1.2380
v  15.1307 -11.7836 0.0000
v  15.1307 -12.1049 1.2380
v  15.8526 -11.5902 0.0000
v  16.0132 -11.8684 1.2380
v  16.3811 -11.0617 0.0000
v  16.6593 -11.2223 1.2380
v  16.5745 -10.3398 0.0000
v  16.8958 -10.3398 1.2380
v  16.3811 -9.6179 0.0000
v  16.6593 -9.4572 1.2380
v  15.8526 -9.0894 0.0000
v  16.0132 -8.8111 1.2380
v  15.1307 -8.8960 0.0000
v  15.1307 -8.5747 1.2380
v  14.4088 -9.0894 0.0000
v  14.2481 -8.8111 1.2380
v  13.8803 -9.6179 0.0000
v  13.6020 -9.4572 1.2380
v  13.3656 15.1797 1.2380
v  13.6868 15.1797 0.0000
v  13.8803 14.4577 0.0000
v  13.6020 14.2971 1.2380
v  14.4088 13.9293 0.0000
v  14.2481 13.6510 1.2380
v  15.1307 13.7358 0.0000
v  15.1307 13.4145 1.2380
v  15.8526 13.9293 0.0000
v  16.0132 13.6510 1.2380
v  16.3811 14.4577 0.0000
v  16.6593 14.2971 1.2380
v  16.5745 15.1797 0.0000
v  16.8958 15.1797 1.2380
v  16.3811 15.9016 0.0000
v  16.6593 16.0622 1.2380
v  15.8526 16.4300 0.0000
v  16.0132 16.7083 1.2380
v  15.1307 16.6235 0.0000
v  15.1307 16.9448 1.2380
v  14.4088 16.4300 0.0000
v  14.2481 16.7083 1.2380
v  13.8803 15.9016 0.0000
v  13.6020 16.0622 1.2380
v  15.2854 -10.3770 50.6822
v  14.8668 -9.2944 50.6822
v  14.8668 -9.2944 51.8928
v  15.2854 -10.3770 51.8928
v  13.9629 -8.5661 50.6822
v  13.9629 -8.5661 51.8928
v  12.9810 -8.4083 50.6822
v  12.9810 -8.4083 51.8928
v  11.7335 -8.8060 50.6822
v  11.7335 -8.8060 51.8928
v  11.0052 -9.7098 50.6822
v  11.0052 -9.7098 51.8928
v  10.8264 -10.8567 50.6822
v  10.8264 -10.8567 51.8928
v  11.2450 -11.9393 50.6822
v  11.2450 -11.9393 51.8928
v  16.4497 -14.9733 50.6822
v  16.2695 -14.3010 50.6822
v  16.2695 -14.3010 51.8928
v  16.4497 -14.9733 51.8928
v  13.9405 -15.6456 50.6822
v  14.4327 -16.1378 50.6822
v  14.4327 -16.1378 51.8928
v  13.9405 -15.6456 51.8928
v  15.1050 -16.3180 50.6822
v  15.1050 -16.3180 51.8928
v  15.7773 -16.1378 50.6822
v  15.7773 -16.1378 51.8928
v  16.2695 -15.6456 50.6822
v  16.2695 -15.6456 51.8928
# 184 vertices

vn 0.0000 1.0000 0.0000
vn 0.0000 0.0000 1.0000
vn -1.0000 0.0000 0.0000
vn 0.0000 0.0000 -1.0000
vn -0.0000 0.0000 1.0000
vn 1.0000 0.0000 0.0000
vn -0.0000 -0.0000 -1.0000
vn 0.0000 -1.0000 0.0000
vn -0.0709 -0.9975 0.0000
vn 0.9975 -0.0709 0.0000
vn 0.9975 -0.0709 -0.0000
vn -0.9975 -0.0709 0.0000
vn 0.3346 -0.9424 0.0000
vn 0.0709 -0.9975 0.0000
vn 0.7071 -0.7071 0.0000
vn 0.7071 -0.7071 -0.0000
vn 0.9424 -0.3346 -0.0000
vn -0.3346 -0.9424 0.0000
vn -0.7071 -0.7071 0.0000
vn -0.9424 -0.3346 0.0000
vn -0.1336 -0.9910 0.0000
vn -0.3234 -0.9463 0.0000
vn 0.8642 -0.5032 0.0000
vn 0.5591 -0.8291 0.0000
vn 0.2312 -0.9729 0.0000
vn 0.0213 -0.9998 0.0000
vn -0.3229 -0.9464 0.0000
vn -0.5614 -0.8275 0.0000
vn -0.5421 -0.8403 0.0000
vn 0.9533 -0.3020 0.0000
vn -0.1595 -0.9872 0.0000
vn -0.0000 -0.0000 1.0000
vn -0.0000 0.0000 -1.0000
vn 0.0000 -0.0000 -1.0000
vn 0.9679 -0.0000 -0.2512
vn 0.8383 -0.4840 -0.2512
vn 0.4840 -0.8383 -0.2512
vn -0.0000 -0.9679 -0.2512
vn -0.4840 -0.8383 -0.2512
vn -0.8383 -0.4840 -0.2512
vn -0.9679 0.0000 -0.2512
vn -0.8383 0.4840 -0.2512
vn -0.4840 0.8383 -0.2512
vn -0.0000 0.9679 -0.2512
vn 0.4840 0.8383 -0.2512
vn 0.8383 0.4840 -0.2512
vn -0.9679 -0.0000 -0.2512
vn 0.0000 -0.9679 -0.2512
vn 0.9679 0.0000 -0.2512
vn 0.0000 0.9679 -0.2512
vn 0.9327 0.3607 0.0000
vn 0.8076 0.5898 0.0000
vn 0.4067 0.9136 0.0000
vn -0.0745 0.9972 0.0000
vn -0.5651 0.8250 0.0000
vn -0.9145 0.4045 0.0000
vn -0.9943 -0.1070 0.0000
vn -0.9327 -0.3607 0.0000
vn 0.9659 0.2588 0.0000
vn -0.5000 -0.8660 0.0000
vn 0.5000 -0.8660 0.0000
vn 0.8660 -0.5000 0.0000
vn -0.8087 -0.5882 0.0000
vn 0.9700 0.2433 0.0000
# 64 vertex normals

vt 0.9701 0.3846 0.0000
vt 0.2235 0.9986 0.0000
vt 0.7579 0.3846 0.0000
vt 0.7579 0.0090 0.0000
vt 0.9701 0.0090 0.0000
vt 0.2235 0.6229 0.0000
vt 0.8331 0.9986 0.0000
vt 0.5274 0.6116 0.0000
vt 0.5274 0.0020 0.0000
vt 0.0113 0.9986 0.0000
vt 0.0113 0.6229 0.0000
vt 0.8331 0.6229 0.0000
vt 0.7396 0.0020 0.0000
vt 0.7396 0.6116 0.0000
vt 0.7396 0.0020 0.0000
vt 0.7396 0.6116 0.0000
vt 0.5274 0.6116 0.0000
vt 0.5274 0.0020 0.0000
vt 0.9701 0.3846 0.0000
vt 0.7579 0.3846 0.0000
vt 0.7579 0.0090 0.0000
vt 0.9701 0.0090 0.0000
vt 0.2235 0.6229 0.0000
vt 0.8331 0.6229 0.0000
vt 0.8331 0.9986 0.0000
vt 0.2235 0.9986 0.0000
vt 0.0113 0.9986 0.0000
vt 0.0113 0.6229 0.0000
vt 0.9133 0.8281 0.0000
vt 0.9133 0.4037 0.0000
vt 0.9313 0.4391 0.0000
vt 0.9375 0.8084 0.0000
vt 0.9509 0.8269 0.0000
vt 0.9422 0.8281 0.0000
vt 0.0827 0.5870 0.0000
vt 0.0629 0.6116 0.0000
vt 0.0629 0.0020 0.0000
vt 0.9571 0.4087 0.0000
vt 0.9608 0.4149 0.0000
vt 0.9621 0.4236 0.0000
vt 0.9621 0.6330 0.0000
vt 0.8746 0.8281 0.0000
vt 0.8833 0.8269 0.0000
vt 0.8895 0.8232 0.0000
vt 0.8932 0.8170 0.0000
vt 0.8944 0.8083 0.0000
vt 0.8944 0.7884 0.0000
vt 0.8825 0.7847 0.0000
vt 0.8722 0.7751 0.0000
vt 0.8663 0.7597 0.0000
vt 0.8641 0.7380 0.0000
vt 0.0827 0.0020 0.0000
vt 0.4796 0.0020 0.0000
vt 0.5085 0.0020 0.0000
vt 0.5085 0.6116 0.0000
vt 0.4796 0.6116 0.0000
vt 0.0020 0.0020 0.0000
vt 0.0309 0.0020 0.0000
vt 0.0309 0.6115 0.0000
vt 0.0020 0.6115 0.0000
vt 0.4476 0.0020 0.0000
vt 0.4564 0.0020 0.0000
vt 0.4564 0.6116 0.0000
vt 0.4476 0.6116 0.0000
vt 0.4636 0.0020 0.0000
vt 0.4636 0.6116 0.0000
vt 0.4708 0.0020 0.0000
vt 0.8306 0.4808 0.0000
vt 0.8663 0.7010 0.0000
vt 0.8306 0.5066 0.0000
vt 0.8060 0.5067 0.0000
vt 0.8716 0.6757 0.0000
vt 0.8060 0.4808 0.0000
vt 0.8307 0.5820 0.0000
vt 0.8308 0.5961 0.0000
vt 0.8062 0.5962 0.0000
vt 0.8062 0.5820 0.0000
vt 0.8307 0.5438 0.0000
vt 0.8817 0.6548 0.0000
vt 0.8904 0.6445 0.0000
vt 0.8935 0.6387 0.0000
vt 0.8944 0.6330 0.0000
vt 0.9621 0.7885 0.0000
vt 0.8307 0.5655 0.0000
vt 0.8061 0.5656 0.0000
vt 0.8061 0.5438 0.0000
vt 0.8059 0.4442 0.0000
vt 0.8059 0.4376 0.0000
vt 0.8305 0.4376 0.0000
vt 0.8932 0.4149 0.0000
vt 0.8305 0.4441 0.0000
vt 0.8060 0.4577 0.0000
vt 0.8895 0.4087 0.0000
vt 0.8305 0.4576 0.0000
vt 0.8308 0.6086 0.0000
vt 0.8833 0.4050 0.0000
vt 0.8062 0.6087 0.0000
vt 0.8059 0.4318 0.0000
vt 0.8746 0.4037 0.0000
vt 0.8305 0.4318 0.0000
vt 0.4708 0.6116 0.0000
vt 0.9621 0.8083 0.0000
vt 0.9608 0.8170 0.0000
vt 0.2382 0.6116 0.0000
vt 0.2382 0.5870 0.0000
vt 0.9571 0.8232 0.0000
vt 0.0541 0.6116 0.0000
vt 0.0541 0.0020 0.0000
vt 0.8457 0.4037 0.0000
vt 0.0469 0.6116 0.0000
vt 0.8457 0.8281 0.0000
vt 0.0469 0.0020 0.0000
vt 0.0397 0.6116 0.0000
vt 0.0397 0.0020 0.0000
vt 0.0827 0.6116 0.0000
vt 0.2382 0.0020 0.0000
vt 0.7578 0.4544 0.0000
vt 0.7587 0.4602 0.0000
vt 0.7578 0.6099 0.0000
vt 0.7859 0.5811 0.0000
vt 0.7800 0.5965 0.0000
vt 0.7697 0.6061 0.0000
vt 0.7859 0.5224 0.0000
vt 0.7881 0.5595 0.0000
vt 0.7705 0.4763 0.0000
vt 0.7806 0.4971 0.0000
vt 0.7619 0.4659 0.0000
vt 0.8944 0.4236 0.0000
vt 0.9422 0.4037 0.0000
vt 0.9509 0.4050 0.0000
vt 0.9287 0.8874 0.0000
vt 0.9287 0.8980 0.0000
vt 0.9287 0.9085 0.0000
vt 0.9287 0.9191 0.0000
vt 0.9287 0.9297 0.0000
vt 0.9287 0.9402 0.0000
vt 0.9287 0.9508 0.0000
vt 0.9287 0.9613 -0.0000
vt 0.9287 0.9719 -0.0000
vt 0.9287 0.9824 0.0000
vt 0.9287 0.8663 -0.0000
vt 0.9287 0.8769 0.0000
vt 0.9135 0.8874 0.0000
vt 0.9135 0.8980 0.0000
vt 0.9135 0.9085 0.0000
vt 0.9135 0.9191 0.0000
vt 0.9135 0.9297 0.0000
vt 0.9135 0.9402 0.0000
vt 0.9135 0.9508 0.0000
vt 0.9135 0.9613 -0.0000
vt 0.9135 0.9719 -0.0000
vt 0.9135 0.9824 0.0000
vt 0.9135 0.8663 -0.0000
vt 0.9135 0.8769 0.0000
vt 0.9287 0.9930 -0.0000
vt 0.9135 0.9930 -0.0000
vt 0.7891 0.4207 0.0000
vt 0.7867 0.4296 0.0000
vt 0.7802 0.4361 0.0000
vt 0.7713 0.4385 0.0000
vt 0.7624 0.4361 0.0000
vt 0.7559 0.4296 0.0000
vt 0.7536 0.4207 0.0000
vt 0.7559 0.4119 0.0000
vt 0.7624 0.4054 0.0000
vt 0.7713 0.4030 0.0000
vt 0.7802 0.4054 0.0000
vt 0.7867 0.4119 0.0000
vt 0.9545 0.8872 0.0000
vt 0.9545 0.8978 0.0000
vt 0.9545 0.9083 0.0000
vt 0.9545 0.9189 0.0000
vt 0.9545 0.9295 0.0000
vt 0.9545 0.9400 0.0000
vt 0.9545 0.9506 0.0000
vt 0.9545 0.9611 -0.0000
vt 0.9545 0.9717 -0.0000
vt 0.9545 0.9822 0.0000
vt 0.9545 0.8661 -0.0000
vt 0.9545 0.8767 0.0000
vt 0.9393 0.8872 0.0000
vt 0.9393 0.8978 0.0000
vt 0.9393 0.9083 0.0000
vt 0.9393 0.9189 0.0000
vt 0.9393 0.9295 0.0000
vt 0.9393 0.9400 0.0000
vt 0.9393 0.9506 0.0000
vt 0.9393 0.9611 -0.0000
vt 0.9393 0.9717 -0.0000
vt 0.9393 0.9822 0.0000
vt 0.9393 0.8661 -0.0000
vt 0.9393 0.8767 0.0000
vt 0.9545 0.9928 -0.0000
vt 0.9393 0.9928 -0.0000
vt 0.8782 0.8607 0.0000
vt 0.8758 0.8696 0.0000
vt 0.8693 0.8761 0.0000
vt 0.8604 0.8784 0.0000
vt 0.8515 0.8761 0.0000
vt 0.8450 0.8696 0.0000
vt 0.8426 0.8607 0.0000
vt 0.8450 0.8518 0.0000
vt 0.8515 0.8453 0.0000
vt 0.8604 0.8429 0.0000
vt 0.8693 0.8453 0.0000
vt 0.8758 0.8518 0.0000
vt 0.9287 0.8874 0.0000
vt 0.9287 0.8980 0.0000
vt 0.9135 0.8980 0.0000
vt 0.9135 0.8874 0.0000
vt 0.9287 0.9085 0.0000
vt 0.9135 0.9085 0.0000
vt 0.9287 0.9191 0.0000
vt 0.9135 0.9191 0.0000
vt 0.9287 0.9297 0.0000
vt 0.9135 0.9297 0.0000
vt 0.9287 0.9402 0.0000
vt 0.9135 0.9402 0.0000
vt 0.9287 0.9508 0.0000
vt 0.9135 0.9508 0.0000
vt 0.9287 0.9613 -0.0000
vt 0.9135 0.9613 -0.0000
vt 0.9287 0.9719 -0.0000
vt 0.9135 0.9719 -0.0000
vt 0.9287 0.9824 0.0000
vt 0.9135 0.9824 0.0000
vt 0.9287 0.9930 -0.0000
vt 0.9135 0.9930 -0.0000
vt 0.9287 0.8663 -0.0000
vt 0.9287 0.8769 0.0000
vt 0.9135 0.8769 0.0000
vt 0.9135 0.8663 -0.0000
vt 0.7891 0.4207 0.0000
vt 0.7867 0.4296 0.0000
vt 0.7802 0.4361 0.0000
vt 0.7713 0.4385 0.0000
vt 0.7624 0.4361 0.0000
vt 0.7559 0.4296 0.0000
vt 0.7536 0.4207 0.0000
vt 0.7559 0.4119 0.0000
vt 0.7624 0.4054 0.0000
vt 0.7713 0.4030 0.0000
vt 0.7802 0.4054 0.0000
vt 0.7867 0.4119 0.0000
vt 0.9545 0.8872 0.0000
vt 0.9545 0.8978 0.0000
vt 0.9393 0.8978 0.0000
vt 0.9393 0.8872 0.0000
vt 0.9545 0.9083 0.0000
vt 0.9393 0.9083 0.0000
vt 0.9545 0.9189 0.0000
vt 0.9393 0.9189 0.0000
vt 0.9545 0.9295 0.0000
vt 0.9393 0.9295 0.0000
vt 0.9545 0.9400 0.0000
vt 0.9393 0.9400 0.0000
vt 0.9545 0.9506 0.0000
vt 0.9393 0.9506 0.0000
vt 0.9545 0.9611 -0.0000
vt 0.9393 0.9611 -0.0000
vt 0.9545 0.9717 -0.0000
vt 0.9393 0.9717 -0.0000
vt 0.9545 0.9822 0.0000
vt 0.9393 0.9822 0.0000
vt 0.9545 0.9928 -0.0000
vt 0.9393 0.9928 -0.0000
vt 0.9545 0.8661 -0.0000
vt 0.9545 0.8767 0.0000
vt 0.9393 0.8767 0.0000
vt 0.9393 0.8661 -0.0000
vt 0.8782 0.8607 0.0000
vt 0.8758 0.8696 0.0000
vt 0.8693 0.8761 0.0000
vt 0.8604 0.8784 0.0000
vt 0.8515 0.8761 0.0000
vt 0.8450 0.8696 0.0000
vt 0.8426 0.8607 0.0000
vt 0.8450 0.8518 0.0000
vt 0.8515 0.8453 0.0000
vt 0.8604 0.8429 0.0000
vt 0.8693 0.8453 0.0000
vt 0.8758 0.8518 0.0000
vt 0.9883 0.9244 -2.7198
vt 0.9883 0.9387 -2.7198
vt 0.9883 0.9530 -2.7198
vt 0.9883 0.7079 2.7198
vt 0.9883 0.7240 -2.7198
vt 0.9883 0.7383 -2.7198
vt 0.9883 0.7526 -2.7198
vt 0.9883 0.7669 -2.7198
vt 0.9734 0.9244 -2.7198
vt 0.9734 0.9387 -2.7198
vt 0.9734 0.9530 -2.7198
vt 0.9734 0.7079 -2.7198
vt 0.9734 0.7240 -2.7198
vt 0.9734 0.7383 -2.7198
vt 0.9734 0.7526 -2.7198
vt 0.9734 0.7669 -2.7198
vt 0.9883 0.9652 2.7198
vt 0.9734 0.9652 -2.7198
vt 0.8461 0.9248 0.0000
vt 0.8465 0.9105 0.0000
vt 0.8540 0.8983 0.0000
vt 0.8647 0.8925 0.0000
vt 0.8808 0.8919 0.0000
vt 0.8930 0.8994 0.0000
vt 0.8998 0.9119 0.0000
vt 0.8994 0.9262 0.0000
vt 0.9882 0.8661 -2.7198
vt 0.9882 0.8746 -2.7198
vt 0.9882 0.8232 -2.7198
vt 0.9882 0.8318 -2.7198
vt 0.9882 0.8404 -2.7198
vt 0.9882 0.8489 -2.7198
vt 0.9882 0.8575 -2.7198
vt 0.9734 0.8661 -2.7198
vt 0.9734 0.8746 -2.7198
vt 0.9734 0.8232 -2.7198
vt 0.9734 0.8318 -2.7198
vt 0.9734 0.8404 -2.7198
vt 0.9734 0.8489 -2.7198
vt 0.9734 0.8575 -2.7198
vt 0.8835 0.9803 0.0000
vt 0.8798 0.9880 0.0000
vt 0.8728 0.9929 0.0000
vt 0.8642 0.9936 0.0000
vt 0.8565 0.9899 0.0000
vt 0.8516 0.9829 0.0000
vt 0.8509 0.9743 0.0000
# 329 texture coords

g mini_fridge
usemtl mini_fridge
s off
f 1/14/1 2/8/1 3/9/1 4/13/1
f 1/5/2 5/1/2 6/3/2 2/4/2
f 5/12/3 1/7/3 4/2/3 7/6/3
f 7/6/4 4/2/4 3/10/4 8/11/4
f 9/16/1 10/15/1 3/18/1 2/17/1
f 9/22/5 2/21/5 6/20/5 11/19/5
f 11/24/6 12/23/6 10/26/6 9/25/6
f 12/23/4 8/28/4 3/27/4 10/26/4
f 7/29/7 12/30/7 13/31/7 14/32/7
s 1
f 15/35/8 16/36/9 17/37/9 18/52/8
f 12/54/6 11/55/6 19/56/10 20/53/11
f 21/58/12 22/59/12 5/60/3 7/57/3
f 23/62/13 24/63/13 25/64/14 26/61/14
f 27/65/15 28/66/16 24/63/13 23/62/13
f 29/67/17 30/101/17 28/66/16 27/65/15
f 20/53/11 19/56/10 30/101/17 29/67/17
f 25/64/14 31/104/8 32/105/8
f 33/108/18 17/37/9 16/36/9 34/107/18
f 35/112/19 33/108/18 34/107/18 36/110/19
f 37/114/20 35/112/19 36/110/19 38/113/20
f 21/58/12 37/114/20 38/113/20 22/59/12
f 39/115/8 16/36/9 15/35/8
s 128
f 40/70/21 41/71/21 42/73/22 43/68/22
f 44/75/23 45/76/23 46/77/24 47/74/24
f 48/84/25 49/85/25 50/86/26 51/78/26
f 51/78/26 50/86/26 41/71/21 40/70/21
f 52/88/27 53/89/27 54/91/28 55/87/28
f 56/92/29 57/94/29 43/68/22 42/73/22
f 48/84/25 47/74/24 46/77/24 49/85/25
f 39/95/30 15/97/30 45/76/23 44/75/23
f 55/87/28 54/91/28 57/94/29 56/92/29
s off
f 32/117/2 52/118/2 15/119/2
s 128
f 32/98/31 31/100/31 53/89/27 52/88/27
s off
f 46/121/2 45/122/2 15/119/2 49/120/2
f 41/123/2 50/124/2 15/119/2
f 50/124/2 49/120/2 15/119/2
f 15/119/2 56/125/2 42/126/2
f 42/126/2 41/123/2 15/119/2
f 15/119/2 52/118/2 55/127/2
f 55/127/2 56/125/2 15/119/2
s 1
f 26/61/14 25/64/14 32/105/8 58/116/8
f 18/52/8 58/116/8 32/105/8 15/35/8
s off
f 38/43/32 36/44/32 34/45/32 16/46/32 39/47/32 44/48/32 47/49/32 48/50/32 51/51/32 40/69/32 43/72/32 57/79/32 54/80/32 53/81/32 31/82/32 25/128/32 24/90/32 28/93/32 30/96/32 19/99/32 11/109/32 5/111/32 22/42/32
f 37/33/4 21/34/4 14/32/4
f 13/31/4 27/38/4 23/39/4
f 26/40/4 58/41/4 13/31/4
f 58/41/33 18/83/33 14/32/33 13/31/33
f 14/32/34 18/83/34 17/102/34
f 21/34/4 7/29/4 14/32/4
f 33/103/4 35/106/4 14/32/4
f 35/106/4 37/33/4 14/32/4
f 14/32/34 17/102/34 33/103/34
f 23/39/4 26/40/4 13/31/4
f 13/31/4 12/30/4 20/129/4
f 29/130/4 27/38/4 13/31/4
f 20/129/4 29/130/4 13/31/4
s 8
f 59/131/35 60/132/36 61/144/36 62/143/35
f 60/132/36 63/133/37 64/145/37 61/144/36
f 63/133/37 65/134/38 66/146/38 64/145/37
f 65/134/38 67/135/39 68/147/39 66/146/38
f 67/135/39 69/136/40 70/148/40 68/147/39
f 69/136/40 71/137/41 72/149/41 70/148/40
f 71/137/41 73/138/42 74/150/42 72/149/41
f 73/138/42 75/139/43 76/151/43 74/150/42
f 75/139/43 77/140/44 78/152/44 76/151/43
f 77/140/44 79/155/45 80/156/45 78/152/44
f 79/141/45 81/142/46 82/154/46 80/153/45
f 81/142/46 59/131/35 62/143/35 82/154/46
s 1
f 78/166/7 80/167/7 82/168/7 62/157/4 61/158/34 64/159/34 66/160/34 68/161/7 70/162/7 72/163/4 74/164/34 76/165/34
s 8
f 83/169/35 84/170/36 85/182/36 86/181/35
f 84/170/36 87/171/37 88/183/37 85/182/36
f 87/171/37 89/172/38 90/184/38 88/183/37
f 89/172/38 91/173/39 92/185/39 90/184/38
f 91/173/39 93/174/40 94/186/40 92/185/39
f 93/174/40 95/175/41 96/187/41 94/186/40
f 95/175/41 97/176/42 98/188/42 96/187/41
f 97/176/42 99/177/43 100/189/43 98/188/42
f 99/177/43 101/178/44 102/190/44 100/189/43
f 101/178/44 103/193/45 104/194/45 102/190/44
f 103/179/45 105/180/46 106/192/46 104/191/45
f 105/180/46 83/169/35 86/181/35 106/192/46
s 1
f 102/204/7 104/205/7 106/206/7 86/195/4 85/196/34 88/197/34 90/198/34 92/199/7 94/200/7 96/201/4 98/202/34 100/203/34
s 8
f 107/207/47 108/210/47 109/209/40 110/208/40
f 110/208/40 109/209/40 111/212/39 112/211/39
f 112/211/39 111/212/39 113/214/48 114/213/48
f 114/213/48 113/214/48 115/216/37 116/215/37
f 116/215/37 115/216/37 117/218/36 118/217/36
f 118/217/36 117/218/36 119/220/49 120/219/49
f 120/219/49 119/220/49 121/222/46 122/221/46
f 122/221/46 121/222/46 123/224/45 124/223/45
f 124/223/45 123/224/45 125/226/50 126/225/50
f 126/225/50 125/226/50 127/228/43 128/227/43
f 128/229/43 127/232/43 129/231/42 130/230/42
f 130/230/42 129/231/42 108/210/47 107/207/47
s 1
f 113/236/34 111/235/7 109/234/7 108/233/4 129/244/34 127/243/34 125/242/7 123/241/7 121/240/7 119/239/4 117/238/34 115/237/34
s 8
f 131/245/47 132/248/47 133/247/40 134/246/40
f 134/246/40 133/247/40 135/250/39 136/249/39
f 136/249/39 135/250/39 137/252/48 138/251/48
f 138/251/48 137/252/48 139/254/37 140/253/37
f 140/253/37 139/254/37 141/256/36 142/255/36
f 142/255/36 141/256/36 143/258/49 144/257/49
f 144/257/49 143/258/49 145/260/46 146/259/46
f 146/259/46 145/260/46 147/262/45 148/261/45
f 148/261/45 147/262/45 149/264/50 150/263/50
f 150/263/50 149/264/50 151/266/43 152/265/43
f 152/267/43 151/270/43 153/269/42 154/268/42
f 154/268/42 153/269/42 132/248/47 131/245/47
s 1
f 137/274/34 135/273/7 133/272/7 132/271/4 153/282/34 151/281/34 149/280/34 147/279/7 145/278/7 143/277/4 141/276/34 139/275/34
s 8
f 155/283/51 156/284/52 157/292/52 158/291/51
f 156/284/52 159/285/53 160/293/53 157/292/52
f 159/285/53 161/299/54 162/300/54 160/293/53
f 161/286/54 163/287/55 164/295/55 162/294/54
f 163/287/55 165/288/56 166/296/56 164/295/55
f 165/288/56 167/289/57 168/297/57 166/296/56
f 167/289/57 169/290/58 170/298/58 168/297/57
s 1
f 166/306/2 168/307/2 170/308/2 158/301/2 157/302/2 160/303/2 162/304/2 164/305/2
s 8
f 171/309/6 172/310/59 173/317/59 174/316/6
f 175/311/19 176/312/60 177/319/60 178/318/19
f 176/312/60 179/313/8 180/320/8 177/319/60
f 179/313/8 181/314/61 182/321/61 180/320/8
f 181/314/61 183/315/62 184/322/62 182/321/61
f 183/315/62 171/309/6 174/316/6 184/322/62
s 1
f 184/327/2 174/328/2 173/329/2 178/323/2 177/324/2 180/325/2 182/326/2
s off
f 158/301/2 170/308/2 178/323/2 173/329/2
f 169/290/63 175/311/63 178/318/63 170/298/63
f 158/291/64 173/317/64 172/310/64 155/283/64
# 105 polygons - 21 triangles

