# 3ds Max Wavefront OBJ Exporter v0.97b - (c)2007 guruware
# File Created: 08.02.2018 16:25:35

mtllib conference_table_large.mtl

#
# object conference_table_large
#

v  -134.1828 -60.0000 73.6000
v  -134.1828 60.0000 73.6000
v  -224.1828 60.0000 73.6000
v  -224.1828 -60.0000 73.6000
v  -134.1828 -60.0000 67.1411
v  -224.1828 -60.0000 67.1411
v  -224.1828 60.0000 67.1411
v  -197.8826 23.9999 67.1411
v  -197.8826 -23.9999 67.1411
v  -134.1828 60.0000 67.1411
v  -134.1828 23.9999 67.1411
v  -197.8826 23.9999 0.0000
v  -197.8826 -23.9999 0.0000
v  -134.1828 23.9999 0.0000
v  -44.7964 60.0000 73.6000
v  -44.7964 60.0000 67.1411
v  -134.1828 -23.9999 67.1411
v  -44.7964 -23.9999 67.1411
v  -44.7964 -60.0000 67.1411
v  -134.1828 -23.9999 0.0000
v  -44.7964 -23.9999 0.0000
v  -44.7964 -60.0000 73.6000
v  -44.7964 23.9999 67.1411
v  -44.7964 23.9999 0.0000
v  44.6740 60.0000 73.6000
v  44.6740 60.0000 67.1411
v  44.6740 -23.9999 67.1411
v  44.6740 -60.0000 67.1411
v  44.6740 -23.9999 0.0000
v  44.6740 -60.0000 73.6000
v  44.6740 23.9999 67.1411
v  44.6740 23.9999 0.0000
v  134.0999 60.0000 73.6000
v  134.0999 60.0000 67.1411
v  134.0999 -23.9999 67.1411
v  134.0999 -60.0000 67.1411
v  134.0999 -23.9999 0.0000
v  134.0999 -60.0000 73.6000
v  134.0999 23.9999 67.1411
v  134.0999 23.9999 0.0000
v  224.1828 -60.0000 67.1411
v  224.1828 60.0000 67.1411
v  224.1828 60.0000 73.6000
v  224.1828 -60.0000 73.6000
v  197.8826 -23.9999 67.1411
v  197.8826 23.9999 67.1411
v  197.8826 -23.9999 0.0000
v  197.8826 23.9999 0.0000
# 48 vertices

vn 0.0000 0.0000 1.0000
vn 0.0000 -1.0000 0.0000
vn -1.0000 0.0000 0.0000
vn 0.0000 0.0000 -1.0000
vn 0.0000 1.0000 0.0000
vn 1.0000 0.0000 0.0000
# 6 vertex normals

vt 1.0000 -0.0000 0.0000
vt 1.0000 0.5000 0.0000
vt 1.0000 0.9993 0.0000
vt 0.4989 0.9636 0.0000
vt 0.0014 0.9636 0.0000
vt 0.0014 0.9636 0.0000
vt 0.4989 0.9636 0.0000
vt 0.0014 0.9636 0.0000
vt 0.4989 0.9636 0.0000
vt 0.4989 0.9999 0.0000
vt 0.0014 0.9999 0.0000
vt 0.5007 0.9993 0.0000
vt 0.4989 0.4993 0.0000
vt 0.4989 0.4993 0.0000
vt 0.0014 0.9636 0.0000
vt 0.5007 0.5000 0.0000
vt 0.4989 0.9636 0.0000
vt 0.0014 0.4993 0.0000
vt 0.4989 0.9999 0.0000
vt 0.4989 0.9636 0.0000
vt 0.4989 0.4993 0.0000
vt 0.0014 0.9636 0.0000
vt 0.0014 0.9999 0.0000
vt 0.0014 0.4993 0.0000
vt 0.4989 0.4993 0.0000
vt 0.4989 -0.0000 0.0000
vt 0.0014 -0.0000 0.0000
vt 0.4989 0.4993 0.0000
vt 0.4989 0.0000 0.0000
vt 0.0014 0.0000 0.0000
vt 0.0014 0.4993 0.0000
vt 0.0014 0.0000 0.0000
vt 0.4989 0.0000 0.0000
vt 0.0014 0.4993 0.0000
vt 0.0014 0.0000 0.0000
vt 0.4989 0.0000 0.0000
vt 0.0014 0.4993 0.0000
vt 0.0014 -0.0000 0.0000
vt 0.4989 -0.0000 0.0000
vt 0.4989 0.5009 0.0000
vt 0.0014 0.5009 0.0000
vt 0.4989 0.5009 0.0000
vt 0.0014 0.5009 0.0000
vt 0.0014 0.5009 0.0000
vt 0.4989 0.5009 0.0000
vt 0.0014 0.5009 0.0000
vt 0.4989 0.5009 0.0000
vt 0.0014 0.5009 0.0000
vt 0.4989 0.5009 0.0000
vt 0.0014 0.9999 0.0000
vt 0.4989 0.9999 0.0000
vt 0.0014 0.9999 0.0000
vt 0.4989 0.9999 0.0000
vt 0.4989 0.9999 0.0000
vt 0.0014 0.9999 0.0000
vt 0.5007 -0.0000 0.0000
vt 0.0014 0.9636 0.0000
vt 0.4989 0.9636 0.0000
vt 0.4989 0.9999 0.0000
vt 0.0014 0.9999 0.0000
vt 0.0014 0.9636 0.0000
vt 0.4989 0.9636 0.0000
vt 0.4989 0.5009 0.0000
vt 0.0014 0.5009 0.0000
vt 0.4989 0.4993 0.0000
vt 0.0014 0.4993 0.0000
vt 0.0014 -0.0000 0.0000
vt 0.4989 -0.0000 0.0000
vt 1.0000 0.5000 0.0000
vt 1.0000 0.9993 0.0000
vt 0.5007 0.9993 0.0000
vt 0.5007 0.5000 0.0000
vt 0.0014 0.9999 0.0000
vt 0.4989 0.9999 0.0000
vt 0.0014 0.5009 0.0000
vt 0.4989 0.5009 0.0000
vt 0.0014 0.4993 0.0000
vt 0.4989 0.4993 0.0000
vt 0.4989 -0.0000 0.0000
vt 0.0014 -0.0000 0.0000
vt 0.0014 0.9636 0.0000
vt 0.4989 0.9636 0.0000
vt 0.4989 0.9999 0.0000
vt 0.0014 0.9999 0.0000
vt 0.0014 0.9636 0.0000
vt 0.4989 0.9636 0.0000
vt 0.4989 0.5009 0.0000
vt 0.0014 0.5009 0.0000
vt 0.4989 0.4993 0.0000
vt 0.0014 0.4993 0.0000
vt 0.0014 -0.0000 0.0000
vt 0.4989 -0.0000 0.0000
vt 1.0000 0.5000 0.0000
vt 1.0000 0.9993 0.0000
vt 0.5007 0.9993 0.0000
vt 0.5007 0.5000 0.0000
vt 0.0014 0.9999 0.0000
vt 0.4989 0.9999 0.0000
vt 0.0014 0.5009 0.0000
vt 0.4989 0.5009 0.0000
vt 0.0014 0.4993 0.0000
vt 0.4989 0.4993 0.0000
vt 0.4989 -0.0000 0.0000
vt 0.0014 -0.0000 0.0000
vt 0.0014 0.9636 0.0000
vt 0.4989 0.9636 0.0000
vt 0.0014 0.9636 0.0000
vt 0.0014 0.9999 0.0000
vt 0.4989 0.9999 0.0000
vt 0.0014 0.9636 0.0000
vt 0.0014 0.9999 0.0000
vt 0.0014 0.4993 0.0000
vt 0.4989 0.4993 0.0000
vt 1.0000 -0.0000 0.0000
vt 0.4989 0.4993 0.0000
vt 0.4989 0.4993 0.0000
vt 0.4989 0.0000 0.0000
vt 0.4989 0.0000 0.0000
vt 0.4989 0.0000 0.0000
vt 0.0014 0.0000 0.0000
vt 0.0014 0.5009 0.0000
vt 0.0014 0.5009 0.0000
vt 0.4989 0.5009 0.0000
vt 0.0014 0.5009 0.0000
vt 0.0014 0.9999 0.0000
vt 0.5007 -0.0000 0.0000
vt 0.4989 0.9636 0.0000
vt 0.4989 0.9999 0.0000
vt 0.5007 0.5000 0.0000
vt 0.4989 0.9636 0.0000
vt 0.0014 0.4993 0.0000
vt 0.4989 0.5009 0.0000
vt 0.0014 0.0000 0.0000
vt 1.0000 0.5000 0.0000
vt 0.4989 0.9999 0.0000
vt 0.4989 0.5009 0.0000
vt 0.0014 0.4993 0.0000
vt 0.0014 0.0000 0.0000
# 138 texture coords

g conference_table_large
usemtl conference_table
s 4
f 1/2/1 2/16/1 3/56/1 4/1/1
s 8
f 5/5/2 1/50/2 4/51/2 6/4/2
s 64
f 7/8/3 6/9/3 4/10/3 3/11/3
s off
f 6/9/4 7/8/4 8/48/4 9/49/4
f 10/6/4 11/46/4 8/47/4 7/7/4
f 9/14/3 8/31/3 12/32/3 13/33/3
f 11/28/5 14/29/5 12/30/5 8/24/5
s 32
f 10/17/5 2/54/5 15/55/5 16/15/5
s off
f 5/20/4 17/42/4 18/43/4 19/22/4
f 17/37/2 20/38/2 21/39/2 18/21/2
s 4
f 22/3/1 15/12/1 2/16/1 1/2/1
s 8
f 19/22/2 22/52/2 1/53/2 5/20/2
s off
f 16/15/4 23/44/4 11/45/4 10/17/4
f 23/25/5 24/26/5 14/27/5 11/18/5
s 32
f 7/7/5 3/19/5 2/23/5 10/6/5
s off
f 5/5/4 6/4/4 9/40/4 17/41/4
f 9/34/2 13/35/2 20/36/2 17/13/2
s 32
f 16/58/5 15/59/5 25/60/5 26/57/5
s off
f 19/62/4 18/63/4 27/64/4 28/61/4
f 18/66/2 21/67/2 29/68/2 27/65/2
s 4
f 30/70/1 25/71/1 15/72/1 22/69/1
s 8
f 28/61/2 30/73/2 22/74/2 19/62/2
s off
f 26/57/4 31/75/4 23/76/4 16/58/4
f 31/78/5 32/79/5 24/80/5 23/77/5
s 32
f 26/82/5 25/83/5 33/84/5 34/81/5
s off
f 28/86/4 27/87/4 35/88/4 36/85/4
f 27/90/2 29/91/2 37/92/2 35/89/2
s 4
f 38/94/1 33/95/1 25/96/1 30/93/1
s 8
f 36/85/2 38/97/2 30/98/2 28/86/2
s off
f 34/81/4 39/99/4 31/100/4 26/82/4
f 39/102/5 40/103/5 32/104/5 31/101/5
s 16
f 41/106/6 42/107/6 43/108/6 44/109/6
s 32
f 34/127/5 33/128/5 43/125/5 42/110/5
s off
f 42/107/4 41/106/4 45/123/4 46/124/4
f 36/130/4 35/132/4 45/121/4 41/105/4
f 46/112/6 45/113/6 47/119/6 48/120/6
f 35/131/2 37/133/2 47/118/2 45/115/2
s 4
f 44/114/1 43/126/1 33/129/1 38/134/1
s 8
f 41/105/2 44/111/2 38/135/2 36/130/2
s off
f 34/127/4 42/110/4 46/122/4 39/136/4
f 46/116/5 48/117/5 40/138/5 39/137/5
# 41 polygons

