# 3ds Max Wavefront OBJ Exporter v0.97b - (c)2007 guruware
# File Created: 05.02.2018 19:45:53

mtllib reception_desk.mtl

#
# object Reception_Desk
#

v  0.0000 -146.8434 100.8038
v  -25.4991 -144.6125 100.8038
v  -25.4991 -144.6125 0.0000
v  0.0000 -146.8434 0.0000
v  0.0000 -164.9042 106.7559
v  0.0000 -127.2727 106.7559
v  -22.1007 -125.3391 106.7559
v  -28.6353 -162.3990 106.7559
v  0.0000 -127.2727 0.0000
v  -22.1007 -125.3391 0.0000
v  -50.2234 -137.9876 100.8038
v  -50.2234 -137.9876 0.0000
v  -43.5298 -119.5972 106.7559
v  -56.4005 -154.9593 106.7559
v  -43.5298 -119.5972 0.0000
v  -73.4217 -127.1701 100.8038
v  -73.4217 -127.1701 0.0000
v  -63.6363 -110.2214 106.7559
v  -82.4521 -142.8113 106.7559
v  -63.6363 -110.2214 0.0000
v  -94.3891 -112.4886 100.8038
v  -94.3891 -112.4886 0.0000
v  -81.8093 -97.4965 106.7559
v  -105.9984 -126.3240 106.7559
v  -81.8093 -97.4965 0.0000
v  -112.4885 -94.3891 100.8038
v  -112.4885 -94.3891 0.0000
v  -97.4965 -81.8093 106.7559
v  -126.3239 -105.9984 106.7559
v  -97.4965 -81.8093 0.0000
v  -127.1700 -73.4217 100.8038
v  -127.1700 -73.4217 0.0000
v  -110.2214 -63.6364 106.7559
v  -142.8112 -82.4521 106.7559
v  -110.2214 -63.6364 0.0000
v  -137.9876 -50.2234 100.8038
v  -137.9876 -50.2234 0.0000
v  -119.5972 -43.5299 106.7559
v  -154.9593 -56.4006 106.7559
v  -119.5972 -43.5299 0.0000
v  -28.6353 -162.3990 100.8038
v  0.0000 -164.9042 100.8038
v  -56.4005 -154.9593 100.8038
v  -82.4521 -142.8113 100.8038
v  -105.9984 -126.3240 100.8038
v  -126.3239 -105.9984 100.8038
v  -142.8112 -82.4521 100.8038
v  -154.9593 -56.4006 100.8038
v  0.0000 -101.0906 76.1160
v  0.0000 -101.0906 73.6000
v  -17.5542 -99.5548 73.6000
v  -17.5542 -99.5548 76.1160
v  0.0000 -130.0868 73.6000
v  -22.5893 -128.1105 73.6000
v  -34.5750 -94.9941 73.6000
v  -34.5750 -94.9941 76.1160
v  -44.4923 -122.2416 73.6000
v  -50.5453 -87.5471 73.6000
v  -50.5453 -87.5471 76.1160
v  -65.0434 -112.6585 73.6000
v  -64.9798 -77.4399 73.6000
v  -64.9798 -77.4399 76.1160
v  -83.6181 -99.6523 73.6000
v  -77.4399 -64.9798 73.6000
v  -77.4399 -64.9798 76.1160
v  -99.6522 -83.6182 73.6000
v  -87.5470 -50.5453 73.6000
v  -87.5470 -50.5453 76.1160
v  -112.6584 -65.0434 73.6000
v  -94.9941 -34.5751 73.6000
v  -94.9941 -34.5751 76.1160
v  -122.2416 -44.4923 73.6000
v  -156.4334 -52.9380 107.3440
v  -153.8686 -59.9859 107.3440
v  -117.0313 -46.5802 107.3440
v  -119.5961 -39.5324 107.3440
v  -156.4334 -52.9380 0.0000
v  -153.8686 -59.9859 0.0000
v  -117.0313 -46.5802 77.8244
v  -94.3384 -30.3407 0.0000
v  -94.3384 -30.3407 77.8244
v  -91.7736 -37.3885 77.8244
v  -91.7736 -37.3885 0.0000
v  -119.5961 -39.5324 77.8244
v  0.0000 -153.5624 0.0000
v  0.0000 -153.5624 102.9793
v  -3.7500 -153.5624 102.9793
v  -3.7500 -153.5624 0.0000
v  -3.7500 -146.0624 0.0000
v  -3.7500 -146.0624 102.9793
v  -22.5893 -128.1105 76.1160
v  0.0000 -130.0868 76.1160
v  -44.4923 -122.2416 76.1160
v  -65.0434 -112.6585 76.1160
v  -83.6181 -99.6523 76.1160
v  -99.6522 -83.6182 76.1160
v  -112.6584 -65.0434 76.1160
v  -122.2416 -44.4923 76.1160
v  25.4991 -144.6125 0.0000
v  25.4991 -144.6125 100.8038
v  28.6353 -162.3990 106.7559
v  22.1007 -125.3391 106.7559
v  22.1007 -125.3391 0.0000
v  50.2234 -137.9876 0.0000
v  50.2234 -137.9876 100.8038
v  56.4005 -154.9593 106.7559
v  43.5298 -119.5972 106.7559
v  43.5298 -119.5972 0.0000
v  73.4217 -127.1701 0.0000
v  73.4217 -127.1701 100.8038
v  82.4521 -142.8113 106.7559
v  63.6363 -110.2214 106.7559
v  63.6363 -110.2214 0.0000
v  94.3891 -112.4886 0.0000
v  94.3891 -112.4886 100.8038
v  105.9984 -126.3240 106.7559
v  81.8093 -97.4965 106.7559
v  81.8093 -97.4965 0.0000
v  112.4885 -94.3891 0.0000
v  112.4885 -94.3891 100.8038
v  126.3239 -105.9984 106.7559
v  97.4965 -81.8093 106.7559
v  97.4965 -81.8093 0.0000
v  127.1700 -73.4217 0.0000
v  127.1700 -73.4217 100.8038
v  142.8112 -82.4521 106.7559
v  110.2214 -63.6364 106.7559
v  110.2214 -63.6364 0.0000
v  137.9876 -50.2234 0.0000
v  137.9876 -50.2234 100.8038
v  154.9593 -56.4006 106.7559
v  119.5972 -43.5299 106.7559
v  119.5972 -43.5299 0.0000
v  28.6353 -162.3990 100.8038
v  56.4005 -154.9593 100.8038
v  82.4521 -142.8113 100.8038
v  105.9984 -126.3240 100.8038
v  126.3239 -105.9984 100.8038
v  142.8112 -82.4521 100.8038
v  154.9593 -56.4006 100.8038
v  17.5542 -99.5548 76.1160
v  17.5542 -99.5548 73.6000
v  22.5893 -128.1105 73.6000
v  34.5750 -94.9941 76.1160
v  34.5750 -94.9941 73.6000
v  44.4923 -122.2416 73.6000
v  50.5453 -87.5471 76.1160
v  50.5453 -87.5471 73.6000
v  65.0434 -112.6585 73.6000
v  64.9798 -77.4399 76.1160
v  64.9798 -77.4399 73.6000
v  83.6181 -99.6523 73.6000
v  77.4399 -64.9798 76.1160
v  77.4399 -64.9798 73.6000
v  99.6522 -83.6182 73.6000
v  87.5470 -50.5453 76.1160
v  87.5470 -50.5453 73.6000
v  112.6584 -65.0434 73.6000
v  94.9941 -34.5751 76.1160
v  94.9941 -34.5751 73.6000
v  122.2416 -44.4923 73.6000
v  156.4334 -52.9380 107.3440
v  119.5961 -39.5324 107.3440
v  117.0313 -46.5802 107.3440
v  153.8686 -59.9859 107.3440
v  156.4334 -52.9380 0.0000
v  153.8686 -59.9859 0.0000
v  117.0313 -46.5802 77.8244
v  94.3384 -30.3407 0.0000
v  91.7736 -37.3885 0.0000
v  91.7736 -37.3885 77.8244
v  94.3384 -30.3407 77.8244
v  119.5961 -39.5324 77.8244
v  3.7500 -153.5624 0.0000
v  3.7500 -153.5624 102.9793
v  3.7500 -146.0624 0.0000
v  3.7500 -146.0624 102.9793
v  22.5893 -128.1105 76.1160
v  44.4923 -122.2416 76.1160
v  65.0434 -112.6585 76.1160
v  83.6181 -99.6523 76.1160
v  99.6522 -83.6182 76.1160
v  112.6584 -65.0434 76.1160
v  122.2416 -44.4923 76.1160
# 184 vertices

vn 0.0000 -1.0000 0.0000
vn -0.1736 -0.9848 0.0000
vn 0.0000 0.0000 1.0000
vn 0.0000 1.0000 0.0000
vn 0.1736 0.9848 0.0000
vn -0.3420 -0.9397 0.0000
vn 0.3420 0.9397 0.0000
vn -0.5000 -0.8660 0.0000
vn 0.5000 0.8660 0.0000
vn -0.6428 -0.7660 0.0000
vn 0.6428 0.7660 0.0000
vn -0.7660 -0.6428 0.0000
vn 0.7660 0.6428 0.0000
vn -0.8660 -0.5000 0.0000
vn 0.8660 0.5000 0.0000
vn -0.9063 -0.4226 0.0000
vn 0.9063 0.4226 0.0000
vn 0.0000 0.0000 -1.0000
vn -0.9397 -0.3420 0.0000
vn 0.3420 -0.9397 0.0000
vn 0.9397 0.3420 0.0000
vn -0.3420 0.9397 0.0000
vn 0.3420 -0.9397 -0.0000
vn -1.0000 0.0000 0.0000
vn 0.1736 -0.9848 0.0000
vn -0.1736 0.9848 0.0000
vn 0.5000 -0.8660 0.0000
vn -0.5000 0.8660 0.0000
vn 0.6428 -0.7660 0.0000
vn -0.6428 0.7660 0.0000
vn 0.7660 -0.6428 0.0000
vn -0.7660 0.6428 0.0000
vn 0.8660 -0.5000 0.0000
vn -0.8660 0.5000 0.0000
vn 0.9063 -0.4226 0.0000
vn -0.9063 0.4226 0.0000
vn 0.9397 -0.3420 0.0000
vn -0.9397 0.3420 0.0000
vn -0.3420 -0.9397 -0.0000
vn 1.0000 0.0000 0.0000
# 40 vertex normals

vt 0.4101 0.0031 0.0000
vt 0.5308 0.0031 0.0000
vt 0.9295 0.0031 0.0000
vt 0.4101 0.0869 0.0000
vt 0.5308 0.0869 0.0000
vt 0.9295 0.0869 0.0000
vt 0.4101 0.1706 0.0000
vt 0.5308 0.1706 0.0000
vt 0.9295 0.1706 0.0000
vt 0.4101 0.2544 0.0000
vt 0.5308 0.2544 0.0000
vt 0.9295 0.2544 0.0000
vt 0.4101 0.3382 0.0000
vt 0.5308 0.3382 0.0000
vt 0.9295 0.3382 0.0000
vt 0.4101 0.4220 0.0000
vt 0.5308 0.4220 0.0000
vt 0.9295 0.4220 0.0000
vt 0.4101 0.5057 0.0000
vt 0.5308 0.5057 0.0000
vt 0.9295 0.5057 0.0000
vt 0.3319 0.0031 0.0000
vt 0.4101 0.5895 0.0000
vt 0.5308 0.5895 0.0000
vt 0.9295 0.5895 0.0000
vt 0.3793 0.7407 0.0000
vt 0.3319 0.0869 0.0000
vt 0.3319 0.1706 0.0000
vt 0.3319 0.2544 0.0000
vt 0.3319 0.3382 0.0000
vt 0.3319 0.4220 0.0000
vt 0.3319 0.5057 0.0000
vt 0.3319 0.5895 0.0000
vt 0.3934 0.0031 0.0000
vt 0.3934 0.0869 0.0000
vt 0.3934 0.1706 0.0000
vt 0.3934 0.2544 0.0000
vt 0.3934 0.3382 0.0000
vt 0.3934 0.4220 0.0000
vt 0.3934 0.5057 0.0000
vt 0.3934 0.5895 0.0000
vt 0.4697 0.6972 0.0000
vt 0.4697 0.7178 0.0000
vt 0.4033 0.6972 0.0000
vt 0.4033 0.7178 0.0000
vt 0.3369 0.6972 0.0000
vt 0.3369 0.7178 0.0000
vt 0.2706 0.6972 0.0000
vt 0.2706 0.7178 0.0000
vt 0.2042 0.6972 0.0000
vt 0.2042 0.7178 0.0000
vt 0.1378 0.6972 0.0000
vt 0.1378 0.7178 0.0000
vt 0.0714 0.6972 0.0000
vt 0.0714 0.7178 0.0000
vt 0.0050 0.6972 0.0000
vt 0.0050 0.7178 0.0000
vt 0.9789 0.5676 0.0000
vt 0.9531 0.5676 0.0000
vt 0.9531 0.4312 0.0000
vt 0.9789 0.4312 0.0000
vt 0.9789 0.9369 0.0000
vt 0.9531 0.9369 0.0000
vt 0.9531 0.0001 0.0000
vt 0.9789 0.0001 0.0000
vt 0.6333 0.9981 0.0000
vt 0.4984 0.7303 0.0000
vt 0.4984 0.6288 0.0000
vt 0.9789 0.2547 0.0000
vt 0.9531 0.2547 0.0000
vt 0.6333 0.6288 0.0000
vt 0.8846 0.6081 0.0000
vt 0.8846 0.9775 0.0000
vt 0.7497 0.9775 0.0000
vt 0.9789 0.3388 0.0000
vt 0.9531 0.3388 0.0000
vt 0.7497 0.8759 0.0000
vt 0.9286 0.6054 0.0000
vt 0.9415 0.6054 0.0000
vt 0.9415 0.9597 0.0000
vt 0.9286 0.9597 0.0000
vt 0.9028 0.6054 0.0000
vt 0.9028 0.9597 0.0000
vt 0.6573 0.8759 0.0000
vt 0.6573 0.6081 0.0000
vt 0.4059 0.9981 0.0000
vt 0.4059 0.7303 0.0000
vt 0.0020 0.0031 0.0000
vt 0.3258 0.7407 0.0000
vt 0.0020 0.0869 0.0000
vt 0.2724 0.7407 0.0000
vt 0.0020 0.1706 0.0000
vt 0.2190 0.7407 0.0000
vt 0.0020 0.2544 0.0000
vt 0.1656 0.7407 0.0000
vt 0.0020 0.3382 0.0000
vt 0.1122 0.7407 0.0000
vt 0.0020 0.4220 0.0000
vt 0.0588 0.7407 0.0000
vt 0.0020 0.5057 0.0000
vt 0.0053 0.7407 0.0000
vt 0.0020 0.5895 0.0000
vt 0.4697 0.5998 0.0000
vt 0.3793 0.8191 0.0000
vt 0.4033 0.5998 0.0000
vt 0.3258 0.8191 0.0000
vt 0.3369 0.5998 0.0000
vt 0.2724 0.8191 0.0000
vt 0.2706 0.5998 0.0000
vt 0.2190 0.8191 0.0000
vt 0.2042 0.5998 0.0000
vt 0.1656 0.8191 0.0000
vt 0.1378 0.5998 0.0000
vt 0.1122 0.8191 0.0000
vt 0.0714 0.5998 0.0000
vt 0.0588 0.8191 0.0000
vt 0.0050 0.5998 0.0000
vt 0.0053 0.8191 0.0000
vt 0.0020 0.0031 0.0000
vt 0.3319 0.0031 0.0000
vt 0.3319 0.0869 0.0000
vt 0.0020 0.0869 0.0000
vt 0.4101 0.0031 0.0000
vt 0.5308 0.0031 0.0000
vt 0.5308 0.0869 0.0000
vt 0.4101 0.0869 0.0000
vt 0.9295 0.0031 0.0000
vt 0.9295 0.0869 0.0000
vt 0.3319 0.1706 0.0000
vt 0.0020 0.1706 0.0000
vt 0.5308 0.1706 0.0000
vt 0.4101 0.1706 0.0000
vt 0.9295 0.1706 0.0000
vt 0.3319 0.2544 0.0000
vt 0.0020 0.2544 0.0000
vt 0.5308 0.2544 0.0000
vt 0.4101 0.2544 0.0000
vt 0.9295 0.2544 0.0000
vt 0.3319 0.3382 0.0000
vt 0.0020 0.3382 0.0000
vt 0.5308 0.3382 0.0000
vt 0.4101 0.3382 0.0000
vt 0.9295 0.3382 0.0000
vt 0.3319 0.4220 0.0000
vt 0.0020 0.4220 0.0000
vt 0.5308 0.4220 0.0000
vt 0.4101 0.4220 0.0000
vt 0.9295 0.4220 0.0000
vt 0.3319 0.5057 0.0000
vt 0.0020 0.5057 0.0000
vt 0.5308 0.5057 0.0000
vt 0.4101 0.5057 0.0000
vt 0.9295 0.5057 0.0000
vt 0.3319 0.5895 0.0000
vt 0.0020 0.5895 0.0000
vt 0.5308 0.5895 0.0000
vt 0.4101 0.5895 0.0000
vt 0.9295 0.5895 0.0000
vt 0.3934 0.0031 0.0000
vt 0.3934 0.0869 0.0000
vt 0.3934 0.1706 0.0000
vt 0.3934 0.2544 0.0000
vt 0.3934 0.3382 0.0000
vt 0.3934 0.4220 0.0000
vt 0.3934 0.5057 0.0000
vt 0.3934 0.5895 0.0000
vt 0.4697 0.6972 0.0000
vt 0.4697 0.7178 0.0000
vt 0.4033 0.7178 0.0000
vt 0.4033 0.6972 0.0000
vt 0.3793 0.7407 0.0000
vt 0.3793 0.8191 0.0000
vt 0.3258 0.8191 0.0000
vt 0.3258 0.7407 0.0000
vt 0.3369 0.7178 0.0000
vt 0.3369 0.6972 0.0000
vt 0.2724 0.8191 0.0000
vt 0.2724 0.7407 0.0000
vt 0.2706 0.7178 0.0000
vt 0.2706 0.6972 0.0000
vt 0.2190 0.8191 0.0000
vt 0.2190 0.7407 0.0000
vt 0.2042 0.7178 0.0000
vt 0.2042 0.6972 0.0000
vt 0.1656 0.8191 0.0000
vt 0.1656 0.7407 0.0000
vt 0.1378 0.7178 0.0000
vt 0.1378 0.6972 0.0000
vt 0.1122 0.8191 0.0000
vt 0.1122 0.7407 0.0000
vt 0.0714 0.7178 0.0000
vt 0.0714 0.6972 0.0000
vt 0.0588 0.8191 0.0000
vt 0.0588 0.7407 0.0000
vt 0.0050 0.7178 0.0000
vt 0.0050 0.6972 0.0000
vt 0.0053 0.8191 0.0000
vt 0.0053 0.7407 0.0000
vt 0.9789 0.5676 0.0000
vt 0.9531 0.5676 0.0000
vt 0.9531 0.4312 0.0000
vt 0.9789 0.4312 0.0000
vt 0.9789 0.9369 0.0000
vt 0.9531 0.9369 0.0000
vt 0.6333 0.9981 0.0000
vt 0.4984 0.7303 0.0000
vt 0.4984 0.6288 0.0000
vt 0.6333 0.6288 0.0000
vt 0.9531 0.0001 0.0000
vt 0.9789 0.0001 0.0000
vt 0.9789 0.2547 0.0000
vt 0.9531 0.2547 0.0000
vt 0.8846 0.6081 0.0000
vt 0.8846 0.9775 0.0000
vt 0.7497 0.9775 0.0000
vt 0.7497 0.8759 0.0000
vt 0.9789 0.3388 0.0000
vt 0.9531 0.3388 0.0000
vt 0.6573 0.8759 0.0000
vt 0.6573 0.6081 0.0000
vt 0.4059 0.9981 0.0000
vt 0.4059 0.7303 0.0000
vt 0.9286 0.6054 0.0000
vt 0.9415 0.6054 0.0000
vt 0.9415 0.9597 0.0000
vt 0.9286 0.9597 0.0000
vt 0.9028 0.6054 0.0000
vt 0.9028 0.9597 0.0000
vt 0.4697 0.5998 0.0000
vt 0.4033 0.5998 0.0000
vt 0.3369 0.5998 0.0000
vt 0.2706 0.5998 0.0000
vt 0.2042 0.5998 0.0000
vt 0.1378 0.5998 0.0000
vt 0.0714 0.5998 0.0000
vt 0.0050 0.5998 0.0000
# 236 texture coords

g Reception_Desk
usemtl reception_desk
s 2
f 1/22/1 2/27/2 3/90/2 4/88/1
s 4
f 5/1/3 6/2/3 7/5/3 8/4/3
s 2
f 6/2/4 9/3/4 10/6/5 7/5/5
f 2/27/2 11/28/6 12/92/6 3/90/2
s 4
f 8/4/3 7/5/3 13/8/3 14/7/3
s 2
f 7/5/5 10/6/5 15/9/7 13/8/7
f 11/28/6 16/29/8 17/94/8 12/92/6
s 4
f 14/7/3 13/8/3 18/11/3 19/10/3
s 2
f 13/8/7 15/9/7 20/12/9 18/11/9
f 16/29/8 21/30/10 22/96/10 17/94/8
s 4
f 19/10/3 18/11/3 23/14/3 24/13/3
s 2
f 18/11/9 20/12/9 25/15/11 23/14/11
f 21/30/10 26/31/12 27/98/12 22/96/10
s 4
f 24/13/3 23/14/3 28/17/3 29/16/3
s 2
f 23/14/11 25/15/11 30/18/13 28/17/13
f 26/31/12 31/32/14 32/100/14 27/98/12
s 4
f 29/16/3 28/17/3 33/20/3 34/19/3
s 2
f 28/17/13 30/18/13 35/21/15 33/20/15
f 31/32/14 36/33/16 37/102/16 32/100/14
s 4
f 34/19/3 33/20/3 38/24/3 39/23/3
s 2
f 33/20/15 35/21/15 40/25/17 38/24/17
f 5/1/1 8/4/2 41/35/2 42/34/1
f 8/4/2 14/7/6 43/36/6 41/35/2
f 14/7/6 19/10/8 44/37/8 43/36/6
f 19/10/8 24/13/10 45/38/10 44/37/8
f 24/13/10 29/16/12 46/39/12 45/38/10
f 29/16/12 34/19/14 47/40/14 46/39/12
f 34/19/14 39/23/16 48/41/16 47/40/14
s off
f 1/22/18 42/34/18 41/35/18 2/27/18
f 2/27/18 41/35/18 43/36/18 11/28/18
f 11/28/18 43/36/18 44/37/18 16/29/18
f 16/29/18 44/37/18 45/38/18 21/30/18
f 21/30/18 45/38/18 46/39/18 26/31/18
f 26/31/18 46/39/18 47/40/18 31/32/18
f 31/32/18 47/40/18 48/41/18 36/33/18
s 2
f 49/42/4 50/43/4 51/45/5 52/44/5
s 4
f 53/104/18 54/106/18 51/89/18 50/26/18
s 2
f 52/44/5 51/45/5 55/47/7 56/46/7
s 4
f 54/106/18 57/108/18 55/91/18 51/89/18
s 2
f 56/46/7 55/47/7 58/49/9 59/48/9
s 4
f 57/108/18 60/110/18 58/93/18 55/91/18
s 2
f 59/48/9 58/49/9 61/51/11 62/50/11
s 4
f 60/110/18 63/112/18 61/95/18 58/93/18
s 2
f 62/50/11 61/51/11 64/53/13 65/52/13
s 4
f 63/112/18 66/114/18 64/97/18 61/95/18
s 2
f 65/52/13 64/53/13 67/55/15 68/54/15
s 4
f 66/114/18 69/116/18 67/99/18 64/97/18
s 2
f 68/54/15 67/55/15 70/57/17 71/56/17
s 4
f 69/116/18 72/118/18 70/101/18 67/99/18
f 73/58/3 74/59/3 75/60/3 76/61/3
s 8
f 77/62/19 78/63/19 74/59/19 73/58/19
s 16
f 78/66/20 79/67/20 75/68/20 74/71/20
s 32
f 80/65/21 81/69/21 82/70/21 83/64/21
s 64
f 73/73/22 76/74/22 84/77/22 77/72/22
s 32
f 76/61/21 75/60/21 79/76/21 84/75/21
s off
f 77/72/22 84/77/22 81/84/22 80/85/22
f 84/75/3 79/76/3 82/70/3 81/69/3
f 79/67/23 78/66/23 83/86/23 82/87/23
s 8
f 85/79/1 86/80/1 87/81/1 88/78/1
s 64
f 89/82/24 88/78/24 87/81/24 90/83/24
s 4
f 49/42/3 52/44/3 91/105/3 92/103/3
f 52/44/3 56/46/3 93/107/3 91/105/3
f 56/46/3 59/48/3 94/109/3 93/107/3
f 59/48/3 62/50/3 95/111/3 94/109/3
f 62/50/3 65/52/3 96/113/3 95/111/3
f 65/52/3 68/54/3 97/115/3 96/113/3
f 68/54/3 71/56/3 98/117/3 97/115/3
s 2
f 1/120/1 4/119/1 99/122/25 100/121/25
s 4
f 5/123/3 101/126/3 102/125/3 6/124/3
s 2
f 6/124/4 102/125/26 103/128/26 9/127/4
f 100/121/25 99/122/25 104/130/20 105/129/20
s 4
f 101/126/3 106/132/3 107/131/3 102/125/3
s 2
f 102/125/26 107/131/22 108/133/22 103/128/26
f 105/129/20 104/130/20 109/135/27 110/134/27
s 4
f 106/132/3 111/137/3 112/136/3 107/131/3
s 2
f 107/131/22 112/136/28 113/138/28 108/133/22
f 110/134/27 109/135/27 114/140/29 115/139/29
s 4
f 111/137/3 116/142/3 117/141/3 112/136/3
s 2
f 112/136/28 117/141/30 118/143/30 113/138/28
f 115/139/29 114/140/29 119/145/31 120/144/31
s 4
f 116/142/3 121/147/3 122/146/3 117/141/3
s 2
f 117/141/30 122/146/32 123/148/32 118/143/30
f 120/144/31 119/145/31 124/150/33 125/149/33
s 4
f 121/147/3 126/152/3 127/151/3 122/146/3
s 2
f 122/146/32 127/151/34 128/153/34 123/148/32
f 125/149/33 124/150/33 129/155/35 130/154/35
s 4
f 126/152/3 131/157/3 132/156/3 127/151/3
s 2
f 127/151/34 132/156/36 133/158/36 128/153/34
f 5/123/1 42/159/1 134/160/25 101/126/25
f 101/126/25 134/160/25 135/161/20 106/132/20
f 106/132/20 135/161/20 136/162/27 111/137/27
f 111/137/27 136/162/27 137/163/29 116/142/29
f 116/142/29 137/163/29 138/164/31 121/147/31
f 121/147/31 138/164/31 139/165/33 126/152/33
f 126/152/33 139/165/33 140/166/35 131/157/35
s off
f 1/120/18 100/121/18 134/160/18 42/159/18
f 100/121/18 105/129/18 135/161/18 134/160/18
f 105/129/18 110/134/18 136/162/18 135/161/18
f 110/134/18 115/139/18 137/163/18 136/162/18
f 115/139/18 120/144/18 138/164/18 137/163/18
f 120/144/18 125/149/18 139/165/18 138/164/18
f 125/149/18 130/154/18 140/166/18 139/165/18
s 2
f 49/167/4 141/170/26 142/169/26 50/168/4
s 4
f 53/172/18 50/171/18 142/174/18 143/173/18
s 2
f 141/170/26 144/176/22 145/175/22 142/169/26
s 4
f 143/173/18 142/174/18 145/178/18 146/177/18
s 2
f 144/176/22 147/180/28 148/179/28 145/175/22
s 4
f 146/177/18 145/178/18 148/182/18 149/181/18
s 2
f 147/180/28 150/184/30 151/183/30 148/179/28
s 4
f 149/181/18 148/182/18 151/186/18 152/185/18
s 2
f 150/184/30 153/188/32 154/187/32 151/183/30
s 4
f 152/185/18 151/186/18 154/190/18 155/189/18
s 2
f 153/188/32 156/192/34 157/191/34 154/187/32
s 4
f 155/189/18 154/190/18 157/194/18 158/193/18
s 2
f 156/192/34 159/196/36 160/195/36 157/191/34
s 4
f 158/193/18 157/194/18 160/198/18 161/197/18
f 162/199/3 163/202/3 164/201/3 165/200/3
s 8
f 166/203/37 162/199/37 165/200/37 167/204/37
s 16
f 167/205/6 165/208/6 164/207/6 168/206/6
s 32
f 169/210/38 170/209/38 171/212/38 172/211/38
s 64
f 162/214/7 166/213/7 173/216/7 163/215/7
s 32
f 163/202/38 173/217/38 168/218/38 164/201/38
s off
f 166/213/7 169/220/7 172/219/7 173/216/7
f 173/217/3 172/211/3 171/212/3 168/218/3
f 168/206/39 171/222/39 170/221/39 167/205/39
s 8
f 85/224/1 174/223/1 175/226/1 86/225/1
s 64
f 176/227/40 177/228/40 175/226/40 174/223/40
s 4
f 49/167/3 92/229/3 178/230/3 141/170/3
f 141/170/3 178/230/3 179/231/3 144/176/3
f 144/176/3 179/231/3 180/232/3 147/180/3
f 147/180/3 180/232/3 181/233/3 150/184/3
f 150/184/3 181/233/3 182/234/3 153/188/3
f 153/188/3 182/234/3 183/235/3 156/192/3
f 156/192/3 183/235/3 184/236/3 159/196/3
# 134 polygons

