# 3ds Max Wavefront OBJ Exporter v0.97b - (c)2007 guruware
# File Created: 08.02.2018 15:15:44

mtllib office.mtl

#
# object meeting_room_large
#

v  0.0000 0.0000 0.0000
v  150.0000 0.0000 0.0000
v  150.0000 0.0000 300.0000
v  0.0000 0.0000 300.0000
v  300.0000 0.0000 0.0000
v  300.0000 0.0000 300.0000
v  450.0000 0.0000 0.0000
v  450.0000 0.0000 300.0000
v  600.0000 0.0000 0.0000
v  600.0000 0.0000 300.0000
v  600.0000 -150.0000 0.0000
v  600.0000 -150.0000 300.0000
v  600.0000 -300.0000 0.0000
v  600.0000 -300.0000 300.0000
v  600.0000 -450.0000 0.0000
v  600.0000 -450.0000 300.0000
v  600.0000 -600.0000 0.0000
v  600.0000 -600.0000 300.0000
v  -300.0000 -150.0000 0.0000
v  -300.0000 0.0000 0.0000
v  -300.0000 0.0000 300.0000
v  -300.0000 -150.0000 300.0000
v  -23.5237 0.0000 207.0000
v  -23.5237 0.0000 0.0000
v  -150.0000 0.0000 0.0000
v  -126.4762 0.0000 0.0000
v  -126.4762 0.0000 207.0000
v  -150.0000 0.0000 300.0000
v  -300.0000 -300.0000 0.0000
v  -300.0000 -300.0000 300.0000
v  -300.0000 -450.0000 0.0000
v  -300.0000 -450.0000 300.0000
v  -300.0000 -600.0000 0.0000
v  -300.0000 -600.0000 300.0000
v  0.0000 -600.0000 0.0000
v  -150.0000 -600.0000 0.0000
v  -150.0000 -600.0000 300.0000
v  0.0000 -600.0000 300.0000
v  150.0000 -600.0000 0.0000
v  150.0000 -600.0000 300.0000
v  300.0000 -600.0000 0.0000
v  300.0000 -600.0000 300.0000
v  450.0000 -600.0000 0.0000
v  450.0000 -600.0000 300.0000
v  0.0000 10.0000 0.0000
v  -23.5237 10.0000 0.0000
v  -23.5237 10.0000 207.0000
v  0.0000 10.0000 300.0000
v  -150.0000 10.0000 0.0000
v  -150.0000 10.0000 300.0000
v  -126.4762 10.0000 207.0000
v  -126.4762 10.0000 0.0000
# 52 vertices

vn 0.0000 -1.0000 0.0000
vn -1.0000 0.0000 0.0000
vn 1.0000 0.0000 0.0000
vn -0.0000 -1.0000 -0.0000
vn 0.0000 1.0000 0.0000
# 5 vertex normals

vt 0.0000 0.0000 0.0000
vt 0.5000 0.0000 0.0000
vt 0.0000 1.0000 0.0000
vt 0.5000 1.0000 0.0000
vt 0.0000 0.0000 0.0000
vt 0.5000 0.0000 0.0000
vt 0.0000 1.0000 0.0000
vt 0.5000 1.0000 0.0000
vt 0.0000 0.0000 0.0000
vt 0.5000 0.0000 0.0000
vt 0.0000 1.0000 0.0000
vt 0.5000 1.0000 0.0000
vt 0.0000 0.0000 0.0000
vt 0.5000 0.0000 0.0000
vt 0.0000 1.0000 0.0000
vt 0.5000 1.0000 0.0000
vt 0.0000 0.0000 0.0000
vt 0.5000 0.0000 0.0000
vt 0.0000 1.0000 0.0000
vt 0.5000 1.0000 0.0000
vt 0.0000 0.0000 0.0000
vt 0.5000 0.0000 0.0000
vt 0.0000 1.0000 0.0000
vt 0.5000 1.0000 0.0000
vt 0.0000 0.0000 0.0000
vt 0.5000 0.0000 0.0000
vt 0.0000 1.0000 0.0000
vt 0.5000 1.0000 0.0000
vt 0.0000 0.0000 0.0000
vt 0.5000 0.0000 0.0000
vt 0.0000 1.0000 0.0000
vt 0.5000 1.0000 0.0000
vt 0.0000 0.0000 0.0000
vt 0.5000 0.0000 0.0000
vt 0.0000 1.0000 0.0000
vt 0.5000 1.0000 0.0000
vt 0.0784 0.0000 0.0000
vt 0.4216 0.0000 0.0000
vt 0.4216 0.6900 0.0000
vt 0.0784 0.6900 0.0000
vt 0.0000 0.0000 0.0000
vt 0.5000 0.0000 0.0000
vt 0.0000 1.0000 0.0000
vt 0.5000 1.0000 0.0000
vt 0.0000 0.0000 0.0000
vt 0.5000 0.0000 0.0000
vt 0.0000 1.0000 0.0000
vt 0.5000 1.0000 0.0000
vt 0.0000 0.0000 0.0000
vt 0.5000 0.0000 0.0000
vt 0.0000 1.0000 0.0000
vt 0.5000 1.0000 0.0000
vt 0.0000 0.0000 0.0000
vt 0.5000 0.0000 0.0000
vt 0.0000 1.0000 0.0000
vt 0.5000 1.0000 0.0000
vt 0.0000 0.0000 0.0000
vt 0.5000 0.0000 0.0000
vt 0.0000 1.0000 0.0000
vt 0.5000 1.0000 0.0000
vt 0.0000 0.0000 0.0000
vt 0.5000 0.0000 0.0000
vt 0.0000 1.0000 0.0000
vt 0.5000 1.0000 0.0000
vt 0.0000 0.0000 0.0000
vt 0.5000 0.0000 0.0000
vt 0.0000 1.0000 0.0000
vt 0.5000 1.0000 0.0000
vt 0.0000 0.0000 0.0000
vt 0.5000 0.0000 0.0000
vt 0.0000 1.0000 0.0000
vt 0.5000 1.0000 0.0000
vt 0.0000 0.0000 0.0000
vt 0.5000 0.0000 0.0000
vt 0.0000 1.0000 0.0000
vt 0.5000 1.0000 0.0000
vt 0.0000 0.0000 0.0000
vt 0.5000 0.0000 0.0000
vt 0.0000 1.0000 0.0000
vt 0.5000 1.0000 0.0000
vt 0.0784 0.0000 0.0000
vt 0.4216 0.0000 0.0000
vt 0.4216 0.6900 0.0000
vt 0.0784 0.6900 0.0000
vt 0.4999 0.0000 0.0000
vt 0.9999 0.0000 0.0000
vt 0.4999 1.0000 0.0000
vt 0.9999 1.0000 0.0000
vt 0.4999 0.0000 0.0000
vt 0.9999 0.0000 0.0000
vt 0.4999 1.0000 0.0000
vt 0.9999 1.0000 0.0000
# 92 texture coords

g meeting_room_large
usemtl wall_window_and_elevator
s off
f 1/1/1 2/2/1 3/4/1 4/3/1 
f 2/5/1 5/6/1 6/8/1 3/7/1 
f 5/9/1 7/10/1 8/12/1 6/11/1 
f 7/13/1 9/14/1 10/16/1 8/15/1 
usemtl wall_plain_and_door
f 9/17/2 11/18/2 12/20/2 10/19/2 
f 11/21/2 13/22/2 14/24/2 12/23/2 
f 13/85/2 15/86/2 16/88/2 14/87/2 
f 15/25/2 17/26/2 18/28/2 16/27/2 
f 19/29/3 20/30/3 21/32/3 22/31/3 
f 1/34/1 4/36/1 23/39/1 24/38/1 
f 25/33/1 26/37/1 27/40/1 28/35/1 
f 23/39/1 4/36/1 28/35/1 27/40/1 
usemtl wall_window_and_elevator
f 20/41/4 25/42/4 28/44/4 21/43/4 
usemtl wall_plain_and_door
f 29/89/3 19/90/3 22/92/3 30/91/3 
f 31/45/3 29/46/3 30/48/3 32/47/3 
f 33/49/3 31/50/3 32/52/3 34/51/3 
f 35/53/5 36/54/5 37/56/5 38/55/5 
f 36/57/5 33/58/5 34/60/5 37/59/5 
f 39/61/5 35/62/5 38/64/5 40/63/5 
f 41/65/5 39/66/5 40/68/5 42/67/5 
f 43/69/5 41/70/5 42/72/5 44/71/5 
f 17/73/5 43/74/5 44/76/5 18/75/5 
f 45/78/5 46/82/5 47/83/5 48/80/5 
f 49/77/5 50/79/5 51/84/5 52/81/5 
f 47/83/5 51/84/5 50/79/5 48/80/5 
# 25 polygons

