# 3ds Max Wavefront OBJ Exporter v0.97b - (c)2007 guruware
# File Created: 08.02.2018 15:17:39

mtllib office.mtl

#
# object office_large
#

v  300.0000 -300.0000 0.0000
v  300.0000 -450.0000 0.0000
v  300.0000 -450.0000 300.0000
v  300.0000 -300.0000 300.0000
v  300.0000 -150.0000 0.0000
v  300.0000 -150.0000 300.0000
v  300.0000 0.0000 0.0000
v  300.0000 0.0000 300.0000
v  150.0000 0.0000 0.0000
v  150.0000 0.0000 300.0000
v  0.0000 0.0000 0.0000
v  0.0000 0.0000 300.0000
v  -23.5237 0.0000 207.0000
v  -23.5237 0.0000 0.0000
v  -150.0000 0.0000 0.0000
v  -126.4763 0.0000 0.0000
v  -126.4763 0.0000 207.0000
v  -150.0000 0.0000 300.0000
v  -300.0000 0.0000 0.0000
v  -300.0000 0.0000 300.0000
v  -300.0000 -150.0000 0.0000
v  -300.0000 -150.0000 300.0000
v  -300.0000 -300.0000 0.0000
v  -300.0000 -300.0000 300.0000
v  -300.0000 -450.0000 0.0000
v  -300.0000 -450.0000 300.0000
v  0.0000 10.0000 0.0000
v  -23.5237 10.0000 0.0000
v  -23.5237 10.0000 207.0000
v  0.0000 10.0000 300.0000
v  -150.0000 10.0000 0.0000
v  -150.0000 10.0000 300.0000
v  -126.4763 10.0000 207.0000
v  -126.4763 10.0000 0.0000
v  150.0000 -450.0000 0.0000
v  150.0000 -450.0000 300.0000
v  0.0000 -450.0000 0.0000
v  0.0000 -450.0000 300.0000
v  -150.0000 -450.0000 0.0000
v  -150.0000 -450.0000 300.0000
# 40 vertices

vn -1.0000 0.0000 0.0000
vn -1.0000 0.0000 -0.0000
vn 0.0000 -1.0000 0.0000
vn 1.0000 0.0000 0.0000
vn 0.0000 1.0000 0.0000
vn 0.0000 1.0000 -0.0000
vn -0.0000 1.0000 -0.0000
# 7 vertex normals

vt 0.0000 0.0000 0.0000
vt 0.5000 0.0000 0.0000
vt 0.0000 1.0000 0.0000
vt 0.5000 1.0000 0.0000
vt 0.0000 0.0000 0.0000
vt 0.5000 0.0000 0.0000
vt 0.0000 1.0000 0.0000
vt 0.5000 1.0000 0.0000
vt 0.0000 0.0000 0.0000
vt 0.5000 0.0000 0.0000
vt 0.0000 1.0000 0.0000
vt 0.5000 1.0000 0.0000
vt 0.0000 0.0000 0.0000
vt 0.5000 0.0000 0.0000
vt 0.0000 1.0000 0.0000
vt 0.5000 1.0000 0.0000
vt 0.0000 0.0000 0.0000
vt 0.5000 0.0000 0.0000
vt 0.0000 1.0000 0.0000
vt 0.5000 1.0000 0.0000
vt 0.0000 0.0000 0.0000
vt 0.5000 0.0000 0.0000
vt 0.0000 1.0000 0.0000
vt 0.5000 1.0000 0.0000
vt 0.0784 0.0000 0.0000
vt 0.4216 0.0000 0.0000
vt 0.4216 0.6900 0.0000
vt 0.0784 0.6900 0.0000
vt 0.0000 0.0000 0.0000
vt 0.5000 0.0000 0.0000
vt 0.0000 1.0000 0.0000
vt 0.5000 1.0000 0.0000
vt 0.0000 0.0000 0.0000
vt 0.5000 0.0000 0.0000
vt 0.0000 1.0000 0.0000
vt 0.5000 1.0000 0.0000
vt 0.0000 0.0000 0.0000
vt 0.5000 0.0000 0.0000
vt 0.0000 1.0000 0.0000
vt 0.5000 1.0000 0.0000
vt 0.0000 0.0000 0.0000
vt 0.5000 0.0000 0.0000
vt 0.0000 1.0000 0.0000
vt 0.5000 1.0000 0.0000
vt 0.0000 0.0000 0.0000
vt 0.5000 0.0000 0.0000
vt 0.0000 1.0000 0.0000
vt 0.5000 1.0000 0.0000
vt 0.0784 0.0000 0.0000
vt 0.4216 0.0000 0.0000
vt 0.4216 0.6900 0.0000
vt 0.0784 0.6900 0.0000
vt 0.0000 0.0000 0.0000
vt 0.5000 0.0000 0.0000
vt 0.0000 1.0000 0.0000
vt 0.5000 1.0000 0.0000
vt 0.0000 0.0000 0.0000
vt 0.5000 0.0000 0.0000
vt 0.0000 1.0000 0.0000
vt 0.5000 1.0000 0.0000
vt 0.0000 0.0000 0.0000
vt 0.5000 0.0000 0.0000
vt 0.0000 1.0000 0.0000
vt 0.5000 1.0000 0.0000
vt 0.0000 0.0000 0.0000
vt 0.5000 0.0000 0.0000
vt 0.0000 1.0000 0.0000
vt 0.5000 1.0000 0.0000
# 68 texture coords

g office_large
usemtl wall_plain_and_door
s off
f 1/1/1 2/2/1 3/4/1 4/3/1 
f 5/5/1 1/6/1 4/8/1 6/7/1 
f 7/9/2 5/10/2 6/12/2 8/11/2 
f 9/13/3 7/14/3 8/16/3 10/15/3 
f 11/17/3 9/18/3 10/20/3 12/19/3 
f 11/22/3 12/24/3 13/27/3 14/26/3 
f 15/21/3 16/25/3 17/28/3 18/23/3 
f 13/27/3 12/24/3 18/23/3 17/28/3 
f 19/29/3 15/30/3 18/32/3 20/31/3 
f 21/33/4 19/34/4 20/36/4 22/35/4 
f 23/37/4 21/38/4 22/40/4 24/39/4 
f 25/41/4 23/42/4 24/44/4 26/43/4 
f 27/46/5 28/50/5 29/51/5 30/48/5 
f 31/45/5 32/47/5 33/52/5 34/49/5 
f 29/51/5 33/52/5 32/47/5 30/48/5 
usemtl wall_window_and_elevator
f 2/53/6 35/54/6 36/56/6 3/55/6 
f 35/57/7 37/58/7 38/60/7 36/59/7 
f 37/61/6 39/62/6 40/64/6 38/63/6 
f 39/65/5 25/66/5 26/68/5 40/67/5 
# 19 polygons

