# 3ds Max Wavefront OBJ Exporter v0.97b - (c)2007 guruware
# File Created: 08.02.2018 15:17:07

mtllib office.mtl

#
# object reception
#

v  0.0000 0.0000 0.0000
v  0.0000 0.0000 300.0000
v  -23.5237 0.0000 207.0000
v  -23.5237 0.0000 0.0000
v  -150.0000 0.0000 0.0000
v  -126.4762 0.0000 0.0000
v  -126.4762 0.0000 207.0000
v  -150.0000 0.0000 300.0000
v  0.0000 10.0000 0.0000
v  -23.5237 10.0000 0.0000
v  -23.5237 10.0000 207.0000
v  0.0000 10.0000 300.0000
v  -150.0000 10.0000 0.0000
v  -150.0000 10.0000 300.0000
v  -126.4762 10.0000 207.0000
v  -126.4762 10.0000 0.0000
v  150.0000 0.0000 0.0000
v  150.0000 0.0000 300.0000
v  300.0000 0.0000 0.0000
v  300.0000 0.0000 300.0000
v  450.0000 0.0000 0.0000
v  450.0000 0.0000 300.0000
v  450.0000 -150.0000 0.0000
v  450.0000 -150.0000 300.0000
v  450.0000 -300.0000 0.0000
v  450.0000 -300.0000 300.0000
v  450.0000 -450.0000 0.0000
v  450.0000 -450.0000 300.0000
v  450.0000 -600.0000 0.0000
v  450.0000 -600.0000 300.0000
v  -450.0000 0.0000 0.0000
v  -300.0000 0.0000 0.0000
v  -300.0000 0.0000 300.0000
v  -450.0000 0.0000 300.0000
v  450.0000 -750.0000 0.0000
v  450.0000 -750.0000 300.0000
v  -150.0000 -750.0000 0.0000
v  -300.0000 -750.0000 0.0000
v  -300.0000 -750.0000 300.0000
v  -150.0000 -749.9999 300.0000
v  0.0000 -750.0000 0.0000
v  0.0000 -749.9999 300.0000
v  150.0000 -750.0000 0.0000
v  150.0000 -749.9999 300.0000
v  300.0000 -750.0000 0.0000
v  300.0000 -749.9999 300.0000
v  -450.0000 -750.0000 0.0000
v  -600.0000 -750.0000 0.0000
v  -600.0000 -750.0000 300.0000
v  -450.0000 -750.0000 300.0000
v  -600.0000 -150.0000 0.0000
v  -600.0000 0.0000 0.0000
v  -599.9999 0.0000 300.0000
v  -600.0000 -150.0000 300.0000
v  -600.0000 -300.0000 0.0000
v  -600.0000 -300.0000 300.0000
v  -600.0000 -450.0000 0.0000
v  -600.0000 -450.0000 300.0000
v  -600.0000 -600.0000 0.0000
v  -600.0000 -600.0000 300.0000
v  -426.4763 -750.0000 207.0000
v  -426.4763 -750.0000 0.0000
v  -323.5237 -750.0000 0.0000
v  -323.5237 -750.0000 207.0000
v  -450.0000 -760.0000 0.0000
v  -426.4763 -760.0000 0.0000
v  -426.4763 -760.0000 207.0000
v  -450.0000 -760.0000 300.0000
v  -300.0000 -760.0000 0.0000
v  -300.0000 -760.0000 300.0000
v  -323.5237 -760.0000 207.0000
v  -323.5237 -760.0000 0.0000
# 72 vertices

vn 0.0000 -1.0000 0.0000
vn 0.0000 1.0000 0.0000
vn -1.0000 0.0000 0.0000
vn -0.0000 -1.0000 -0.0000
vn -0.0000 1.0000 -0.0000
vn 0.0000 1.0000 -0.0000
vn 1.0000 -0.0000 -0.0000
vn 1.0000 0.0000 0.0000
vn 0.0000 -1.0000 -0.0000
# 9 vertex normals

vt 0.0000 0.0000 0.0000
vt 0.5000 0.0000 0.0000
vt 0.0000 1.0000 0.0000
vt 0.5000 1.0000 0.0000
vt 0.0000 0.0000 0.0000
vt 0.5000 0.0000 0.0000
vt 0.0000 1.0000 0.0000
vt 0.5000 1.0000 0.0000
vt 0.0000 0.0000 0.0000
vt 0.5000 0.0000 0.0000
vt 0.0000 1.0000 0.0000
vt 0.5000 1.0000 0.0000
vt 0.5006 0.0000 0.0000
vt 0.9997 0.0000 0.0000
vt 0.5006 1.0000 0.0000
vt 0.9997 1.0000 0.0000
vt 0.5006 0.0000 0.0000
vt 0.9997 0.0000 0.0000
vt 0.5006 1.0000 0.0000
vt 0.9997 1.0000 0.0000
vt 0.5006 0.0000 0.0000
vt 0.9997 0.0000 0.0000
vt 0.5006 1.0000 0.0000
vt 0.9997 1.0000 0.0000
vt 0.0000 0.0000 0.0000
vt 0.5000 0.0000 0.0000
vt 0.0000 1.0000 0.0000
vt 0.5000 1.0000 0.0000
vt 0.5006 0.0000 0.0000
vt 0.9997 0.0000 0.0000
vt 0.5006 1.0000 0.0000
vt 0.9997 1.0000 0.0000
vt 0.5006 0.0000 0.0000
vt 0.9997 0.0000 0.0000
vt 0.9997 1.0000 0.0000
vt 0.5006 1.0000 0.0000
vt 0.0000 0.0000 0.0000
vt 0.5000 0.0000 0.0000
vt 0.5000 1.0000 0.0000
vt 0.0000 1.0000 0.0000
vt 0.0000 0.0000 0.0000
vt 0.0000 1.0000 0.0000
vt 0.5000 1.0000 0.0000
vt 0.5000 0.0000 0.0000
vt 0.5789 0.0000 0.0000
vt 0.9214 0.0000 0.0000
vt 0.9214 0.6900 0.0000
vt 0.5789 0.6900 0.0000
vt 0.5006 0.0000 0.0000
vt 0.9996 0.0000 0.0000
vt 0.5006 1.0000 0.0000
vt 0.9996 1.0000 0.0000
vt 0.5789 0.0000 0.0000
vt 0.9214 0.0000 0.0000
vt 0.9214 0.6900 0.0000
vt 0.5789 0.6900 0.0000
vt 0.9996 0.0000 0.0000
vt 0.9996 1.0000 0.0000
vt 0.5006 0.0000 0.0000
vt 0.5006 1.0000 0.0000
vt 0.5253 0.0000 0.0000
vt 0.9749 0.0000 0.0000
vt 0.5253 0.0000 0.0000
vt 0.9749 0.0000 0.0000
vt 0.5253 0.0000 0.0000
vt 0.9749 0.0000 0.0000
vt 0.5253 0.0000 0.0000
vt 0.9749 0.0000 0.0000
vt 0.9749 0.0000 0.0000
vt 0.5253 1.0000 0.0000
vt 0.5253 0.0000 0.0000
vt 0.5253 1.0000 0.0000
vt 0.9749 1.0000 0.0000
vt 0.5253 1.0000 0.0000
vt 0.9749 1.0000 0.0000
vt 0.9749 1.0000 0.0000
vt 0.9749 1.0000 0.0000
vt 0.5253 1.0000 0.0000
vt 0.5253 1.0000 0.0000
vt 0.9749 1.0000 0.0000
vt 0.5253 0.0000 0.0000
vt 0.9749 0.0000 0.0000
vt 0.9749 1.0000 0.0000
vt 0.5253 1.0000 0.0000
vt 0.5253 0.0000 0.0000
vt 0.5253 0.0000 0.0000
vt 0.9749 0.0000 0.0000
vt 0.5253 0.0000 0.0000
vt 0.9749 0.0000 0.0000
vt 0.5253 0.0000 0.0000
vt 0.9749 0.0000 0.0000
vt 0.9749 0.0000 0.0000
vt 0.9749 1.0000 0.0000
vt 0.9749 1.0000 0.0000
vt 0.5253 1.0000 0.0000
vt 0.5253 1.0000 0.0000
vt 0.5253 1.0000 0.0000
vt 0.9749 1.0000 0.0000
vt 0.5253 1.0000 0.0000
vt 0.9749 1.0000 0.0000
vt 0.5251 0.0000 0.0000
vt 0.9748 0.0000 0.0000
vt 0.9748 1.0000 0.0000
vt 0.5251 1.0000 0.0000
vt 0.5789 0.0000 0.0000
vt 0.9214 0.0000 0.0000
vt 0.9214 0.6900 0.0000
vt 0.5789 0.6900 0.0000
vt 0.5006 0.0000 0.0000
vt 0.9996 0.0000 0.0000
vt 0.5006 1.0000 0.0000
vt 0.9996 1.0000 0.0000
vt 0.5789 0.0000 0.0000
vt 0.9214 0.0000 0.0000
vt 0.9214 0.6900 0.0000
vt 0.5789 0.6900 0.0000
vt 0.9996 0.0000 0.0000
vt 0.9996 1.0000 0.0000
vt 0.5006 0.0000 0.0000
vt 0.5006 1.0000 0.0000
# 120 texture coords

g reception
usemtl wall_color
s off
f 1/57/1 2/58/1 3/47/1 4/46/1 
f 5/59/1 6/45/1 7/48/1 8/60/1 
f 3/47/1 2/58/1 8/60/1 7/48/1 
usemtl wall_plain_and_door
f 9/50/2 10/54/2 11/55/2 12/52/2 
f 13/49/2 14/51/2 15/56/2 16/53/2 
f 11/55/2 15/56/2 14/51/2 12/52/2 
usemtl wall_window_and_elevator
f 1/1/1 17/2/1 18/4/1 2/3/1 
f 17/5/1 19/6/1 20/8/1 18/7/1 
f 19/9/1 21/10/1 22/12/1 20/11/1 
usemtl wall_color
f 21/13/3 23/14/3 24/16/3 22/15/3 
f 23/17/3 25/18/3 26/20/3 24/19/3 
f 25/29/3 27/30/3 28/32/3 26/31/3 
f 27/21/3 29/22/3 30/24/3 28/23/3 
usemtl wall_window_and_elevator
f 31/25/4 32/26/4 33/28/4 34/27/4 
usemtl wall_color
f 29/33/3 35/34/3 36/35/3 30/36/3 
f 37/61/5 38/62/5 39/76/5 40/78/5 
f 41/63/6 37/64/6 40/77/6 42/79/6 
f 43/65/6 41/66/6 42/80/6 44/72/6 
f 45/67/6 43/68/6 44/73/6 46/74/6 
f 35/71/6 45/69/6 46/75/6 36/70/6 
f 47/81/2 48/82/2 49/83/2 50/84/2 
f 51/85/7 52/92/7 53/93/7 54/99/7 
f 55/88/8 51/89/8 54/100/8 56/97/8 
f 57/86/8 55/87/8 56/98/8 58/95/8 
f 59/90/8 57/91/8 58/94/8 60/96/8 
f 48/101/8 59/102/8 60/103/8 49/104/8 
usemtl wall_window_and_elevator
f 52/37/9 31/38/9 34/39/9 53/40/9 
f 32/41/1 5/44/1 8/43/1 33/42/1 
usemtl wall_color
f 47/117/2 50/118/2 61/107/2 62/106/2 
f 38/119/2 63/105/2 64/108/2 39/120/2 
f 61/107/2 50/118/2 39/120/2 64/108/2 
usemtl wall_plain_and_door
f 65/110/1 66/114/1 67/115/1 68/112/1 
f 69/109/1 70/111/1 71/116/1 72/113/1 
f 67/115/1 71/116/1 70/111/1 68/112/1 
# 34 polygons

