# 3ds Max Wavefront OBJ Exporter v0.97b - (c)2007 guruware
# File Created: 04.02.2018 15:24:47

mtllib office.mtl

#
# object wall_plain
#

v  0.0000 0.0000 0.0000
v  150.0000 0.0000 0.0000
v  150.0000 0.0000 300.0000
v  0.0000 0.0000 300.0000
# 4 vertices

vn 0.0000 -1.0000 0.0000
# 1 vertex normals

vt 0.0000 0.0000 0.0000
vt 0.5000 0.0000 0.0000
vt 0.0000 1.0000 0.0000
vt 0.5000 1.0000 0.0000
# 4 texture coords

g wall_plain
usemtl wall_plain_and_door
s 8
f 1/1/1 2/2/1 3/4/1 4/3/1
# 1 polygons

