# Blender v2.80 (sub 75) OBJ File: 'texture.blend'
# www.blender.org
mtllib FreezerCondenser.mtl
o cond_Cube
v -0.240000 -0.216000 0.060000
v -0.240000 -0.216000 0.540000
v -0.300000 0.216000 0.000000
v -0.300000 0.216000 0.600000
v 0.240000 -0.216000 0.060000
v 0.240000 -0.216000 0.540000
v 0.300000 0.216000 0.000000
v 0.300000 0.216000 0.600000
v -0.300000 -0.216000 0.000000
v -0.300000 -0.216000 0.600000
v 0.300000 -0.216000 0.600000
v 0.300000 -0.216000 0.000000
v -0.240000 -0.222867 0.060000
v -0.240000 -0.222867 0.540000
v 0.240000 -0.222867 0.540000
v 0.240000 -0.222867 0.060000
v 0.026402 -0.275956 0.326402
v 0.000001 -0.222867 0.520001
v 0.000001 -0.256771 0.520001
v 0.155564 -0.222867 0.455564
v 0.155564 -0.256771 0.455564
v 0.220001 -0.222867 0.300001
v 0.220001 -0.256771 0.300001
v 0.155564 -0.222867 0.144437
v 0.155564 -0.256771 0.144437
v 0.000001 -0.222867 0.080001
v 0.000001 -0.256771 0.080001
v -0.155563 -0.222867 0.144437
v -0.155563 -0.256771 0.144437
v -0.219999 -0.222867 0.300001
v -0.219999 -0.256771 0.300001
v -0.155563 -0.222867 0.455564
v -0.155563 -0.256771 0.455564
v 0.000001 -0.275956 0.337337
v 0.000001 -0.275956 0.507971
v 0.147058 -0.275956 0.447058
v 0.207971 -0.275956 0.300001
v 0.147058 -0.275956 0.152944
v 0.000001 -0.275956 0.092031
v -0.147056 -0.275956 0.152944
v -0.207969 -0.275956 0.300001
v -0.147056 -0.275956 0.447058
v 0.037337 -0.275956 0.300001
v 0.026402 -0.275956 0.273600
v 0.000001 -0.275956 0.262665
v -0.026400 -0.275956 0.273600
v -0.037336 -0.275956 0.300001
v -0.026400 -0.275956 0.326402
v 0.023762 -0.284831 0.323762
v 0.000001 -0.284831 0.333604
v 0.033604 -0.284831 0.300001
v 0.023762 -0.284831 0.276240
v 0.000001 -0.284831 0.266398
v -0.023760 -0.284831 0.276240
v -0.033602 -0.284831 0.300001
v -0.023760 -0.284831 0.323762
v 0.000001 -0.284831 0.300001
vt 0.377176 0.298978
vt 0.377176 0.088234
vt 0.587919 0.088234
vt 0.587919 0.298978
vt 0.377176 0.318483
vt 0.377176 0.314296
vt 0.587920 0.314296
vt 0.587920 0.318483
vt 0.629960 0.946380
vt 0.333256 0.946380
vt 0.333256 0.649677
vt 0.629960 0.649677
vt 0.332960 0.055677
vt 0.332959 0.352380
vt 0.036256 0.352380
vt 0.036256 0.055677
vt 0.629960 0.649380
vt 0.333256 0.649380
vt 0.333256 0.352677
vt 0.629960 0.352677
vt 0.365872 0.083540
vt 0.336215 0.053883
vt 0.632785 0.053883
vt 0.603128 0.083540
vt 0.587920 0.303930
vt 0.587920 0.308117
vt 0.377176 0.308117
vt 0.377176 0.303930
vt 0.632785 0.350453
vt 0.603128 0.320796
vt 0.336215 0.350453
vt 0.365872 0.320796
vt 0.377176 0.312687
vt 0.377176 0.308499
vt 0.587920 0.308499
vt 0.587920 0.312687
vt 0.332960 0.352677
vt 0.332959 0.649380
vt 0.036256 0.649380
vt 0.036256 0.352677
vt 0.587920 0.299360
vt 0.587920 0.303548
vt 0.377176 0.303548
vt 0.377176 0.299360
vt 0.813084 0.072748
vt 0.825857 0.084562
vt 0.773284 0.163367
vt 0.758297 0.155073
vt 0.657762 0.337709
vt 0.688294 0.344506
vt 0.674260 0.453623
vt 0.641261 0.451412
vt 0.734033 0.250698
vt 0.717053 0.244508
vt 0.689487 0.233779
vt 0.707030 0.348253
vt 0.694441 0.454538
vt 0.734012 0.141182
vt 0.698652 0.691000
vt 0.740580 0.814147
vt 0.704442 0.828919
vt 0.662716 0.699693
vt 0.698315 0.567635
vt 0.677076 0.569913
vt 0.805302 0.938179
vt 0.768289 0.957043
vt 0.987359 0.441760
vt 0.907821 0.521299
vt 0.861675 0.409894
vt 0.875955 0.395615
vt 0.642234 0.572890
vt 0.762495 0.804573
vt 0.825857 0.922749
vt 0.718037 0.572078
vt 0.724648 0.552996
vt 0.732865 0.556911
vt 0.726916 0.574085
vt 0.720486 0.685216
vt 0.795336 0.521299
vt 0.841481 0.409894
vt 0.715797 0.441760
vt 0.827202 0.395615
vt 0.987359 0.329276
vt 0.875955 0.375421
vt 0.861675 0.361141
vt 0.907821 0.249737
vt 0.841481 0.361141
vt 0.795336 0.249737
vt 0.715797 0.329276
vt 0.827202 0.375421
vt 0.735302 0.648453
vt 0.742454 0.642823
vt 0.755212 0.655767
vt 0.749477 0.662836
vt 0.718037 0.612217
vt 0.726916 0.610210
vt 0.732865 0.627383
vt 0.724648 0.631298
vt 0.735302 0.535842
vt 0.742454 0.541472
vt 0.715797 0.592147
vt 0.724900 0.592147
vt 0.749477 0.521458
vt 0.755212 0.528527
vt 0.755371 0.534310
vt 0.768223 0.521458
vt 0.777310 0.543397
vt 0.786397 0.565336
vt 0.768223 0.565336
vt 0.799249 0.534310
vt 0.799249 0.552485
vt 0.786397 0.521458
vt 0.755371 0.552485
vt 0.789598 0.057203
vt 0.332960 0.649677
vt 0.332959 0.946380
vt 0.036256 0.946380
vt 0.036256 0.649677
vn 0.0000 -1.0000 0.0000
vn 0.0000 0.0000 1.0000
vn 0.0000 0.0000 -1.0000
vn 1.0000 0.0000 0.0000
vn 0.0000 1.0000 0.0000
vn -1.0000 0.0000 0.0000
vn -0.3311 -0.5013 -0.7994
vn -0.3827 0.0000 0.9239
vn -0.7994 -0.5013 -0.3311
vn -0.9239 0.0000 0.3827
vn -0.3311 -0.5013 0.7994
vn -0.9239 0.0000 -0.3827
vn -0.7994 -0.5013 0.3311
vn 0.9239 0.0000 -0.3827
vn 0.3311 -0.5013 0.7994
vn 0.3827 0.0000 -0.9239
vn 0.3827 -0.0000 0.9239
vn 0.3311 -0.5013 -0.7994
vn -0.8611 -0.3622 0.3567
vn 0.7994 -0.5013 0.3311
vn 0.9239 -0.0000 0.3827
vn 0.3567 -0.3622 -0.8611
vn 0.8611 -0.3622 0.3567
vn 0.7994 -0.5013 -0.3311
vn -0.8611 -0.3622 -0.3567
vn 0.3567 -0.3622 0.8611
vn -0.3567 -0.3622 -0.8611
vn 0.8611 -0.3622 -0.3567
vn -0.3567 -0.3622 0.8611
vn -0.3827 0.0000 -0.9239
usemtl cond
s off
f 15/1/1 14/2/1 13/3/1 16/4/1
f 2/5/2 14/6/2 15/7/2 6/8/2
f 7/9/3 12/10/3 9/11/3 3/12/3
f 8/13/4 11/14/4 12/15/4 7/16/4
f 4/17/2 10/18/2 11/19/2 8/20/2
f 1/21/1 9/22/1 12/23/1 5/24/1
f 5/25/3 16/26/3 13/27/3 1/28/3
f 5/24/1 12/23/1 11/29/1 6/30/1
f 6/30/1 11/29/1 10/31/1 2/32/1
f 6/33/4 15/34/4 16/35/4 5/36/4
f 4/37/5 8/38/5 7/39/5 3/40/5
f 1/41/6 13/42/6 14/43/6 2/44/6
f 27/45/7 39/46/7 40/47/7 29/48/7
f 32/49/8 33/50/8 19/51/8 18/52/8
f 29/48/9 40/47/9 41/53/9 31/54/9
f 30/55/10 31/54/10 33/50/10 32/49/10
f 19/51/11 33/50/11 42/56/11 35/57/11
f 28/58/12 29/48/12 31/54/12 30/55/12
f 33/50/13 31/54/13 41/53/13 42/56/13
f 23/59/14 25/60/14 24/61/14 22/62/14
f 19/51/15 35/57/15 36/63/15 21/64/15
f 25/60/16 27/65/16 26/66/16 24/61/16
f 42/67/1 41/68/1 47/69/1 48/70/1
f 19/51/17 21/64/17 20/71/17 18/52/17
f 25/60/18 38/72/18 39/73/18 27/65/18
f 48/74/19 47/75/19 55/76/19 56/77/19
f 21/64/20 36/63/20 37/78/20 23/59/20
f 21/64/21 23/59/21 22/62/21 20/71/21
f 41/68/1 40/79/1 46/80/1 47/69/1
f 40/79/1 39/81/1 45/82/1 46/80/1
f 35/83/1 34/84/1 17/85/1 36/86/1
f 2/32/1 10/31/1 9/22/1 1/21/1
f 36/86/1 17/85/1 43/87/1 37/88/1
f 39/81/1 38/89/1 44/90/1 45/82/1
f 37/88/1 43/87/1 44/90/1 38/89/1
f 42/67/1 48/70/1 34/84/1 35/83/1
f 44/91/22 52/92/22 53/93/22 45/94/22
f 17/95/23 49/96/23 51/97/23 43/98/23
f 23/59/24 37/78/24 38/72/24 25/60/24
f 46/99/25 54/100/25 55/76/25 47/75/25
f 34/101/26 50/102/26 49/96/26 17/95/26
f 45/103/27 53/104/27 54/100/27 46/99/27
f 43/98/28 51/97/28 52/92/28 44/91/28
f 34/101/29 48/74/29 56/77/29 50/102/29
f 56/105/1 55/106/1 57/107/1
f 51/108/1 49/109/1 57/107/1
f 53/110/1 52/111/1 57/107/1
f 55/106/1 54/112/1 57/107/1
f 50/113/1 56/105/1 57/107/1
f 49/109/1 50/113/1 57/107/1
f 52/111/1 51/108/1 57/107/1
f 54/112/1 53/110/1 57/107/1
f 26/114/30 27/45/30 29/48/30 28/58/30
f 10/115/6 4/116/6 3/117/6 9/118/6
